<mxfile host="65bd71144e" pages="2">
    <diagram id="C9V_9p4yQxzEN2AXG14F" name="Overview">
        <mxGraphModel dx="801" dy="1787" grid="0" gridSize="10" guides="1" tooltips="1" connect="1" arrows="1" fold="1" page="0" pageScale="1" pageWidth="850" pageHeight="1100" math="0" shadow="0">
            <root>
                <mxCell id="0"/>
                <mxCell id="3vtcdpRBddFgqBL8o40C-5" value="Untitled Layer" style="" parent="0"/>
                <mxCell id="3vtcdpRBddFgqBL8o40C-21" style="edgeStyle=none;curved=1;rounded=0;orthogonalLoop=1;jettySize=auto;html=1;entryX=0.5;entryY=0;entryDx=0;entryDy=0;endArrow=classic;startSize=14;endSize=14;targetPerimeterSpacing=8;endFill=1;startArrow=none;" parent="3vtcdpRBddFgqBL8o40C-5" source="3vtcdpRBddFgqBL8o40C-36" target="3vtcdpRBddFgqBL8o40C-29" edge="1">
                    <mxGeometry relative="1" as="geometry">
                        <mxPoint x="214" y="-798" as="sourcePoint"/>
                        <Array as="points"/>
                    </mxGeometry>
                </mxCell>
                <mxCell id="3vtcdpRBddFgqBL8o40C-22" style="edgeStyle=none;curved=1;rounded=0;orthogonalLoop=1;jettySize=auto;html=1;entryX=0.009;entryY=0.392;entryDx=0;entryDy=0;entryPerimeter=0;endArrow=none;startSize=14;endSize=14;targetPerimeterSpacing=8;startArrow=none;startFill=1;endFill=0;" parent="3vtcdpRBddFgqBL8o40C-5" source="3vtcdpRBddFgqBL8o40C-24" target="3vtcdpRBddFgqBL8o40C-17" edge="1">
                    <mxGeometry relative="1" as="geometry">
                        <Array as="points"/>
                    </mxGeometry>
                </mxCell>
                <mxCell id="3vtcdpRBddFgqBL8o40C-61" style="edgeStyle=none;curved=1;rounded=1;sketch=0;orthogonalLoop=1;jettySize=auto;html=1;fontSize=14;fontColor=#FFFFFF;startArrow=classic;startFill=1;endArrow=classic;endFill=1;startSize=14;endSize=14;targetPerimeterSpacing=8;strokeWidth=1;" parent="3vtcdpRBddFgqBL8o40C-5" target="3vtcdpRBddFgqBL8o40C-18" edge="1">
                    <mxGeometry relative="1" as="geometry">
                        <mxPoint x="68" y="-681" as="sourcePoint"/>
                        <Array as="points">
                            <mxPoint x="108" y="-457"/>
                        </Array>
                    </mxGeometry>
                </mxCell>
                <mxCell id="3vtcdpRBddFgqBL8o40C-68" style="edgeStyle=none;curved=1;rounded=1;sketch=0;orthogonalLoop=1;jettySize=auto;html=1;fontSize=14;fontColor=#FFFFFF;startArrow=none;startFill=0;endArrow=classic;endFill=1;startSize=14;endSize=14;sourcePerimeterSpacing=8;targetPerimeterSpacing=8;strokeWidth=1;exitX=0.5;exitY=1;exitDx=0;exitDy=0;entryX=0;entryY=0;entryDx=0;entryDy=0;" parent="3vtcdpRBddFgqBL8o40C-5" source="3vtcdpRBddFgqBL8o40C-7" target="3vtcdpRBddFgqBL8o40C-18" edge="1">
                    <mxGeometry relative="1" as="geometry">
                        <mxPoint x="580" y="-472" as="targetPoint"/>
                        <Array as="points">
                            <mxPoint x="45" y="-488"/>
                        </Array>
                    </mxGeometry>
                </mxCell>
                <mxCell id="3vtcdpRBddFgqBL8o40C-7" value="&lt;font style=&quot;font-size: 18px&quot;&gt;Provider&lt;br&gt;&lt;/font&gt;" style="rounded=0;whiteSpace=wrap;html=1;hachureGap=4;fillColor=#6d8764;fontColor=#ffffff;strokeColor=#3A5431;" parent="3vtcdpRBddFgqBL8o40C-5" vertex="1">
                    <mxGeometry x="-134" y="-803" width="160" height="80" as="geometry"/>
                </mxCell>
                <mxCell id="3vtcdpRBddFgqBL8o40C-15" style="edgeStyle=none;curved=1;rounded=0;orthogonalLoop=1;jettySize=auto;html=1;entryX=0.5;entryY=0;entryDx=0;entryDy=0;endArrow=classic;startSize=14;endSize=14;sourcePerimeterSpacing=8;targetPerimeterSpacing=8;endFill=1;" parent="3vtcdpRBddFgqBL8o40C-5" target="3vtcdpRBddFgqBL8o40C-13" edge="1">
                    <mxGeometry relative="1" as="geometry">
                        <mxPoint x="246" y="-749" as="sourcePoint"/>
                    </mxGeometry>
                </mxCell>
                <mxCell id="3vtcdpRBddFgqBL8o40C-53" style="edgeStyle=none;curved=1;rounded=1;sketch=0;orthogonalLoop=1;jettySize=auto;html=1;fontSize=14;endArrow=classic;endFill=1;startSize=14;endSize=14;targetPerimeterSpacing=8;exitX=0;exitY=0.5;exitDx=0;exitDy=0;entryX=1;entryY=0.5;entryDx=0;entryDy=0;startArrow=none;" parent="3vtcdpRBddFgqBL8o40C-5" source="3vtcdpRBddFgqBL8o40C-57" target="3vtcdpRBddFgqBL8o40C-7" edge="1">
                    <mxGeometry relative="1" as="geometry">
                        <mxPoint x="116" y="-700" as="targetPoint"/>
                    </mxGeometry>
                </mxCell>
                <mxCell id="3vtcdpRBddFgqBL8o40C-8" value="App" style="rounded=0;whiteSpace=wrap;html=1;hachureGap=4;fillColor=#647687;fontColor=#ffffff;strokeColor=#314354;fontSize=18;" parent="3vtcdpRBddFgqBL8o40C-5" vertex="1">
                    <mxGeometry x="167" y="-831" width="160" height="80" as="geometry"/>
                </mxCell>
                <mxCell id="3vtcdpRBddFgqBL8o40C-19" style="edgeStyle=none;curved=1;rounded=0;orthogonalLoop=1;jettySize=auto;html=1;entryX=0.5;entryY=0;entryDx=0;entryDy=0;endArrow=classic;startSize=14;endSize=14;sourcePerimeterSpacing=8;targetPerimeterSpacing=8;endFill=1;" parent="3vtcdpRBddFgqBL8o40C-5" source="3vtcdpRBddFgqBL8o40C-13" target="3vtcdpRBddFgqBL8o40C-18" edge="1">
                    <mxGeometry relative="1" as="geometry">
                        <Array as="points">
                            <mxPoint x="464" y="-546"/>
                        </Array>
                    </mxGeometry>
                </mxCell>
                <mxCell id="3vtcdpRBddFgqBL8o40C-20" style="edgeStyle=none;curved=1;rounded=0;orthogonalLoop=1;jettySize=auto;html=1;entryX=0.5;entryY=0;entryDx=0;entryDy=0;endArrow=classic;startSize=14;endSize=14;sourcePerimeterSpacing=8;targetPerimeterSpacing=8;endFill=1;" parent="3vtcdpRBddFgqBL8o40C-5" source="3vtcdpRBddFgqBL8o40C-13" target="3vtcdpRBddFgqBL8o40C-17" edge="1">
                    <mxGeometry relative="1" as="geometry">
                        <Array as="points">
                            <mxPoint x="131" y="-518"/>
                        </Array>
                    </mxGeometry>
                </mxCell>
                <mxCell id="3vtcdpRBddFgqBL8o40C-13" value="TodoBoard" style="rounded=0;whiteSpace=wrap;html=1;hachureGap=4;fillColor=#647687;fontColor=#ffffff;strokeColor=#314354;fontSize=18;" parent="3vtcdpRBddFgqBL8o40C-5" vertex="1">
                    <mxGeometry x="199" y="-619" width="160" height="80" as="geometry"/>
                </mxCell>
                <mxCell id="3vtcdpRBddFgqBL8o40C-17" value="&lt;font style=&quot;font-size: 18px&quot;&gt;TodoForm&lt;/font&gt;" style="rounded=0;whiteSpace=wrap;html=1;hachureGap=4;fillColor=#647687;fontColor=#ffffff;strokeColor=#314354;" parent="3vtcdpRBddFgqBL8o40C-5" vertex="1">
                    <mxGeometry x="63" y="-434" width="154" height="77" as="geometry"/>
                </mxCell>
                <mxCell id="3vtcdpRBddFgqBL8o40C-18" value="TodoList" style="rounded=0;whiteSpace=wrap;html=1;hachureGap=4;fillColor=#647687;fontColor=#ffffff;strokeColor=#314354;fontSize=18;" parent="3vtcdpRBddFgqBL8o40C-5" vertex="1">
                    <mxGeometry x="397" y="-459" width="129" height="79" as="geometry"/>
                </mxCell>
                <mxCell id="3vtcdpRBddFgqBL8o40C-24" value="Add Todo" style="ellipse;whiteSpace=wrap;html=1;hachureGap=4;fillColor=#f0a30a;fontColor=#000000;strokeColor=#BD7000;" parent="3vtcdpRBddFgqBL8o40C-5" vertex="1">
                    <mxGeometry x="-57" y="-552" width="120" height="60" as="geometry"/>
                </mxCell>
                <mxCell id="3vtcdpRBddFgqBL8o40C-27" value="" style="edgeStyle=none;curved=1;rounded=0;orthogonalLoop=1;jettySize=auto;html=1;endArrow=none;startSize=14;endSize=14;sourcePerimeterSpacing=8;startArrow=classic;startFill=1;endFill=0;exitX=0.456;exitY=0.983;exitDx=0;exitDy=0;exitPerimeter=0;" parent="3vtcdpRBddFgqBL8o40C-5" source="3vtcdpRBddFgqBL8o40C-7" edge="1">
                    <mxGeometry relative="1" as="geometry">
                        <mxPoint x="-19" y="-709" as="sourcePoint"/>
                        <mxPoint x="-19" y="-554" as="targetPoint"/>
                        <Array as="points">
                            <mxPoint x="-94" y="-621"/>
                        </Array>
                    </mxGeometry>
                </mxCell>
                <mxCell id="3vtcdpRBddFgqBL8o40C-81" style="edgeStyle=none;curved=1;rounded=1;sketch=0;orthogonalLoop=1;jettySize=auto;html=1;fontSize=14;fontColor=#FFFFFF;startArrow=none;startFill=0;endArrow=classic;endFill=1;startSize=14;endSize=14;targetPerimeterSpacing=8;strokeWidth=1;" parent="3vtcdpRBddFgqBL8o40C-5" source="3vtcdpRBddFgqBL8o40C-84" target="3vtcdpRBddFgqBL8o40C-79" edge="1">
                    <mxGeometry relative="1" as="geometry"/>
                </mxCell>
                <mxCell id="3vtcdpRBddFgqBL8o40C-29" value="useTodoList" style="rhombus;whiteSpace=wrap;html=1;hachureGap=4;fillColor=#a0522d;fontColor=#ffffff;strokeColor=#6D1F00;fontSize=18;" parent="3vtcdpRBddFgqBL8o40C-5" vertex="1">
                    <mxGeometry x="497" y="-446" width="176" height="101" as="geometry"/>
                </mxCell>
                <mxCell id="3vtcdpRBddFgqBL8o40C-36" value="Get Todo" style="ellipse;whiteSpace=wrap;html=1;rounded=0;sketch=0;hachureGap=4;fillColor=#f0a30a;fontColor=#000000;strokeColor=#BD7000;" parent="3vtcdpRBddFgqBL8o40C-5" vertex="1">
                    <mxGeometry x="397" y="-657" width="121" height="55" as="geometry"/>
                </mxCell>
                <mxCell id="3vtcdpRBddFgqBL8o40C-37" value="" style="edgeStyle=none;curved=1;rounded=0;orthogonalLoop=1;jettySize=auto;html=1;entryX=0.5;entryY=0;entryDx=0;entryDy=0;endArrow=none;startSize=14;endSize=14;sourcePerimeterSpacing=8;endFill=1;" parent="3vtcdpRBddFgqBL8o40C-5" target="3vtcdpRBddFgqBL8o40C-36" edge="1">
                    <mxGeometry relative="1" as="geometry">
                        <mxPoint x="329" y="-784" as="sourcePoint"/>
                        <mxPoint x="594" y="-476" as="targetPoint"/>
                        <Array as="points">
                            <mxPoint x="437" y="-723"/>
                        </Array>
                    </mxGeometry>
                </mxCell>
                <mxCell id="3vtcdpRBddFgqBL8o40C-39" value="UpdateWaiting" style="whiteSpace=wrap;html=1;rounded=0;sketch=0;hachureGap=4;fillColor=#263D18;fontColor=#ffffff;strokeColor=#3A5431;fontSize=14;fontStyle=1" parent="3vtcdpRBddFgqBL8o40C-5" vertex="1">
                    <mxGeometry x="127" y="-836.5" width="99" height="26" as="geometry"/>
                </mxCell>
                <mxCell id="3vtcdpRBddFgqBL8o40C-40" value="&lt;font color=&quot;#66cc00&quot; style=&quot;font-size: 14px;&quot;&gt;When Page Refreshes&lt;/font&gt;" style="text;html=1;align=center;verticalAlign=middle;resizable=0;points=[];autosize=1;strokeColor=none;fillColor=none;rounded=0;sketch=0;hachureGap=4;fontStyle=1;fontSize=14;" parent="3vtcdpRBddFgqBL8o40C-5" vertex="1">
                    <mxGeometry x="96" y="-851" width="157" height="21" as="geometry"/>
                </mxCell>
                <mxCell id="3vtcdpRBddFgqBL8o40C-46" style="edgeStyle=none;curved=1;rounded=1;sketch=0;orthogonalLoop=1;jettySize=auto;html=1;endArrow=classic;startSize=14;endSize=14;sourcePerimeterSpacing=8;targetPerimeterSpacing=8;endFill=1;" parent="3vtcdpRBddFgqBL8o40C-5" source="3vtcdpRBddFgqBL8o40C-45" edge="1">
                    <mxGeometry relative="1" as="geometry">
                        <mxPoint x="264" y="-837" as="targetPoint"/>
                    </mxGeometry>
                </mxCell>
                <mxCell id="3vtcdpRBddFgqBL8o40C-55" style="edgeStyle=none;curved=1;rounded=1;sketch=0;orthogonalLoop=1;jettySize=auto;html=1;fontSize=14;endArrow=classic;endFill=1;startSize=14;endSize=14;sourcePerimeterSpacing=8;targetPerimeterSpacing=8;startArrow=classic;startFill=1;entryX=0.752;entryY=-0.067;entryDx=0;entryDy=0;entryPerimeter=0;strokeWidth=1;" parent="3vtcdpRBddFgqBL8o40C-5" source="3vtcdpRBddFgqBL8o40C-45" target="3vtcdpRBddFgqBL8o40C-40" edge="1">
                    <mxGeometry relative="1" as="geometry">
                        <mxPoint x="203" y="-864" as="targetPoint"/>
                    </mxGeometry>
                </mxCell>
                <mxCell id="3vtcdpRBddFgqBL8o40C-45" value="&lt;font style=&quot;font-size: 18px&quot;&gt;API&lt;/font&gt;" style="whiteSpace=wrap;html=1;rounded=0;sketch=0;hachureGap=4;fillColor=#76608a;fontColor=#ffffff;strokeColor=#432D57;" parent="3vtcdpRBddFgqBL8o40C-5" vertex="1">
                    <mxGeometry x="263" y="-987" width="111" height="52" as="geometry"/>
                </mxCell>
                <mxCell id="3vtcdpRBddFgqBL8o40C-56" value="GET&lt;br&gt;PUT&lt;br&gt;POST" style="text;html=1;align=center;verticalAlign=middle;resizable=0;points=[];autosize=1;strokeColor=none;fillColor=none;rounded=0;sketch=0;hachureGap=4;fontSize=14;" parent="3vtcdpRBddFgqBL8o40C-5" vertex="1">
                    <mxGeometry x="167" y="-932" width="48" height="55" as="geometry"/>
                </mxCell>
                <mxCell id="3vtcdpRBddFgqBL8o40C-57" value="TodoList" style="text;html=1;align=center;verticalAlign=middle;resizable=0;points=[];autosize=1;strokeColor=none;fillColor=#263D18;rounded=0;sketch=0;hachureGap=4;fontSize=14;fontColor=#FFFFFF;rotation=-15;fontStyle=1" parent="3vtcdpRBddFgqBL8o40C-5" vertex="1">
                    <mxGeometry x="91" y="-792" width="68" height="21" as="geometry"/>
                </mxCell>
                <mxCell id="3vtcdpRBddFgqBL8o40C-60" value="" style="edgeStyle=none;curved=1;rounded=1;sketch=0;orthogonalLoop=1;jettySize=auto;html=1;fontSize=14;endArrow=none;endFill=1;startSize=14;endSize=14;sourcePerimeterSpacing=8;exitX=0;exitY=0.5;exitDx=0;exitDy=0;entryX=1;entryY=0.5;entryDx=0;entryDy=0;" parent="3vtcdpRBddFgqBL8o40C-5" source="3vtcdpRBddFgqBL8o40C-8" target="3vtcdpRBddFgqBL8o40C-57" edge="1">
                    <mxGeometry relative="1" as="geometry">
                        <mxPoint x="167" y="-791" as="sourcePoint"/>
                        <mxPoint x="73" y="-752" as="targetPoint"/>
                    </mxGeometry>
                </mxCell>
                <mxCell id="3vtcdpRBddFgqBL8o40C-65" value="reducers" style="rhombus;whiteSpace=wrap;html=1;rounded=0;sketch=0;hachureGap=4;fontSize=14;fontColor=#ffffff;fillColor=#a0522d;rotation=35;strokeColor=#6D1F00;" parent="3vtcdpRBddFgqBL8o40C-5" vertex="1">
                    <mxGeometry x="2" y="-755" width="80" height="80" as="geometry"/>
                </mxCell>
                <mxCell id="3vtcdpRBddFgqBL8o40C-69" value="" style="edgeStyle=none;curved=1;rounded=1;sketch=0;orthogonalLoop=1;jettySize=auto;html=1;fontSize=14;fontColor=#FFFFFF;startArrow=classic;startFill=1;endArrow=classic;endFill=1;startSize=14;endSize=14;sourcePerimeterSpacing=8;targetPerimeterSpacing=8;strokeWidth=1;" parent="3vtcdpRBddFgqBL8o40C-5" source="3vtcdpRBddFgqBL8o40C-66" target="3vtcdpRBddFgqBL8o40C-65" edge="1">
                    <mxGeometry relative="1" as="geometry"/>
                </mxCell>
                <mxCell id="3vtcdpRBddFgqBL8o40C-66" value="TodoList" style="text;html=1;align=center;verticalAlign=middle;resizable=0;points=[];autosize=1;strokeColor=none;fillColor=#263D18;rounded=0;sketch=0;hachureGap=4;fontSize=14;fontColor=#FFFFFF;rotation=35;fontStyle=1" parent="3vtcdpRBddFgqBL8o40C-5" vertex="1">
                    <mxGeometry x="23" y="-589.5" width="68" height="21" as="geometry"/>
                </mxCell>
                <mxCell id="3vtcdpRBddFgqBL8o40C-80" style="edgeStyle=none;curved=1;rounded=1;sketch=0;orthogonalLoop=1;jettySize=auto;html=1;entryX=1;entryY=0;entryDx=0;entryDy=0;fontSize=14;fontColor=#FFFFFF;startArrow=none;startFill=0;endArrow=classic;endFill=1;startSize=14;endSize=14;targetPerimeterSpacing=8;strokeWidth=1;" parent="3vtcdpRBddFgqBL8o40C-5" source="3vtcdpRBddFgqBL8o40C-86" target="3vtcdpRBddFgqBL8o40C-29" edge="1">
                    <mxGeometry relative="1" as="geometry"/>
                </mxCell>
                <mxCell id="3vtcdpRBddFgqBL8o40C-79" value="&lt;font style=&quot;font-size: 18px&quot;&gt;Provider&lt;br&gt;&lt;/font&gt;" style="rounded=0;whiteSpace=wrap;html=1;hachureGap=4;fillColor=#6d8764;fontColor=#ffffff;strokeColor=#3A5431;" parent="3vtcdpRBddFgqBL8o40C-5" vertex="1">
                    <mxGeometry x="551" y="-925" width="160" height="80" as="geometry"/>
                </mxCell>
                <mxCell id="3vtcdpRBddFgqBL8o40C-84" value="Update Todo&lt;br&gt;Delete Todo" style="ellipse;whiteSpace=wrap;html=1;hachureGap=4;fillColor=#f0a30a;fontColor=#000000;strokeColor=#BD7000;" parent="3vtcdpRBddFgqBL8o40C-5" vertex="1">
                    <mxGeometry x="526" y="-612.5" width="86" height="44" as="geometry"/>
                </mxCell>
                <mxCell id="3vtcdpRBddFgqBL8o40C-85" value="" style="edgeStyle=none;curved=1;rounded=1;sketch=0;orthogonalLoop=1;jettySize=auto;html=1;fontSize=14;fontColor=#FFFFFF;startArrow=none;startFill=0;endArrow=none;endFill=1;startSize=14;endSize=14;sourcePerimeterSpacing=8;strokeWidth=1;" parent="3vtcdpRBddFgqBL8o40C-5" source="3vtcdpRBddFgqBL8o40C-29" target="3vtcdpRBddFgqBL8o40C-84" edge="1">
                    <mxGeometry relative="1" as="geometry">
                        <mxPoint x="587.4121491026231" y="-452.53009664058914" as="sourcePoint"/>
                        <mxPoint x="603.9697885196374" y="-844" as="targetPoint"/>
                    </mxGeometry>
                </mxCell>
                <mxCell id="3vtcdpRBddFgqBL8o40C-86" value="TodoList" style="text;html=1;align=center;verticalAlign=middle;resizable=0;points=[];autosize=1;strokeColor=none;fillColor=#263D18;rounded=0;sketch=0;hachureGap=4;fontSize=14;fontColor=#FFFFFF;rotation=8;fontStyle=1" parent="3vtcdpRBddFgqBL8o40C-5" vertex="1">
                    <mxGeometry x="618" y="-652" width="68" height="21" as="geometry"/>
                </mxCell>
                <mxCell id="3vtcdpRBddFgqBL8o40C-87" value="" style="edgeStyle=none;curved=1;rounded=1;sketch=0;orthogonalLoop=1;jettySize=auto;html=1;entryX=0.536;entryY=0.094;entryDx=0;entryDy=0;fontSize=14;fontColor=#FFFFFF;startArrow=none;startFill=0;endArrow=none;endFill=1;startSize=14;endSize=14;sourcePerimeterSpacing=8;strokeWidth=1;entryPerimeter=0;" parent="3vtcdpRBddFgqBL8o40C-5" source="3vtcdpRBddFgqBL8o40C-79" target="3vtcdpRBddFgqBL8o40C-86" edge="1">
                    <mxGeometry relative="1" as="geometry">
                        <mxPoint x="608.3427055702919" y="-844" as="sourcePoint"/>
                        <mxPoint x="629" y="-420.75" as="targetPoint"/>
                    </mxGeometry>
                </mxCell>
                <mxCell id="3vtcdpRBddFgqBL8o40C-89" style="edgeStyle=none;curved=1;rounded=1;sketch=0;orthogonalLoop=1;jettySize=auto;html=1;entryX=0.5;entryY=0;entryDx=0;entryDy=0;fontSize=14;fontColor=#FFFFFF;startArrow=none;startFill=0;endArrow=classic;endFill=1;startSize=14;endSize=14;sourcePerimeterSpacing=8;targetPerimeterSpacing=8;strokeWidth=1;" parent="3vtcdpRBddFgqBL8o40C-5" source="3vtcdpRBddFgqBL8o40C-88" target="3vtcdpRBddFgqBL8o40C-79" edge="1">
                    <mxGeometry relative="1" as="geometry"/>
                </mxCell>
                <mxCell id="3vtcdpRBddFgqBL8o40C-90" style="edgeStyle=none;curved=1;rounded=1;sketch=0;orthogonalLoop=1;jettySize=auto;html=1;entryX=0.5;entryY=0;entryDx=0;entryDy=0;fontSize=14;fontColor=#FFFFFF;startArrow=none;startFill=0;endArrow=classic;endFill=1;startSize=14;endSize=14;sourcePerimeterSpacing=8;targetPerimeterSpacing=8;strokeWidth=1;" parent="3vtcdpRBddFgqBL8o40C-5" source="3vtcdpRBddFgqBL8o40C-88" target="3vtcdpRBddFgqBL8o40C-7" edge="1">
                    <mxGeometry relative="1" as="geometry"/>
                </mxCell>
                <mxCell id="3vtcdpRBddFgqBL8o40C-88" value="Context&lt;br&gt;state&lt;br&gt;dispatch" style="whiteSpace=wrap;html=1;rounded=0;sketch=0;hachureGap=4;fontSize=14;fontColor=#FFFFFF;fillColor=#263D18;" parent="3vtcdpRBddFgqBL8o40C-5" vertex="1">
                    <mxGeometry x="209" y="-1144" width="120" height="60" as="geometry"/>
                </mxCell>
            </root>
        </mxGraphModel>
    </diagram>
    <diagram id="47y0ab2MQsoq_77l0cRC" name="Component Tree">
        <mxGraphModel dx="1201" dy="1787" grid="0" gridSize="10" guides="1" tooltips="1" connect="1" arrows="1" fold="1" page="0" pageScale="1" pageWidth="850" pageHeight="1100" math="0" shadow="0">
            <root>
                <mxCell id="IwmPD_r2PDRioC0zgAHV-0"/>
                <mxCell id="IwmPD_r2PDRioC0zgAHV-1" parent="IwmPD_r2PDRioC0zgAHV-0"/>
                <mxCell id="IwmPD_r2PDRioC0zgAHV-10" style="edgeStyle=none;curved=1;rounded=0;orthogonalLoop=1;jettySize=auto;html=1;entryX=0.477;entryY=-0.043;entryDx=0;entryDy=0;endArrow=open;startSize=14;endSize=14;targetPerimeterSpacing=8;exitX=0.25;exitY=1;exitDx=0;exitDy=0;entryPerimeter=0;fillColor=#f8cecc;strokeColor=#b85450;strokeWidth=2;startArrow=none;" parent="IwmPD_r2PDRioC0zgAHV-1" source="b5bX3gUsnpmr1mp6cXlo-82" target="b5bX3gUsnpmr1mp6cXlo-57" edge="1">
                    <mxGeometry relative="1" as="geometry">
                        <mxPoint x="112.79166666666697" y="-475.9999999999998" as="sourcePoint"/>
                        <mxPoint x="-94.88999999999987" y="-236.89999999999986" as="targetPoint"/>
                    </mxGeometry>
                </mxCell>
                <mxCell id="IwmPD_r2PDRioC0zgAHV-14" style="edgeStyle=none;curved=1;rounded=0;orthogonalLoop=1;jettySize=auto;html=1;endArrow=open;startSize=14;endSize=14;targetPerimeterSpacing=8;strokeWidth=2;fillColor=#f8cecc;strokeColor=#b85450;startArrow=none;" parent="IwmPD_r2PDRioC0zgAHV-1" source="b5bX3gUsnpmr1mp6cXlo-81" target="b5bX3gUsnpmr1mp6cXlo-5" edge="1">
                    <mxGeometry relative="1" as="geometry">
                        <mxPoint x="224" y="-431" as="sourcePoint"/>
                        <mxPoint x="493" y="-325" as="targetPoint"/>
                        <Array as="points">
                            <mxPoint x="553" y="-358"/>
                        </Array>
                    </mxGeometry>
                </mxCell>
                <mxCell id="b5bX3gUsnpmr1mp6cXlo-3" value="" style="group;fontSize=30;" parent="IwmPD_r2PDRioC0zgAHV-1" vertex="1" connectable="0">
                    <mxGeometry x="93" y="-813" width="353.17" height="189.13" as="geometry"/>
                </mxCell>
                <mxCell id="IwmPD_r2PDRioC0zgAHV-30" value="" style="shape=image;verticalLabelPosition=bottom;verticalAlign=top;aspect=fixed;imageAspect=0;image=data:image/png,iVBORw0KGgoAAAANSUhEUgAABaoAAAKVCAYAAAAuktyRAAAABHNCSVQICAgIfAhkiAAAIABJREFUeF7s3Qd0VNXaxvEnhRCaCT00IYB0lCAqoChFERALCGLHrojKJ3jtFa/X3kUvFhAVUFHRi1KkoxQFadICYkKThJrQEkiZ7+wJEyaTmWSSTMpM/metLJJT9tn7twccn+x5T5Ata5Njs37M/p5vEEAAAQQQQAABBBBAAAEEEEAAAQQQQAABBBAoqEBQUFD2Jc7fe2on1BFMu/5pLiC09sTGfgQQQAABBBBAAAEEEEAAAQQQQAABBBBAAAFnAXeBtNnnyJndHXdcnyOoNhe4C6wdJxNc88JDAAEEEEAAAQQQQAABBBBAAAEEEEAAAQQQMALugmfHPvOn66pqky+7u8a0ZQ+qPX05uAmoeeEhgAACCCCAAAIIIIAAAggggAACCCCAAAIIuBNwDaQdIbXzn+Y687OnsDo7qM7MzLSfWKFCBQUHB7u7H/sQQAABBBBAAAEEEEAAAQQQQAABBBBAAAEEEMhTwGTN6enpMn+6Zs2eVlQHmwQ7IyPDfkFYWFiuC/O8IwcRQAABBBBAAAEEEEAAAQQQQAABBBBAAAEEEHAScM6aTfbsqOjhOMVdBY9g55XUaCKAAAIIIIAAAggggAACCCCAAAIIIIAAAggg4AsBU73DrKA2GbRz+Wl3bQebRDskJMTdMfYhgAACCCCAAAIIIIAAAggggAACCCCAAAIIIFBoAZM9e7OqmqC60MRciAACCCCAAAIIIIAAAggggAACCCCAAAIIIJCXgCOozm9VdbApau2pgHVeN+AYAggggAACCCCAAAIIIIAAAggggAACCCCAAAJ5CZjs2fFgxbzOswfVbAgggAACCCCAAAIIIIAAAggggAACCCCAAAIIFIeAI6h29xBFx/3sD1NkQwABBBBAAAEEEEAAAQQQQAABBBBAAAEEEECgOAQcGbTjgYru7hGcV4rt7gL2IYAAAggggAACCCCAAAIIIIAAAggggAACCCDgrYCngNo5mw72tjHOQwABBBBAAAEEEEAAAQQQQAABBBBAAAEEEECgMAL5LZgmqC6MKtcggAACCCCAAAIIIIAAAggggAACCCCAAAII+EyAoNpnlDSEAAIIIIAAAggggAACCCCAAAIIIIAAAggg4Ekgr1XVBNWe1NiPAAIIIIAAAggggAACCCCAAAIIIIAAAgggUCICBNUlwsxNEEAAAQQQQAABBBBAAAEEEEAAAQQQQAABBDwJEFR7kmE/AggggAACCCCAAAIIIIAAAggggAACCCCAQIkIEFSXCDM3QQABBBBAAAEEEEAAAQQQQAABBBBAAAEEEPAkQFDtSYb9CCCAAAIIIIAAAggggAACCCCAAAIIIIAAAiUiQFBdIszcBAEEEEAAAQQQQAABBBBAAAEEEEAAAQQQQMCTAEG1Jxn2I4AAAggggAACCCCAAAIIIIAAAggggAACCJSIQGiJ3IWbIIAAAgiUiEBi0j9aE7dSe5ISVCcyyn7PupH1dVZ0xxK5PzdBAAEEEEAAAQQQQAABBBBAAAEECiNAUF0YNa5BAAEEypCACadnr5quKfM+8dirmlZo3S46Rr1i+pd6aJ2066iSdh1z29cm59Z2u5+dCCCAQGkJpKamavfu3TJ/mi+zHTx4UOHh4fbvK1WqZP/efEVGRqp69eql1VXuiwACCCCAAAIIIICAXwsEWW+8bVFRWavu/HokdB4BBBAoZwLeBNSuJI7A+oaed9hXWpf0ZkLqH5/4Q7tW7HN762r1Kuve2X3cHmMnAgggUFICjnA6Li6uwLc0gbUJq837a0LrAvNxAQIIIIAAAggggECACiQkJKhy5coKCwtTaGiogoODFRQUZB9t9p8E1QE6+wwLAQQCWsCE1I99Mlz7rRIfjq1VdAe1jz5b7Zt0tK+adi4D8mfcH9oUtzr7XBNYv3j7mGIPq7+4ZZHHUNrbCWrQqZZu/PRCb0/nPAQQQKDQAiag3rhxo33FtC82E1q3bt2awNoXmLSBAAIIIIAAAggg4NcC3gTVlP7w6ymm8wggUB4FTAB91+tXZw/dhM4jBj6Vq6SHWTHdO+bkquked9iDa0e4bQJu831JhNXlcY4YMwII+JdAUVZQ5zVS0+6qVatUr149RUdHZ5cLyesajiGAAALlXcC8ZzVbwsFTCzJ43kp5f1UwfgQQKC8ClP4oLzPNOBFAIGAEHhk3LHt19OCet+tGK4T2dnMtF1LcK6tXfx+v5F0p3nbP7XkRDSqpw1VN3B5jJwIIIFBUAbN62oTJ+W2Okh6O2tTmz6SkJPtlJpDObxW2Od+E1Sa0ZkMAAQQQOCXgeH/q+glAVyPzvrV29SjrmSuXWYsx+rse5mcEEEAAgTIu4M2KaoLqMj6JdA8BBBBwFnjju9FauGqGfVdBQ2rndr6Y/3H2wxcviumrkQOfLjbovB6emN9NIxtUVmSDKvmdxnEEEECgUALmIYmm1IenzdSYNg9INAFzfpsjrDbhtWnX3WbCasfqanfH2YcAAgiUJwETUE+c93H2e9uCjt28hy2t564UtK+cjwACCCBgfVLGixrVlP7glYIAAgj4icCauJXZb+TNipKCrKR2DNG0YT46eUlMPzlWrayLWyXH/uKgWPP9di37wHMQlNc9Ow9rrYuGt87rFI4hgAAChRLIK6Q2AbWpLe1YPe3NDRwhtCOINg9idA2sTZjteECjN+G3N/flHAQQQMDfBFw/4VfY/pvFG+Z9bM+Ol9nf25bGg8IL23euQwABBBBwL0BQ7d6FvQgggECZE5i76sfsPpma1AXdTBj99LjhMiH3uFFTrVXUT9lrXZt61ZPmf2QF2B8UtEnORwABBPxSwJTpcLeS2lcPP3S0Y8LolStX2kuDOG+E1X75sqHTCCDgAwHXZ624Nmnep5rg2Wx1rO/Ntsd6r7rn4D/W81Z253g4uDlm3sdOmfeJ5q38iWev2LXYEEAAAf8WIKj27/mj9wggUI4EzIoRs5mPORb0gTKOkNpcb97QO1ZQt4ruYH/Dv9fpYTXFSTpkXDevmv/qtl+8Oo+TEEAAgYIKeKpJbVZRx8TEFLS5PM83gXXHjh3tq6hdV1ebn01ZEXNfNgTyE7DZbPmdoqCgoHzP4QQESlPA+f2ocz8c4bQ3nxY0Qbdp50srnDbvaR2b40HhJuT2pp3SdODeCCCAAAKeBQiqPdtwBAEEECgzAuYNuePNeJ3q9QvUL9f/KRh925jsoLt99Nn2oNo5vC5Q4wU8ucm5tQt4BacjgAACvhMwK5vdPTixOEJqR68dD1E0fzpWUptjpi9mVbcJsgtSYsR3GrTkDwKOgNr1T+e+uwbUrj/7wzjpY+ALuL4fNSMuSEDtEDLlPXrH1Le/l529anr2M1fMccfqavM9YXXgv6YYIQIIBKZAcGAOi1EhgAACgSVgVo84NsfHIM0bfvNQxLw21/8pcA6pzXXtm3TMvtz5Hnm1yTEEEEDAXwWcg2LHGIozpHbcw1G/2nX1tCOs9ldP+l18AiaYdnxlZmbavzdbcHCwQkJCsr/Mz2Yzxx3nOa4rvt7RMgIFE3B9P2quNiG1KWVX2EDZBNbm2g9HfWtvy3kzZUDMPdkQQAABBPxPgKDa/+aMHiOAQDkXMCtIHG/4zRtxT2G16/8UuIbUhjGq+qk39qb+HxsCCCAQqAKm5Idr+Q0TIPu63IcnP0fdatfV06Zf5osNAYeAa0DtCKfNn66rpc3PzsddA2tUESgLAuYZKc6bKT1nnpdS0FJ27sZiAusXbx8j06ZjMyur3/7ueaum9amFHu6uZR8CCCCAQNkTIKgue3NCjxBAAIFcAq4hsuONt3kj7i6s9iakNjdxfjq6Y6V2rpuzAwEEEAgAgfj4+FyjaN26da59vtxhVkw7r+J21Kx2vYe7vrmew8+BL+AcUJvV0SaENqunXcNpTxLO55vrnVdYe7qG/QgUt8Ab343OcQuz+vnl23z7AG/zftY8JNx5ZbV5jzxxXt6fPCzusdM+AggggEDBBQiqC27GFQgggECJCziX6EiwHnzYO6a/hg98wt4P17Da25DaXPvzqh9LfCzcEAEEEChpAXerlk0ZDtdSHL7slwmplyxZYl/F7RpWu97XXf982Rfa8h8BR7gcGhpqXyldmM1cZ653rK4uTBtcg4AvBMzCioWrZuRoypT7KI7NsbLauW3zIHJKgBSHNm0igAACxSfAwxSLz5aWEUAAgWIR+DN+pf2jkiasNtuY717IDqv3HMz5PwTuyn04d8p5pbYvPn5ZLAOmUQQQQKCIAgkJuUsbNWnSpIiter7cEVKbM8z3jpIj0dHR9ovMSm4TYjtvpo+uAbbnO3Ak0AScS3aYVdS+2qZNm6YDBw7YV2V7uzLb9d5hYWGqUaOGGjZsqJYtW6pChQqup/AzAm4F3rDKbzhvZpGFL99vmhDalPgwpT9MUG2+zD3Me2OzmcUck+Z/ZN3Ttyu43Q6WnQgggAACPhEo3K/pfXJrGkEAAQQQ8FbAuZb0n3F/ZF/murLaedVKfiG1acQE247NuQyIt/3iPAQQQMAfBFxrQNerV6/YQmHnkNph4wirzZ9mMyVAXENp1z76gyt99I2Ac8kPd3WoC3sXs6r6/PPPz34Qo7lPYbYTJ07I/CJlxYoVmjJlijZv3lyYZrimHApsiludPWpTlsOxyMIXFI5PEJow+rFPhmfXozZBuHMJENMHalX7Qpw2EEAAgZIRIKguGWfuggACCBRJwITIjofE7LVKfzh/jNE5rHbcxJuQ2rThCLYviulbpP5xMQIIIFBWBUwA7AiIHX2MjIwslu66C6kdNzKrqJ0fpOi6ottcS1hdLNNSpht1DqlNRwtb7sPTIGvXrq327dsXOax2tG9Ca/NpgFWrVnm6JfsRsAu4lpe7tuftPpNxLXNnwmrH6m3zntn1XpT/8Bk9DSGAAALFLkBQXezE3AABBBDwjYB5SIzZHE8yd27VOaz2JqQ215qPQjq2XifLiDi3yfcIIIBAIAgkJSXlGobrauZcJxRiR14hdUxMTK4V1JUqVcp1F3d9zXUSOwJOwFH2w6yALo7NBNWO2te+an/NmjWsrPYVZoC2s85aEOG8+arkh2tIbe7h+oBG13vNXfVTgCozLAQQQCDwBAiqA29OGRECCASogFkh4lj5nLVyJOdT1E1Y/cPzS72q/ffF/I/l+DimadP1DX2AEjIsBBAohwKuq6lNSO28stkXJAUNqc093ZX/IKj2xWz4VxuOFdWm14WtIZ3fiM0vRZo2bZrfaQU+bkqBpKWlFfg6LigfAs7l6Mx7TV+UmPMUUo8bNTUHqvMnEc0B82lENgQQQAAB/xAgqPaPeaKXCCCAgF3ghp53ZNfdM08yN4FzQTdzzZR5n9gvMytQRg58uqBNcD4CCCDgNwKuQbW7kHrjxo2Ki4sr1JgKE1I7buSuL4XqBBf5pYCjZrT5s7hCageMeRCi8/18AWbKgMTGxvqiKdooZwKFKcXhbUjtoKwbWS9b1SzwoE51OXuRMVwEEPBbgeL5fJnfctBxBBBAoGwLmBUi5snmd71+tb0EiAmc5638SSOssiD5rYo2b9DNw2bMdY7NXFeSW/zve0vydtwLAQQQUEpKSp4KptauqQ3tCI2jo6PzPN/5YFFCatOOa1CdX1+97hgn+o2AY0V1SEhIsfa5Vq1a9qDa16H4zp071a5du2LtO437n4BrEF2nev3sQTgCZ7NYwnUltKeRFjSkNu0439P8nGCtqvbFqm5PfWQ/AggggIBvBAiqfeNIKwgggECJCZg32R+O+jY7dHbUrK5dPcp6A15P7aynnTtCa/Om/M/4lfoz7o/sUh+mo+Z/DrwJt30xqLOuOl3LPthob+qr234pUJONz6lVoPM5GQEEEMhPwDkcdoTU5hoTOu/evdt+uTdhdVFD6vz6yfHyI2DqR1eoUKFYB1ytWrXsFdW+vNGBAwd82RxtBYiA6+rlOtb7TrM5B87m/ettrw/IN6wuTEht7uW4Z4CQMgwEEECg3AgQVJebqWagCCAQSAKOldWzV023r6o2b/bN1yatlnNNQHdjHmw9df3GHne4O1Qs+yIbVFHnYa2zw2pvb2KuaXJubW9P5zwEEECgQAImaHZdwextWO2rkNp1RbVrmZICDYiT/VKgOFY5u4MwQbij9Ie744XdZ8p/sCHgKuBp5bJrgJ1fWF3YkNq1P+bnrHt3dHeIfQgggAACZUiAoLoMTQZdQQABBAoiYP4nwATOl8T008R5H+cZUJsV1D07XmY/19P/PBTk3gU996LhrWVWViftOubVpQTUXjFxEgIIeCFgHiTnLgA2IXHHjh21cuXKHMfzC6t9FVKbrrv2yzW49mJ4nBIAAiURVhfXQw/DwsICYAYYgq8FoqxP+Tlve06WnTMP/jbbmO9eyD7sKawuakjtuKfjRvmVyPO1Ae0hgAACCBROgKC6cG5chQACCJQZARM8mwcimgctmlIfjtUq5g26+dijOV4W3pybldXmiw0BBBAoTYGkpKTs2xc0rPZlSG064RpUm1CdrXwKpKenF2v5j0OHDhULbI0aNYqlXRoNLIE9B//JHpA3YXVRQ2pzM+d7BpYmo0EAAQQCW4CgOrDnl9EhgEA5EjCBdNZqaT7WWI6mnaEigEA+AvmtUvY2rPZ1SG267RpU59fXfIbKYT8UCAoKkvkyJTSKs051YmJiseg0bNiwWNqlUf8WcP303rq4VTkGlFdYbZ6h8vS44TnOL8iDFx0Xut7TtU/+LUzvEUAAgcAVCA7coTEyBBBAAAEEEEAAgfIu4Br+utalNj6OsNr1XEcZkLi4OC1ZssQtZUxMjKpXr+72WH47Dx48mN8pHC8HAiaoLq7SHA6+7du32wNxX26m7EfLli192SRtBZBAq+gO2aMx5T3MKmnnzYTVwwc+kWOfOc8XIbVp1LTl2C6K6ZvjPvyAAAIIIFB2BQiqy+7c0DMEEEAAAQQQQACBIgrUq1cvRwvONaidD+QVVpug2t1WlJB69+7duZqMispZ1zXXCewISIHg4GD7gw5N+Y/i2I4dO6atW7f6PKju1KlTsa4CLw4L2iw5gV4xl+W42Z/xOYNqc9BdWO18UWFWUpvrf171Y457t4vm04YlN/PcCQEEECiaAEF10fy4GgEEEEAAAQQQQKAMC5gA2nXFc0LCqZV2zl33FFa7G15RQmrTnnOtbEf7rv10d1/2BZaAWeVsgmpT9iM5OblYBrd8+XKFhITY7+OrVdVnnXWWWrRoUSz9pdHAEHB9Psq8lT+5HZinsLqwIbW5yZfzPslxL9e+uO0IOxFAAAEEyoQAQXWZmAY6gQACCCCAAAIIIFBcApGRkTmaNuU/PJXd8CasLmpI7W5Vt+vK7+KyoN2yI+CoT23+DA0Nta+oPnLkiE87uHPnTq1du9YeVDu2ooTVptxH165dZf4OsCGQl4CpCe1a/uOL+R+7vcQ1rC5KSG1WU7uW/aA+tVt2diKAAAJlUoCgukxOC51CAAEEEEAAAQQQ8JWAa1BtguL4+HiPzecVVhc1pDY3dVdKhLIfHqcj4A+Y4NgEyVWqVLH/AiUjI8MnYzYPaJwzZ459tXZRVlObcNq8Pk2pj8GDB7OS2iezUz4aGWk9GNF5M6uqE5P+cTt4R1hdlJDatD3muxdytN/LqoXNhgACCCDgPwJBVn08G2+M/WfC6CkCCCCAAAIIIIBAwQVWrVqVaxV1fqGzCbRXrlwp86fZ8jvfm16ZINL0xXkzJT9YoeqNXmCeY+pTZ2Zm2gPqo0ePav/+/YqOjs6xCrqgIzdtmV+I1KxZ0x6A+7r0R0H7w/nlV+CN70Zr4aoZ2QBFCaLzU3xk3DBtiludfZp5iOLIgU/ndxnHEUAAAQRKSMCU36tcubLML8HNp8mcf5Hu+MQXK6pLaDK4DQIIIIAAAggggEDpCbRu3TrXzTdu3JgdQuc6aO1wXlnti5Da3MPdSu4mTZq4uz37ypGAo1Z1pUqVFBERodjY2Fy/WPGWw/wyxFxv2jHtFWU1tbf35DwEPAnc0PMOmXDasZmyHLe9PsDT6YXab1ZSu4bU5p6E1IXi5CIEEECgVAUIqkuVn5sjgAACCCCAAAIIlISACZ1d60A7VkzndX9znanJ64sHHbpb1W3a9UXbeY2BY2VbwFGr2gTKZnVRtWrVVLt2bW3fvl2bNm3S8ePHvRqAOc+cb64z15t2nFcrFaU2tVcd4CQE3AiY+tAv3j4mxxFHWO2pDIibZjzuMm288d3zOVZSm5NHuJQd8dgABxBAAAEEypRAyEMPPfRs1apVy1Sn6AwCCCCAAAIIIIAAAr4WMMHd3r177Q+tc2zmexNYm2CvODezetvc23UzK73Nqle28i3gCJEdoXXFihXtQbOpM71582b7a8cE0ea4I3w2r93Dhw/LfIz277//1o4dO2TqsdevX1/m/++cy30QUpfv11dpj75qeDXVrB6l5Rt/ye5KSuoRLdm4SIePH9GZ0R0L1UXzcMaXJz2qfdYqbedt9G1jdFYh2yxUR7gIAQQQQMArAfPQaPPsDHfvUbLfC1Gj2itLTkIAAQQQQAABBBAIAAF3NaLNsPJ6gGJRh+1uJbVp01flRIraP64vOwKmXrXjy9StNmF0SkqKPZBOTk6W+R88E1ibY2YFtgm0TShtynyYYNv80sN1FTUhddmZ3/Lek59X/ZjrYYfGxJTp6NnxMl0S009mBXZem1lBPXvVdJkHM5qV2a4bIbWrCD8jgAACZUfAmxrVPEyx7MwXPUEAAQQQQAABBBAoAQFroYbMCmfXzYTVZoWzr0pxmJXa5j4mHHfdzMPyzBcbAq4CJqg2m+Mhi+ZP83BE85WWlmb/0+wzAbRZkeRYmWS+N/vcPZjI9R78jEBpCZig+bFPhrsNmU2fTGjdLjpGdarXV52Tta33nAyk/4z7I1eJD8c4zHWm3AcrqUtrZrkvAgggkL8AQXX+RpyBAAIIIIAAAgggUA4F4uLiZL7cbaaWtQmRTXBdmM0E1CYM99S+CcLNamo2BPIScA6sHauszfmO/eb77I/JWgG1+d7557za5hgCpSngWBU9Zd4nPunG4J6368Yed/ikLRpBAAEEECg+AYLq4rOlZQQQQAABBBBAAAE/F8grrDYhtQmUTc1f14cwuhu2CadNiYakpCSPAbW5jpXU7vTYl5eAczDt/L3jGufSHpT5yEuSY2VNwATWE+d9rIWrZhSqa62iO2iktYo6v3IhhWqcixBAAAEEfC5AUO1zUhpEAAEEEEAAAQQQCCQBEzAvWbIkzyGZ0NrU/nWssDbhtbnObOZP8+WuvIdro9SkdhXh58IKOEp/FPZ6rkOgLAmYwHpN3ErNXfWTx9Iejv6acLp99NmsoC5LE0hfEEAAAS8FCKq9hOI0BBBAAAEEEEAAgfIrYIJms7ralOsojs2szDa1rwtbSqQ4+kSbCCCAQFkVMMG12RIOnnpYIrWny+ps0S8EEEDAewGCau+tOBMBBBBAAAEEEECgnAvk9fDDwtD4+uGMhekD1yCAAAIIIIAAAgggUBYEvAmqQ8tCR+kDAggggAACCCCAAAKlLWCCZVOew6ysNrWmC7PC2rRhalo7/iztMXF/BBBAAAEEEEAAAQT8RYCg2l9min4igAACCCCAAAIIlIiACZrNl3nwodlMYO2oRW0emOioT+1cu9p8b2pXmzIfbAgggAACCCCAAAIIIFBwAYLqgptxBQIIIIAAAggggEA5EHDUlHYE1uVgyAwRAQQQQAABBBBAAIFSEwgutTtzYwQQQAABBBBAAAEEEEAAAQQQQAABBBBAAAEELAGCal4GCCCAAAIIIIAAAggggAACCCCAAAIIIIAAAqUqQFBdqvzcHAEEEEAAAQQQQAABBBBAAAEEEEAAAQQQQICgmtcAAggggAACCCCAAAIIIIAAAggggAACCCCAQKkKEFSXKj83RwABBBBAAAEEEEAAAQQQQAABBBBAAAEEECCo5jWAAAIIIIAAAggggAACCCCAAAIIIIAAAgggUKoCBNWlys/NEUAAAQQQQAABBBBAAAEEEEAAAQQQQAABBAiqeQ0ggAACCCCAAAIIIIAAAggggAACCCCAAAIIlKoAQXWp8nNzBBBAAAEEEEAAAQQQQAABBBBAAAEEEEAAAYJqXgMIIIAAAggggAACCCCAAAIIIIAAAggggAACpSpAUF2q/NwcAQQQQAABBBBAAAEEEEAAAQQQQAABBBBAIBSCkhbYpm9em6hNKTZVbtxH9918tsJKugtl/H4nEhfog3GLdThdOv38W3Vzz/plvMd0DwEEEEAAAQQQQAABBBBAAAEEEEAAAQSKIkBQ7YVe2v41mrVoq054ca77UyLUoXtPNa0eJFt6rKa8/bS+3pmh5hdX061lMKi2pSdq0bTF2u9+MB72nhqjhxO83n185yK988wz+jtNuvKJS0s8qN4Tu0CLtjXSoN7NvO5z4vqZ+v7nxYqNO6gjVsBevVYTndm5r67o3VbVfPC3bO/WBZo7e4nW/r1byUdsqhIZpTM6dFG/fj3VoGqQV/0seh9TFfvbTM1f9Ie27D6oE+nhql7bGud5PXVpzzZejTMzNVHLF0zXwuUblLA3Remh4arVqJW6XnCZLjynHr+08WomOQkBBBBAAAEEEEAAAQQQQAABBBAIPAEfRGiBh+I6oqOrP9St17yvfVYAWZgtKKSV3ly0TiO6hhTm8hK/JvP4Ir1427WalZTp9b2DQjrog+V/6G4rjPfHLeNIvGZ+OU7jP5ukH5duVeurv7ZC5mb5BqfpSb/ptfvu0gsT1+pIroH/S7VbXqVXxn+iW7rUyHXUmx1mdfmLIx7Q69/+aV9h7rqF1WqlOx/7WC+PPF9VXA+e/NkXfdz9x1iNGva8Ji/f5fYuNZv11ej3P9a9vT2tfk/V7188qpFPf6zFcUfdtBGuMy8eptfff0EXn1HJzXF2IYA2EQW2AAAgAElEQVQAAggggAACCCCAAAIIIIAAAggEsgBBtVezW1FBlpSnCNZ2MkA057jbgvwjn3bXdfs+T+NyvsA/x5iqDXMma/znk/TV1Lnacdjm0cDdAbM6fvS1V+n5WQn2w6dFdVDXbm1UL/y4/lq9QL/9uV97Y7/XXX2TFDL/J90UU9ldMx73pW77Wtf2vl0/bM6KwB3t168q7dz4mxau2Krj+zZpzKiLFb/7f/rq1UtyhdW+6OP2WSPVd/Bb2mD3CVe9ll10wblNVVVJ2rJivn7deED7t87Q/Vf0UsKkORo9sIHLmFI184W+uubZBfawPSg0Uq07d1HHM+rL/IJgxS9LtCUhRWvnvKkre8Rp0vxvdeUZlM/3+MLgAAIIIIAAAggggAACCCCAAAIIIBCIArt377axFV7gj/f62awa01aCF2578Isj+TaUmTbLdk3DEJP42Zpf/LbtQL5XlPwJ6Ue+tl0aGWzvY9PuL9sSMku2D4dWPGdrWsGYynblE8uL5eaxUx+xnX9GFfs9HF9WIJ/9fYchX9uO53PnP/7bz2ZlxvZrzhk01hZ3yBkqxbb0v9faGp4ch5nrgjnG2/7dJ8rethXs2gY/Os22LyVnh/6a/YytY+2seQqu2MH2we8ZuXpc1D4eT/jBdmXjrNdrhYgOtmcmrnNxSbLNfO1KW62TdtUaD7P9lsPBZktcMDJ7Pmu3vNb2zcr9OfqZfniT7Y0bWp78eyTbWVd/Vib/XuTCZQcCCCCAAAIIIIAAAggggAACCCCAgFcCJoNOTk62paSk2NLS0mwZGRm2zMxM+5djY9liIP72gTHlK7Bj9SIt3mJKUISryVl99a+Xv9Cy5R/oIi/rPdvS12jyR/Ps5T4qN7hV73x4p5pUc15zH67Od/9XLw5tau/L1vnj9f1q70upJC8Zq3Fzs1Zqnz3oHY19sb9qhuccVrOLn9VHz19prWyWMo+v1jcTl+Q4wRd9XP7pW5qxLcNqN0I3PDdFz17f1qUcSoQuHTVBL90Ybb/34W2TrFrdx5z6kajP3/rMXm/cCtP10uRPdHVMzjIoIVVb6oH/jtXQtlmPFV03c5KW7jYZPRsCCCCAAAIIIIAAAggggAACCCCAQHkRIKguQzOdmZqk3TsT7A/LC8TtSEKCNb4kHXdTa9nb8R7dl6DEfSnenu7xvMq1W+jW/3tHM1b+rbjV0/XKwzeoY3RNj+e7HkjdtlBzNx637z7vquvU2W1t7gj1v/EqWauqZcvYpIU/b3BtxuPP6+YvtIe7QaF1dfUtA1Xdw5ntB12ls0+G6/9s3SDn6s9F72OiFixYa3+IaGhED910s6eHS0boskE97IG5dFx/b4rL7m3G0d+06NcD9p+bdLlVAzyUPwmpepGu7HuG/bzM45u0eYv3oX72zfgGAQQQQAABBBBAAAEEEEAAAQQQQMBvBQiqS3nqbOlJ+vWLR9T/3AaqVKm66jeqp+rVK+uMztfr3f9ttYeErtvKsdcppn0btYvpp4l/egr0kjXunvPU1jrvrM6Pa40VepbGdnzXAr024gq1qFdZ1erVs8ZXXZWrRalr3+H64pd/vOrSkYQFenV4b51Rp7Kq1q6nqNqVVbF2a1017F2tKeTK2y7DP9W4N+9Xn5h6XvXB9aSkdau15Zj5hUK4OnTp6no4++dqnTqrbRXz1yxVm1ZtdDuf7i5O2JusiKrhqhIRo1ZtPNe2Do2IUt2qWX+NM13muKh9tKVbvzQ5GKxKVj8atopR4zxWm1euHaU6ViDvuqVZv1g4FBxutRGpxm1bewzczXV1o+rk+/BK1/b5GQEEEEAAAQQQQAABBBBAAAEEEEAgMAQ8PP4vMAZX1keRnhKv926/SC98lrVq1dFfW3qq/vptskZcPU9bP/5Dbw3N+XC6lH3btXrdRgVZpYMPp3oe5YFdf2vDun0Kq9FZpZFT75jznK66frRW7s0ZpmemJmrpzPe1bM63WvDyj3p/ZCePAeXO9R/oivMmaP52U37i1HbCeojgD/99QPNmzNPns0v+4Xv/xG+zh85BIU3UONqlJodTP4MrNtbpda2naSZl6sDOOB20su26np7K6XTd1W+t09VveZ5bx5ETifHafjjLt2GrNjkepljUPgaFnqVXlu3RK/l3Q0d27NYe+4usopq1yyoDYn4Kb3yX5ife5UUL0rYde+ymIRVbqQUPU/TKjJMQQAABBBBAAAEEEEAAAQQQQACBQBFgRXUpzmT84jf1zGeb1bT7MI35ao5+W7VBv8/7Ts/f1U3VrF8h2NIT9dETT+n3w/5XCuTAmld05ZDn7CF1eN3OeuTtaVq75R/tituo6Z8/pR7RVezjG/fIYL02fb/HWfjj+3FauKeRhlhlOqb98ofW/7lSM78eo9t6NrRfc3jb9xo2+EltSClZo6R9yVlBdWi4InLUpnYdSoS1MtoKqq3taFKSjhSh7Ilry+bn9d//oJVHbVaJkCbqP7BLjlNKro/J+n7qz/Z63eF1+6pfT88rwN2NwezLOLJQ/5u52X64+QUD1KWeF2m+p8bYjwACCCCAAAIIIIAAAggggAACCCDgdwKsqC7VKQtXz3u+1jcfXO5UEqG1zunRU/VOxOiOT+OUkjhd85Zk6txLs8LOUu2ulze3pcfqzREvadUBm8Jq9tCHM37UTdm1ia3yH01Gq3uXhurXdZgW7InXf0d/opv6PqxGbrLJYGt17fPfztXj/epn371Nuxj1HnCZ2lx7kR76dpt2r3lfYyYN15jbc64897K7hTotNS2rPrUp/RGWx9+iIOtYULhZcZ2qDGulvLtSLoXqgHXRicT/afQbP9vbbN79QV3XLedrpKT6uGfhy3r9611WL8J16R2jdH6ewb270aZq0Zjn9GVsmj1wv+XBG/IsEeKuBfYhgAACCCCAAAIIIIAAAggggAACCPi3QB4Rm38PzB96X73lML37Rn83oZz1EL5r+6rWF+9rX3qyYs3D6S5tXipD2rluvG66cqHH0hymU7XPGqb3nu+fXXZiz8Kx+nTJQetIuC67/x2nkPrUECo1u0v/unOsFrywUrtWT9bcdQ/plva5F/h3vvEVPeQUUjtaCAptrHtfHqlv5/yfliYn6+cvv9XB2x9wY1lMbBkFX8Gd6cPV1Lb0bXp3+AP64e90hVTpoFH/uSN3SZES6KMJyx+46zX7gx+rt7xVT406u8DgOxeM1n0vLLAH7p0Gjdbdl1YpcBtcgAACCCCAAAIIIIAAAggggAACCCDg3wIE1aU4fzUbNVG9Sm6WEVt9qlyrrk6zDu2zVuImJ+VRiLqY+29qQc+etinPu7Q8cWWO479O+1k7reAyuGIHXXN9G4/Xdu1xkWq9vFL7jm/S8t8PWkF1zVzn1o6q5zEkr9RsiC475zktnXNA8b8v1caU+9XVg2euhv16R7KmPnmtHrdWk0sRGvTYR7rtnIKX2ygqQWbqGv176N36anOaNdet9OT7/9bZ1d2/nj3dK2XrBN059BVtsMrbVGt8rV5948aS+2WDp06xHwEEEEAAAQQQQAABBBBAAAEEEECgxAUIqkuc3LsbmpIRFYNM6GdTZlrpBdWVG/TQjQPbeAyLzWhqtGqrCtnD2qZN63fbfwqy6jdv/mWyJi5zH14e2rVL4fZDqdq901yTO6jObtbtN3XVqm09yQqqM49bDxXcaVPXM9zfy+3lJbwz2Cd/21K1dMwtuvv1ZfYVyOcMeldvPuz5YZQFHaK3fTQruv97xxA9PyvBmudI3fTCFN3Xs0aBbpe2f5aGDbxfM60HZZpV4f/5/BN1pzZ1gQw5GQEEEEAAAQQQQAABBBBAAAEEEAgUAZ9EZ4GCwThyC0Sd0Uej3344d1mJ3Kfa99jSk5Sw96j9+4yjC/TM7Qs8nJlzd8rhJK/Ocz0pqnaEfZe5r/WswpLbQipm38taPO7dZjt1jXcX5D4r9qthuuZfP1glYaSm54/W+HE3qt6p3xLkvKDY+pis7x4aogcnxlr3C1ef+77WmFHt8vxlhutIMo78ricH3qwJaw8rOLyJHvrkR93XreRXhbv2i58RQAABBBBAAAEEEEAAAQQQQAABBEpHgKC6dNwD+K7HdTw9q35zcHhdNW1ew4sAM1z16pgHDhZ8czzS0FyZefK+BW+l4FdUqpbVX5v1gMTUPBa8m+MpR1LsN6hYrVJ2He+C31HaMecxDbxzgnam2FTvrAf11dQn1TaPBxcWTx9TNf/la3XrmN+sFd3h6nLjh/ri1UsKNC7zsM23brlGryzaY63Grqs7Xp+m0UNK7kGYhbHnGgQQQAABBBBAAAEEEEAAAQQQQACB4hUgqC5e33LYeoQiwrMeihjR+Hr9b+Ubau1pxa8PdA7uTba3YsqMVK5acmU/oqLq2gP4tKDd2rsnrwcrJit5f4a9jxG1olStkBYH1ryjITdk1XKu2exaTZz2ujrVznu8xdHH1RNu0zVPztRha0X3mf1f1uQPb1KNAv0rkqjx9w2x19c2JUOuf+4bvXtvwVZj++BlQxMIIIAAAggggAACCCCAAAIIIIAAAmVMICtRLGOdojv5CIQGZa9SPp6WV0iaTzvFcDgoNEpNok+zt3xo50bF7SvO/iVqU2yC/V5BIU10esO8g1tfDrd+82jVsUJnW3qytm6K89j0icRN2nIwK6g211T3eKbnA+aBgzcMHKmlezJVucFV+njaJ+rRKP+x+rqPW358UIOGfWkvO3JG99GaMul+Na7kud+5jyRr+pNDNGLsGvtqbFMyZOzjF3ix4j53S+xBAAEEEEAAAQQQQAABBBBAAAEEEAgsAYJqP5zPyKon6zJn7NbBvZ7qTqRml+Ao2SFGqEv3rIf7mRrVU77eWqTbH0o6aH9ooLvtROIszVl60H6oYUwXtY3MP7x1105h9lXt0FltTzN/fVL125x5yupF7pZ2zVmglUdNWB+hDl065j4hnz1mjPYHDv6dobCaPfTO1Im6qrV3tZx92cddi5/TkKFva6tVdqTB2Q9q0tdPqkUeZUdyDyvrIZBDX16oI1ZIfeEtn2nimwUrGZK7TfYggAACCCCAAAIIIIAAAggggAACCASKAEG1H85kg1YtdZq93EKyFsxY4jbI3THnZY1feKBURtdu0FD1qJsV4k56/n599ecxt/0wD9R7tH8n3fvOCmU9fjH3ab9+8bQ+X+7u+mRNeeYlLUjOtC4KV/cBA71+4GPuuxR8T2hEb13Rp579wtjZH2jCotx9zExdo7fen26fHxMyX9a7RoFuZHyeuibrgYMhVTroxa+/0e3neBdSmxv5qo8H14/VTdeM1qoDNtVueas+n5p/2RHXga41D4F88Hv7auwOV72tzz8cXKjV5a7t8jMCCCCAAAIIIIAAAggggAACCCCAQGAIFKi6bGAM2f9HUe28PurZ4F19vS1dv0y4Sw+0+EhP3tZLDaoe17741Zr1zft67pUv7KtfS2MLq3uNnn3uSy25b6oO75+pWy7ppXX/eU33XNPV6mOQvVzG6jnjNfrhp/X9n4dV4dd/qWffuRp0Ru7fm6QlL9O9fXtp6+jnddvA89WsVpD2bl2m8a88rBc+22gfXkSzWzXirmYlPNQIDXnwLo2Z+qw2HFutJ67vr/R33tXdV7RVNetv1Z7YmXrzkQc09ndTQztcPW8ZpW751JR2HoD9gYM3OR44GKkr7n9CXSrHaumyvIdZObKVzmrlKDBS9D4e3/WDtaL7Ic3/J1MmLL/n8dsVvmuZlu7Kqx/hqtWwlc5omFUXxDwE8jrzEMg0M1fX6sH722nXH0uVVxOm5nijVh3srxc2BBBAAAEEEEAAAQQQQAABBBBAAIHAFyCo9sM5DqnaW48+dbnm3TNV+1LjNXbUJdZXzoGEVGmlVs23a9NfuVf6lsSQO989Xl/vS9FNz87UvsRl+vftF+iFu8NVJTJc6UeSlHqyYokJP58a94XbkNoEvBdc1U+7507Vi8Mvsb5y99ysVH7189cUU6AyFLnbKcyemmc/rDH/WabBD83Qvl3z9a+r2+lhK2A9Ldxa637kVEmWM7o/rteeOb9AtZgP/T5Bb/20zd4tW3qSpr402PrKv5fNL35bv89+IHu1clH7uOKLtzV18xH7jTOOrtbzQy/Q8/l3QwOe/VPfPdPOOjNZX739sTYczvqlSfLWLzW015f5thAU2kQvzvxLj/QKyfdcTkAAAQQQQAABBBBAAAEEEEAAAQQQ8H+B3EtY/X9M5WIEMbdP0k8fjdD50VVyjNesRG3XfZgmzJ6rJ7rXLEWLCPV5YoZ+s8pi3Ni7uX2VsS09VUf2ZYXUweF11W3QY5qxfLGeGtjAYz+73fiZFs54X9d3a5gj6DXjPPPiB/Xt/B91Zxfvy2F4vFGhDlglR0Z8p3lTnlG/mPr2/pkxOkLqsFqtNPTRKZo9/Sm1LYUgPWtI/tDHQuFzEQIIIIAAAggggAACCCCAAAIIIIBAAAkE7d692xYVFRVAQypvQ0nVjnWrtXn3MQWFRur01q3VPCqr5EJZkkhPiteaTXFKslbWVqgepdatWqt2Acs6HN65SWu3/KPjKpvj3G/1b5PVv0NWHeaatZuodbum9oC+LG3+0Mey5EVfEEAAAQQQQAABBBBAAAEEEEAAAQSKLpCQkKDKlSsrLCxMoaGhCg4OVlBQVsnX7D8JqosOTQsIIIAAAggggAACCCCAAAIIIIAAAggggAAC7gW8Caop/eHejr0IIIAAAggggAACCCCAAAIIIIAAAggggAACJSRAUF1C0NwGAQQQQAABBBBAAAEEEEAAAQQQQAABBBBAwL0AQbV7F/YigAACCCCAAAIIIIAAAggggAACCCCAAAIIlJAAQXUJQXMbBBBAAAEEEEAAAQQQQAABBBBAAAEEEEAAAfcCoe53sxcBBBBAAIH8BTZv3pz/SV6c0aJFCy/O4hQEEEAAAQQQQAABBBBAAAEEEAhUAYLqQJ1ZxoUAAggUo8CSJUs0YcIEn92hZs2a6tq1q/r37++zNmkIAQQQQAABBBBAAAEEEEAAAQT8R4DSH/4zV/QUAQQQKDMCP/74o0/7sn//fpnwmw0BBBBAAAEEEEAAAQQQQAABBMqnACuqy+e8M2oEEECg0AKm3IcJls12+eWXq6hlO/bt22dfnW3aNG0Xtb1CD4wLEUAAAQQQQAABBBBAAAEEEECg1AQIqkuNnhsjgAAC/i9gQmWCZf+fR0aAAAII+LuALT1Z61dv0OH0/EcSFBquZq06qHbVoPxPLsAZGUen6LKG12pWUpge+XKfXhpSpQBXcyoCCCDg3wInEn/Tp1+v0AmnYQRb/95WqRWlTp17qm2jSl4NcMecl/Xw+2t10X3v6p6eNby6Jr+TiqPN/O7JcW8FUvXH9+O1dEdm9gWhVaurWevOuqhzU4V52wznBYwAQXXATCUDQQABBBBAAAEEEECgfAqkJ/+g+3rcooVHbPkCBIW00puL1mlE15B8z+UEBBBAAAHvBFK2/qDnR72onWm5zw8Or6vL7nlPY18ZpHoVch933rPwqzH6cuoOba9xixVUX5L3yV4eddfmgTVf6f3//aVqLa/SiGvaetkSp/le4Ljmf/K0/vXjvlxN17Pm5un3x1ivg/q5jrEjcAUIqgN3bhkZAggggAACCCCAAALlQiAoNEptuvZQiFNAsmPjAm1JyFSFyCY6N6apKp6UCAqtq6hqvl1NXS6QGSQCCCDghUB43T569cP71dQKpG3pqdq+fqbGvPGxpr11k/3f42+f6ZRnK4OfnSLbuVt1Zv+L8zyvIAfdtZmw4is9//RUtRnSQsOsoJqVuwURLY5zw9Xnvo90f78aOpYUr9UzJ2vspO913xXxOva/uRrpo9X1xdFz2vStAEG1bz1pDQEEEEAAAQQQQAABBEpYIDSit96f1dvprqn65KYmuuOLRDXqMEzfzn1YdcmmS3hWuB0CCJRHgQrh0erWt5/Ocqycvnyg+kQf1Vk3TtLs8eO05vFOanc8XqtW/63Mqq3VvvlxLZw2TykN+2hAt/o6nl5RTZtHK+R4qsXnXC4kVbG/zdfyDf8opKr1C8gePdWslvM/7MmKXbZBu9Mj1L5TfW1fMENrD7fQoMFnKyNHmyes81Zq+ZasZ+4c2b9JS35dqtPbxSj9r1XaeVg63So70TzK0XaqNq9YpX+s7jRq1dnlnuVxhotvzPVb9VC/vg3sNxh03W26rONA9f6/GXrxgdfUd9V/1Np6TR3euVprt6QovFErnd28+snOWK+NZausua+oFmd3VH2nl40tPVG/z1miLbtTFNGkg7p3a6NqJKHFN4k+aDnYB23QBAIIIIAAAggggAACCCDgZwLJWvnjB3r47kG6rF8vXT7wBj35xreKP5y7fIj5H92fPn5ad1/fXxf3vkzX3Dxcb3y2WAe8qIltPg7/3MMPadTIh/T21+tz1G/1MzC6iwACCBRKIKrTeWoeFqRje3drv1WiKWXrZ7q518XqPegGXdq1vfpef7v+PXaxve1fPrhdF/Tsqic/Xp99r9RtP+jW85urVed+uum2O3T9NRerZZM2evDDddn/ptrS1+iF6y5Uz+5Xa8gV56hz3+s14rGJ2m590sa5zazzeuuWlxfZr/1rztPq0a2vvlicoeUf36Re1r3veWlO9r3T9n+tuy++QL0uHqnlB3P/96FQIFzkhUC4zrv7EQ1oVkH7Y8fph3lH7desnThSPa05GvnWiuw2bOlr9fotF1lzf7t+/utUretdi19WrxbNrNfCQOt1c4Ou6NlWbTrdpnlxp87xoiOcUsICBNUlDM7tEEAAAQQQQAABBBBAoHQFbOmxeuPa89Tl8nutj6h/q+kz5unHqZP0wqhB6txluBbvPhVGZBz5XY/2OlP973xeH07+SXNnT9eUz9/XqKEX6KLLX9WWFM/BRdr+WRo28CY9++rrmjwvU+f3aMPHy0t36rk7AgiUgsCedau144RNFSPrqabTg2yTt87XusPtdO2dw9XnwqZue2aC5advuEWfLtmvLoNG6+vpczXp3bvUKixWbw+/XG/MygowHRfbMjZpwdJ09bJW5A4d0FFVXVbPBoWepZEf/aD/jjjP/u9x0+6Paer073TDeZV18eAr1NBatbty5gxtPFlKauecWVqRnKlGnQaoR3MiNLeTVEw7g8M76LyY6lYJmWStXR1XoLucSPxat1/zhBbsqK3rH/1QP03/Vi/ddo6S1ozXffe+p0TP/+ku0H042fcC/C3zvSktIoAAAggggAACCCCAQBkWWPXJSD32VawyqnTQMxNXKGHvQa2f/ZK61AlW4voP9O/Xs1b2mSEsG/Oo3lq0R9UaX6XPF+3SscMH9fvkEWpj1bleN/NpvTTuH7cjzTiyRk8OGaoJaw9b116rcVNfU6fa1B9xi8VOBBAIGIHjR+I0Y/IkTbK+Jn7+id56/i4NvHOC9qWH68LrrreXb3BsYTWv0hdLlmjyh+/phbvOdmuwZ+6HGv9bkmq1fVATPntSg/v21HX3jdVnL/ZVhfR4ffrmRB10ujIotIme/GKFpk/6RG+/eqMa5fpnN0IdLu6nbu2zHtB3Wt0Yq9xEVhmR2udfqR6nV1DSXzO0cLVZdZuqeTMX6YjC1WPwQEpIuZ2h4twZoYhI84SJVCUfNKVgvN+Wf/qO5v+TofNueEfjX7zTmuOBenjse7qubZhi50/WfKeV1963ypklIUBllpJQ5h4IIIAAAggggAACCCBQZgQqNr5Ez/ynq6o16GOV8zjbvqqu7sUjNHzAR1o6dqv+WrPSCj4ukKl+GbfpL/vHw8/oMNBeP9WUvjzn2uf04s5MTducqdOrJVl7smpqOgaYmRGvt+8YolfmJiqsZg+NmfqJVaOVNUJl5gVARxBAoNgETuyfqceGzszRfnB4XfW/7119+OIF9n9vzb+pZqsUGa3oHHWmc3dr3dJVVsgtq/RGD51R6VTq3KZPH3WsMkOrVy3T1rS7dPbJQ0EhUWrRwlG7OHd7ee0JDr9IQwa00Oevrdfs6St1V/sD+nl+gkKqXKDLr3C/4juv9jjmA4GTJbaCC5ReJmvZslj76yzo6FK99uLakx1J1a5gmzKPb9TmzdaS6jN80D+a8LlAgaba53enQQQQQAABBBBAAAEEEECghAXa9vk/te1jhSWJ1kfEp07WtoQDOpyaqvVbrKdoWVtaSqqsT6lb/4crtencXlU/3aENP/1Lg+7cphsH9NNFXWN0xUPv6Aq3/U7V9FcHa8vqWAVXbKXnJn2jm2Iquz2TnQgggECgCZhfzj37yh2yFibbtyq1mqj9OTHWQwidH4zo/ahTjx6ynxxRPWf4HFI1QhWtf6PTjqToRLr1D7bTSm3vW899ZrfBV6rp2+u1fMZ0/XFRipb8k67oi6yyH/yyMTdWse/Zpm07TWmXcDVsVK8Ad0tS0sEM+/lLv3nR+nK99LiOHTErtKu4HuDnMiBAUF0GJoEuIIAAAggggAACCCCAQMkJ2NK3acJDN+tfYxbZV+rltcXcPk4fxd2sB97+WTM/fsr+FRQaqZju11kP6npSN/fM+vi4cxvrV2+0/xiUcVDb4g5Y39XI6xYcQwABBAJGoGLVVup30/U6y0fBcd2oOtYq7PXas9u5wIf1i8aERO2xlsxWrlddVUJz1fcotGe1jteoX5vX9f7qqXrpnXTtTAvXPYOutn/Chq1kBczDiH9aftD6pe956nZhzqA6M8//dkcqsnqI1Vlr7v77l94cWtOl4+EKDy/ZsXA37wX4/Jn3VpyJAAIIIIAAAggggAACASCw4PXrdffbi3Qooof+bdWo3r73mFJSUvTNiLa5RhcUWlfXvjRLW/9apskfvKC7ruulZtWTtXLOB7q1Xy+99LMJonNupkZq1wvaWPVTEzXuibs0ZaOpdcqGAAIIIFBQgZbdu2c94PDHcVq01/EEvFQtnDxVGxyFDTAAACAASURBVK2PvrTu1kPNCxGKh58MtzPSc9Y+Ng9bvOqqjlZ5iNX6buo6q+xHd6vsR+5fSBZ0HJxfMIHju2bpwdte0NJkmzoNHqkrW2fFl9Ujs1bm798VJ8djNNP2x2t7UtYK6qy7RKh79zOtX3Ck6ucvJ1oPTjTBdNaXafenJbn/u12w3nF2cQoQVBenLm0jgAACCCCAAAIIIIBAGROI1YxpG+y1K3veMlpPWDWqG1kfSTf/E6tcnzdN1MKp31lhxXTtCD5X197zuMZOmqONm5fq/nMjrCBjk775bG52vdWsgYbrmmenac6M8bql42k6sX++Hr3zNW1PK2MMdAcBBBDwA4FqZ9+tx29opWO7vtSgbpfpwaef1Iihl2joy0tVIaK7Hnj46kIVcKgSFaXTrH/zN815Q7c+8JC+WX7qF4qdBw9Q67CsVdotegxQl3q+W7HtB+Sl1EUrVP7oJvW/4jL16NZWjZr30VjrQcZNz39MH78zKHuOG1/QXc0rB2mT9TDjq28dpcdG3qme3W7TrMScvxA+65anNfSs0/T3gkes49frkadf0CP3Xq5OXQbo5psf0rKDjl96lNJwua1HAYJqjzQcQAABBBBAAAEEEEAAgUAW2PVXnPXQxKwtddsPmjJje47hmhIhE5+6TlcPtMKRlxdnB9KhkU3UuL7nJXxNmkerUtVz9cL7o9SmWpD+XvyMRj63wiXQDmRZxoYAAgj4SqCubv3ge40d2Vvh/8zUW8+/oHc+W6Ea592q8TO+1Q3tCxdr1en1gB68rIWCkldr0rtjtOLvlOwOV2l7hfqfE2H9HKHelP3w1UTm287ONfP107Tp+mX1ftXvNEBPj5mt5Qv+o/bVT/2ioErb+zXmP9eoYaU9mvXpG3r53W8Udt7dGhBjHtN5aguNuEjvzfpBj13TSfvWT9Yrzz+pVz6Yo7AWt+jDKa+ps1Ob+XaME0pUIGj37t22KOs3SWwIIIAAAgh4I7B582a9/vrr9lNHjRplPVW7hTeXeTzH1+15vBEHEEAAAQTKkUCqPrmpie74IlFNu7+sJfMeVl2nBXGLX+6pno/OtwfHjdv1UJt6yVqxdJX2HslaYVWr7WNatuo/amZl0asnXK9L7phs1bIOV8eLB6hr6xpKWD9L/5v3l9KthyW+8L/FerR3DWUcnaLLGl6rWUlheuTLfXppiHlIU6rmvdBXfZ9cYJ3bQa//vFj/dyEPVixHL0SGigACPhTITE3S7p0HFRoZpbqFfDija3f274zTkdAoNY469bBHW/oaPdDpPP03vq9mbvlOvWqzotrVrbR/Nq+FeOu1UC2qiWpXzXt+Mo4kWg9NPqaqteqpTiTFqUtz7hISElS5cmWFhYUpNDRUwcHBCgrKmj/Hn4X71VNpjop7I4AAAggggAACCCCAAAJFEOg6arImPNJbjazVztvWzdeM2RtUr/P/aczzV1g1LaWD8asUuy8rtO4wdJymf/6IerWvYtWlnqz3rJV331ghda22A/Tq1z/aQ2rPW7h6PPKWFU5Xt9c7/c9dD+kPPm7smYsjCCCAQB4CweGRamB9YsVXIbW5Vc2G0S4hdbIWjX1WX64/ro6XX6/OhNR5zEjpHTKvhabWayG/kNr0MKRqXfu5hNSlN18FuTMrqguixbkIIIAAAvL1Cmhft8cUIYAAAggg4K2AWWUVF289VKlWEzV3Wk3n6fojCdYDm/alqIp1vvPqO0/nsx8BBBBAwH8Ejq5/Veee+4g2HLMprGYPjZs/p9ClRfxn1PQUgZIT8GZFda7HhZRc97gTAggggIC/C+zbt6/IQzBBNRsCCCCAAAKlIWBWWTVvV9frW1e1PmLchqqJXntxIgIIIOBPAhVqnak+/QfozIhWun7YKF1eyPrX/jRm+opAWRMgqC5rM0J/EEAAgTIuULNmTZmv/fv3a8KECT7tbVHrXfu0MzSGAAIIIIAAAggggAAC5UYgrO6lev2rS8vNeBkoAmVRgBrVZXFW6BMCCCBQhgVMSN2/f397WO2rzbQ1dOhQXzVHOwgggAACCCCAAAIIIIAAAggg4GcCrKj2swmjuwgggEBZEOjatatatmxpX1Xti42V1L5QpA0EEEAAAQQQQAABBBBAAAEE/FeAoNp/546eI4AAAqUq4CgBUqqd4OYIIIAAAggggAACCCCAAAIIIBAQApT+CIhpZBAIIIAAAggggAACCCCAAAIIIIAAAggggID/ChBU++/c0XMEEEAAAQQQQAABBBBAAAEEEEAAAQQQQCAgBAiqA2IaGQQCCCCAAAIIIIAAAggggAACCCCAAAIIIOC/AgTV/jt39BwBBBBAAAEEEEAAAQQQQAABBBBAAAEEEAgIAYLqgJhGBoEAAggggAACCCCAAAIIIIAAAggggAACCPivAEG1/84dPUcAAQQQQAABBBBAAAEEEEAAAQQQQAABBAJCgKA6IKaRQSCAAAIIIIAAAggggAACCCCAAAIIIIAAAv4rQFDtv3NHzxFAAAEEEEAAAQQQQAABBBBAAAEEEEAAgYAQIKgOiGlkEAgggAACCCCAAAIIIIAAAggggAACCCCAgP8KEFT779zRcwQQQAABBBBAAAEEEEAAAQQQQAABBBBAICAECKoDYhoZBAIIIIAAAggggAACCCCAAAIIIIAAAggg4L8CBNX+O3f0HAEEEEAAAQQQQAABBBBAAAEEEEAAAQQQCAgBguqAmEYGgQACCCCAAAIIIIAAAggggAACCCCAAAII+K8AQbX/zh09RwABBBBAAAEEEEAAAQQQQAABBBBAAAEEAkKAoDogppFBIIAAAggggAACCCCAAAIIIIAAAggggAAC/itAUO2/c0fPEUAAAQQQQAABBBBAAAEEEEAAAQQQQACBgBAgqA6IaWQQCCCAAAIIIIAAAggggAACCCCAAAIIIICA/woQVPvv3NFzBBBAAAEEEEAAAQQQQAABBBBAAAEEEEAgIAQIqgNiGhkEAggggAACCCCAAAIIIIAAAggggAACCCDgvwIE1f47d/QcAQQQQAABBBBAAAEEEEAAAQQQQAABBBAICAGC6oCYRgaBAAIIIIAAAggggAACCCCAAAIIIIAAAgj4rwBBtf/OHT1HAAEEEEAAAQQQQAABBBBAAAEEEEAAAQQCQoCgOiCmkUEggAACCCCAAAIIIIAAAggggAACCCCAAAL+K0BQ7b9zR88RQAABBBBAAAEEEEAAAQQQQAABBBBAAIGAECCoDohpZBAIIIAAAggggAACCCCAAAIIIIAAAggggID/ChBU++/c0XMEEEAAAQQQQAABBBBAAAEEEEAAAQQQQCAgBAiqA2IaGQQCCCCAAAIIIIAAAggggAACCCCAAAIIIOC/AgTV/jt39BwBBBBAAAEEEEAAAQQQQAABBBBAAAEEEAgIAYLqgJhGBoEAAggggAACCCCAAAIIIIAAAggggAACCPivQKj/dp2eI4AAAgh4K7Bt2zZvT+U8BBBAAAEEEEAAAQQQQAABBBAIQIHGjRuX6VERVJfp6aFzCCCAgG8Eyvp/jHwzSlpBAAEEEEAAAQQQQAABBBBAAAF/FaD0h7/OHP1GAAEEEEAAAQQQQAABBBBAAAEEEEAAAQQCRICgOkAmkmEggAACCCCAAAIIIIAAAggggAACCCCAAAL+KkBQ7a8zR78RQAABBBBAAAEEEEAAAQQQQAABBBBAAIEAESCoDpCJZBgIIIAAAggggAACCCCAAAIIIIAAAggggIC/ChBU++vM0W8EEEAAAQQQQAABBBBAAAEEEEAAAQQQQCBABAiqA2QiGQYCCCCAAAIIIIAAAggggAACCCCAAAIIIOCvAgTV/jpz9BsBBBBAAAEEEEAAAQQQQAABBBBAAAEEEAgQAYLqAJlIhoEAAggggAACCCCAAAIIIIAAAggggAACCPirAEG1v84c/UYAAQQQQAABBBBAAAEEEEAAAQQQQAABBAJEgKA6QCaSYSCAAAIIIIAAAggggAACCCCAAAIIIIAAAv4qQFDtrzNHvxFAAAEEEEAAAQQQQAABBBBAAAEEEEAAgQARIKgOkIlkGAgggAACCCCAAAIIIIAAAggggAACCCCAgL8KEFT768zRbwQQQAABBBBAAAEEEEAAAQQQQAABBBBAIEAECKoDZCIZBgIIIIAAAggggAACCCCAAAIIIIAAAggg4K8CBNX+OnP0GwEEEEAAAQQQQAABBBBAAAEEEEAAAQQQCBABguoAmUiGgQACCCCAAAIIIIAAAggggAACCCCAAAII+KsAQbW/zhz9RgABBBBAAAEEEEAAAQQQQAABBBBAAAEEAkSAoDpAJpJhIIAAAggggAACCCCAAAIIIIAAAggggAAC/ipAUO2vM0e/EUAAAQQQQAABBBBAAAEEEEAAAQQQQACBABEgqA6QiWQYCCCAAAIIIIAAAggggAACCCCAAAIIIICAvwoQVPvrzNFvBBBAAAEEEEAAAQQQQAABBBBAAAEEEEAgQAQIqgNkIhkGAggggAACCCCAAAIIIIAAAggggAACCCDgrwIE1f46c/QbAQQQQAABBBBAAAEEEEAAAQQQQAABBBAIEAGC6gCZSIaBAAIIIIAAAggggAACCCCAAAIIIIAAAgj4qwBBtb/OHP1GAAEEEEAAAQQQQAABBBBAAAEEEEAAAQQCRICgOkAmkmEggAACCCCAAAIIIIAAAggggAACCCCAAAL+KkBQ7a8zR78RQAABBBBAAAEEEEAAAQQQQAABBBBAAIEAESCoDpCJZBgIIIAAAggggAACCCCAAAIIIIAAAggggIC/ChBU++vM0W8EEEAAAQQQQAABBBBAAAEEEEAAAQQQQCBABAiqA2QiGQYCCCCAAAIIIIAAAggggAACCCCAAAIIIOCvAgTV/jpz9BsBBBBAAAEEEEAAAQQQQAABBBBAAAEEEAgQAYLqAJlIhoEAAggggAACCCCAAAIIIIAAAggggAACCPirAEG1v84c/UYAAQQQQAABBBBAAAEEEEAAAQQQQAABBAJEgKA6QCaSYSCAAAIIIIAAAggggAACCCCAAAIIIIAAAv4qQFDtrzNHvxFAAAEEEEAAAQQQQAABBBBAAAEEEEAAgQARIKgOkIlkGAgggAACCCCAAAIIIIAAAggggAACCCCAgL8KEFT768zRbwQQQAABBBBAAAEEEEAAAQQQQAABBBBAIEAECKoDZCIZBgIIIIAAAggggAACCCCAAAIIIIAAAggg4K8CBNX+OnP0GwEEEEAAAQQQQAABBBBAAAEEEEAAAQQQCBABguoAmUiGgQACCCCAAAIIIIAAAggggAACCCCAAAII+KsAQbW/zhz9RgABBBBAAAEEEEAAAQQQQAABBBBAAAEEAkSAoDpAJpJhIIAAAggggAACCCCAAAIIIIAAAggggAAC/ipAUO2vM0e/EUAAAQQQQAABBBBAAAEEEEAAAQQQQACBABEgqA6QiWQYCCCAAAIIIIAAAggggAACCCCAAAIIIICAvwoQVPvrzNFvBBBAAAEEEEAAAQQQQAABBBBAAAEEEEAgQAQIqgNkIhkGAggggAACCCCAAAIIIIAAAggggAACCCDgrwLlJqi2pR3Srm1/a2fCUbdzlbJ/p7Zv263UzNyHM47tt47tUOLBE/aDe3/7SMPvvk/jFyTlPrlM7EnRrPdH6J773tDKA7Yy0aPy2omUuKl6fNjd+s/kDWWSIH72a/bX8jcrjhepf5nH92vL2t/16y+LtWLtViUVrbki9YWLEUAAAQQQQAABBBBAAAEEEEAAAQT8TyDU/7pcuB7bMuP03bsfaEvlnnrsmWtUL8S5ncOa+8Wr+nFTFV098t+65Iyc+X3c4vF685t4db75Jd10fljhOuDlVZnHD+nwMSms6mmqVMHLizgtIASOHzmkI2mhiqheWf70FzNx9Xf68POftfPIqV+KhFSN1hW33KM+7SMDYm4YBAIIIIAAAggggAACCCCAAAIIIIBA8QqUmxXVwRWbqkWTijpxYKd2HMy5yjjj2GZt2XZctsz9io3d7SKeou1/71BGhYZq2rRK8c6G1frW+R/q8Uef0YwNbpZ2F/vduUHpCaRowadP6YmnPtLGw/6zCv7E3kUaN/5nJQS30OU3/5+efPJJDb+pp2pnxmvahCna7EdjKb25584IIIAAAggggAACCCCAAAIIIIAAAuUmqJaqWUFzlGxpO7Q9PquEh2P6D2/+U/EpoQqrKO2IXadDzq+LzB36O/64wiKbqmmdIF4xCCDgJLB7/WrtTA3VeZffpv7nt1ajRo105gVDdHW3Bko/vEF/bsn5dw08BBBAAAEEEEAAAQQQQAABBBBAAAEE3An4U4UBd/0v0L4GzZspIjhef/+9VerU5uS1afpr4986UeEMXXB2sn79Y5O2JfdW+4isUPp4Ypy2WyUNasQ0U+0c5UKyLk/atlyLFq/Utv0nVLFqlNp36a0urSJy9evYnvVasmyl4nYk6WhmBdVp1FKdu52vpjWzSokcjluqWSt2KXnnXqUrTbFLvtU3m8PU8oIr1L5eXgF5mv7ZtES/LN2oPUfSVK12U5174Xm57u/YYcs8pri1S7R8zVbtOXRC4adFqU3M+TrvzPp5lptIP7RBs2dv0IkabdWnR2tZmX72dnz3Ck3/NV6VG3fVpefWz96/P265Fv/2p3btParMihGKbn2OunZurUinkibph2Ktdv9UcKOc15pG4n77n/7YGa5OF1+iJifnw93A4ldM04ptVdWl7wVK37xQv6zYpIMpNsuipbr26K4WdXOXa0k9GKdlv/yqLdZ8HA85TY1adtRFF7TP0TfHvbLm2BrH/qMKsea4ZYfzdX5Mbq+MYzu1bP6vWhu/VxlWm03bnquYuu56nHOffZzbj2rbHquwc0ailkz7VrEVo3ThFReojpOVN5553e1YwnotWPCbtlrzYV6rrTp1V17d8+Z+jbrcoRc7pqtCpdNy3LpmjQjr9ZSoYylp1n7nV0tePeQYAggggAACCCCAAAIIIIAAAggggEB5FShXQXXFhs1Ur9I8/WOV8jigNqphZj1zl9bH7tVpjc9Xt07J+mPZUsVaq0Dbd8oK15Ljt2r/iQrq1LSZS5BrBcSrx+vFb7YqqHaUIkNS9NeGdVr5xzoduPtfuqx91ezX1M6VE/XBp4use9bU6U3rqUpmon6btcp68Nwq3TTiPnU5PUzHD27XptgtOnHEKlBtBdX7/4lVxv4KqtHhcutnT0G1FWjP/UBjv1mvYyGVVb9+lA7umas/lixW9cq5n2ZnS9upaR+9q5/WJKlSzYZqXCdM29ct0oolC7W4y426++bOVpDv/q9CaNXK2vPnXP2WvEctOrVS62qn+hS7dIZmzjmgi2/vc/LiFK2aNkafTt+itMpRim4UqbRdq/XTH4u1cFEv3XXfYDU7GTxnHI3XkrmzFXJuixwht2lo58Z5mrOipup1NkG1+36ZvQmxizTn18pKSFikTRuPqE79WlJKotatW6cVq7Zq2CP3qG2NU/09sGmqxnw0S/+k1dDpTWor9PB6/bxqiZYt76P7Hxig+uGOe6Vp3cwPNO6H9cqwgt0mDSJ1aMsi6zWyUMu736V7rztTlU+eaoL8z976QL/tOmG3jaq6X3OnLNHCiFpKtc459WrIPY4Du2KtuT+qI4fNsRTt3LJJ+yqc0NkZ1o/2oNp7z9ytZ+05uPVHvTfmR+08Gqrq9RspMnm1vv19iarVCrV+MeK6eX+/4IqVdVquHDrF+ju0XRnBNdWogUPI9R78jAACCCCAAAIIIIAAAggggAACCCCAwCmBchVUh1RuojMahWlz3FYlHrVWSVcJ0vHEWP21J0RNzm2nhs33KbrKPCvsjFV6pzOtYDrNWn1tAre6im6aOyndtcOmq+97Qb1OrqBOXD1Rr49dpF8XrtLF7bvZ15FmHFmhqZN+0eHILhrxf0PV6mRguufPiXrt/UWa/tNKdRzWWbU6DtGTHaUtM1/TW1N3qeugxzXwLA+p8cn5O5H4i7763wal1zxHw4ffbK28NiuH06yVyBP18edLXV7nafpz2njNWnNUrXuN0J2D2qiK1bwtbb8WTHxLXy79St80aKTbL2ng/u9HcBOda60iXmKFz6vXWW10ORm9Zu60AuF/FFKlozq0zarhvf/P7zTZOq9Ki8s1/K7L1MByNv2KnfuRFarP1eeTTtfD1ph9GWHaMhMUd+BC3ffsYLWqZRxStPa7tzR21nr9snyv2l5axz6u9EMrNGHcLO2t1En3PmyZ2VdbW32b/YHe/26uvpnVUQ9c2dh+7iEr0P7MCqmrtR2i++/sqVrWhBqv2Z++ou8WfakFZ7VUvzZmllO04vsvrZA6VGf1G6bbr2xzcu7jNPWj9zR7j705j9vZA/+lswemaNZ7j2rqpia6ZuQDau/0i4CietrSrHrRE3/SP+kNdPm996v/WVkPOEzeuUjjx0zSXpdfwRT1ftuXfqGZKw+rVtsrdW6TvF/DHlE4gAACCCCAAAIIIIAAAggggAACCCBQrgTKWYpUU82a1rbCxr8Vty3rgXW7N8TqgK2mWrepp+CKLdT2jIraE7tJe81qVmvl89/xyQo9ramaNXBd1VxBbXoNyQ6pzaum7pnnqEVkkI7u2a0D5nqzBUfpoiG36c5bBmSH1GZ3nbbWuVZonbxr+6lzT17i7R9bly3WrtRK6nLZtSdDanNlBUWfd7UubJW9LNjeXMaxDVq4ZJdC612oa67KCqnN/qAKNXXhNYPUvkaKVs9boB2OfrvpRPTZ56pOyDFtWL1OjvXaxxPXa2NCpqLadbRCfmN0WEvn/a5DIdG68npHSG0aq6D/Z+++w6yq7r2B/6YCQ68OvSqCgCJgA3uJMYqamJiYcmOaKZrkJsbc3Jhiiqma5KYaTUxiyhtjxS4W7Ip0BESa0gYBpZdh2rvPDHUaIAPDOXz284wDu621Pmsf//iexW/3P/Oj8a5kpfmyaWNj8pKGfWFgVrJ6913vv2RrSJ1qr1kccdyx0S6nJJYVLds+mgXPj4u5a5rFSaMTs+0lQVJ9Gx3HHlYWcye+FEWVBsk4HnsuGUf/uPCDp1eG1Kkt5XXa6DOiS+5bMXF88oVGsq9s/Yx4YcryaJrYXnx+VUidOjenRe94T1K+o65V6lV33N1/991z7WvPxZSi8ug64sI4d2tInWq1dbdT4j2n9qwWU+9be29O+kvc9I8JUdrxxPjoR0c16JcRu5NynAABAgQIECBAgAABAgQIECBAIH0FDrGgOqJLvz5JeLYuWSldlMzaupg9a17ktD8q+ndPUTSLIwf0TUpuzI75yyqidP3iWJz8bp2U/ehUS33q5gVVK4h3TH9+NGuSlQThJdvLKeQUdIshI46LwX0K4u1Fs2Pay+OTkh/PJT/TY3VSvreibMe5e/cYrYuFi1YmwWn36N+/ej+ShfLVZrZ48exYkKwi7zpwUHSpVrI5p2BgHN2/RZSsmx8Lk/HWtTXtdnQM6dUk3nptUsxfV3XeolemJ0F/yzh62KDKwLO8eH5iWxwtOg+Kww+rHu63jMFD+kZO8gXAvHlr6mrmHe5vFs1b7jqw7CZ5kZfMW+n2+Ujmfe6iKMtrF62yFyXlNl7d8TNnfVK3OS+2vF0UKzdWVH6Z8Voyjvw27Sqfh53Pnf92bjTLy4q1y4oqX7y55c1FUZTUxO50eP/oXP05SeZhX/7ZQkN4Ll+0MIqTuuhHDuhfoy95OTsVwd7H+SsueiJu+uuLsandifGZL/5X9K+nrvg7nGSXESBAgAABAgQIECBAgAABAgQIZKjAvmRoaUnSomffKMx/JhbPnx/rNjaLmUkYeVgSsm57UWKH/v3jsNz74tWZK2JQ4bxYVpob/fv02afXwa1e8Hj887YHYuqSDcmq7YJomdR7zs/ZEutSYW9VFYZ3YLkh1iaBalZ2y2jVonogXPN2W9avrQwrWyU1k2tuedE66VOUbYq1lQF0XfcrjBHDesS427eV/yhOyn4sjKxWx8bRA6qWHJdvWpu8LLIi8lq3jurxeardVq0LIpXlrl2/IfnvOx58zSHs0Z7EbN2WJIReHPfe/Mtar8jKK4tNqXcaVmyK9SUVUbzihbjlxuplVKoubbp5Y5SVp1arr4nNye8eyZgbemsIz03rNyXla1pF8ySI3922L+298ty4WLqlRZx90YeSle11PUO764HjBAgQIECAAAECBAgQIECAAAECh6LAIRdU57RI6lR3zY/HFs6LubNyY9GmZjEyWUW9DSK/41HRr+M9MX327Hht88LYmLwAsW+f2sLdPXtcUjWRb/39f2Jh/vC4/Or3x/DDW1e1Vf56/PW7P4kJyarqd7Ylq4Urc8dkRXYSku5uy81rlgTEybnJ6uLati0lW5LdTbbes7YzqvZ1G3Z8dBvzj8ryH2uOKIlZSdDf/YTjotvWxcxZuXlJO1lRnrRTWxWRkuKq/bnVVvLW3WLDHkm1m92kV1z6+Yuiey1Pf1Z2szgsWQmclYTVqXG06n1GfOyS4bWWsMhu0iraJiumtyQTkZv8Li2r+VrCfe19Q3jmVT4oG6NiD56Td97epli5LFkln9Mz+vSttmR/XxFcT4AAAQIECBAgQIAAAQIECBAgkPECtUR1mT7mwiR4bhOPLFwWEyduiM1ND4+B/XcK1rK7xRH9O8ZzL0+PKVnLkpcEDo1+lWVB3tm2atbkpCZybgz/0CVxQhJSN9zWKgrb50fFa29G0ZLyOLJv/X3ML+wcqXcMvrloUVJfumu1FeLJiwgXbUzKiHSOwzrVvxI2t80xcezhd8S9SfmP58ZXxOLS9nH+sB1Bf05BYRzWPispIbIwlifZd69qmeWi15PSG9lNo3NhlUVW0u2sZIl1WXlVCZT9+0C2jw4pswXJau6C3tG3Rz1jzWkX7VpFLFpTEq179Ike9WSv5e07BN8j+gAAIABJREFUR5uk48uXFiW2Pfdp9X3152NvPatfn/p7+07tK8utLFqyMmJg1Uslazsvte+dt9cs3nXlr+Jddd3YfgIECBAgQIAAAQIECBAgQIAAAQL1CNSfbtZzYTof6pHUqW5StjimTFuerJgdHD0rXwK4Yzt8YP9osmFmTJu9OVr16hud6wkpd+dQkQSwqVXP69bsWpN51YLJMW91zSWuqdA2dX5qRXL9W170GzIoWem7LF54anKyXnbHVrb+tViwZNvrDqv253dM6kv3aRIrZ42N5+elVk/v2N6a/ni8vKA4Ogw4Pvq2rCe8rbykZRw7YlDkbZ4ZDz00K6nvfUwck7yAcvuW3SuOG9olSlZPjSeeXbJzM1G6+oV4fPzyyGszKIb0r7omp3n7aJOdFeuSl0qu2omjvHhBLFi46xh2udk7+kteDBiaMlsc4x56KSlRsutNls94Kl6ckypJkmzZveOYIZ2ScUyIsU8t2V5zvOrgppj2VPJSxrer6nTndxwYA7o0iVWzxsXLC3e2LYk3Zs+LNTWnufbeV34ay3ZdIb+XnrXduN2AodGzaWnMTEpzvJHUKd++lb8Vs+cU7Tq2Bmivtj7YR4AAAQIECBAgQIAAAQIECBAgQKA+gf27gLW+lhvxWIs+R0Zh7gvx+pa8OGJQ/xplHVr0PTK6N3smXt2QFz32sT51KiTs1XJazHr8pvhj8WnRP0m91yyaEs+/OKvyZYrZxUmd41SNjMqAOqJDxw7JH+fE1GfGRJfSnnFYnxHRt45Vzh2GnBunHDk9Hnrp1vhV8aIYeXSXyNq4KF5+dly8lgpRt96z6s7t46z3vSem//LuuOMPN8bys07f2pfJ8cRj42NDi6PiAxcdX8OitmlqN/jY6Nd8YryS1LPuf8yxNV4geMTZl8bIV34Tz9/12yheeXaMOLJjVKyaH08/PjbmrGsXZ15+UfRuWnXnnBb946jkZZCzpz4ef/lTfow6pmOUrlkWU14cF68kK8Wzdl9WubYu1rmvwzEXxLnHzIo7J/09bvjNojj9xAHJaui1sejV8fH4c7Oi3dEtYsjhwxKHvDjm3R+MobN+Hy/f9YvYsPycOHFgl2S+VsbsSU/Fc9NXx3EVA6PfaakVyoVxxuhRMeH3j8e/fn1jLD5jVPRuXRrL5oyPp1+eVy3krqtrzaJ9+9aVL3F88v5xsaVvh+g7dHB0SPL8vfGs7e65bYbHu88YF3948PH43S/XxhmjhkTr7CSknvRcjH91fXLJrsjvrL1NMfGO38Q9M9rGpV/4ZAxSo7q2qbCPAAECBAgQIECAAAECBAgQIECgDoGcq6+++rstWrSo43Bm7s7Oy42iKU/H6xt7xBnvPSd6VFtFnJ3XMtbOeTpeXdkyRr77wuhbLXTbuGRSjJv8ZnQZfEYM7bU1cU1RVayO6U89F4vLesTIM1JhYBJEN+0eA3vlxtK5r8TUaa/E9ORn0aqWccKFH4n+ZVNjzrKK6D38lOjRqmolc5P2HaJk0bSYMnNmTE3qQBf0OysGdqnj+4SsFnH4oN5RunJ+zJg6OSZPmRzT56yIrkMvjRO7vBGvLmkew04/MTo3q7p3fut+yUsPW8WqN6bGS8+9GONfnhCvzFkV7fufGpdd/pEYWlc71R6D7LyOsWXpMzF9absk/L44erfbdRV2dl77OOqYPpH19ryY9NJz8eKL42PS9DlR1m5wXPjhTyalQtrvdMcm0evwwlj3xqvJixmnxaRJyRheXRKtj3x3jOzxVry2NCeOPnmHT21P5OLpY2PKwiZx9Cm7nle2cUE8+9SMKDtsWJw2LAmZUxdnFUSfo4+N9mVvxqtTX4wXX3opxk+YGnOX58bgUy6Lj39wWLTcGvBnN+kYxxzdN8pWLYgpExKv8eNjYjIny0u7xJmXfDIuOWXrPZPbFnQ6Ig7vtDkWzJgRU1NzMTU5r6xnvOe9w2L9zDmRFPKOkwd3rK372/d1OKxpLJnxSsycOTWmzFgT/UadUDl3e+dZWxM50emIY6JTxeKYNX1q5XMyZdq8KO80KhlD65g+883oPexd25+zd9be5nj1mQdiwhsR/U8Ytf15rq039hEgQIAAAQIECBAgQIAAAQIECBxaAuvXr0/ejZe82y4nJ7KzsyMrK3lHXPKT2rb/LioqqigsLDy0ZBpltEn5j+UrY31582jbqVU0rbfoStW5G/NaR/u2Bdtf9Fhft4vXr4y31yaFOZKgu8VOlTjquqZ4bXJ+spi2RZsO0bKgrrPq2r8u7v/VtTF21Wlx7bcvjo71jKW8eG2sfGtD5LbokNR8rn959PpVRbFuU6pPnd9Bn+rqa937K8o3xurla6I4u3m06VD/nGwbR0WTZE7a1z0n2+65JTV39ZxXV69S169M+pST8mpR02tvPGtrY2+v35vzU2VuNpfkRbM9eP5q65t9BAgQIECAAAECBAgQIECAAAECmSmwbNmyKCgoiPz8/MjNzd0eVqdGK6jOzDk/IKPavPiRuP7H90Wnc78RV57f9YC0qRECBAgQIECAAAECBAgQIECAAAECBNJTYE+C6jpqSqTngPV6/wq8NX9K8pLGonj+8QdjZf7A+ODJXfZvg+5OgAABAgQIECBAgAABAgQIECBAgMAhISCoPiSmuSEGWRIzn7w1/j5+c+S26h2jL78sBrbetTZ1Q7TiHgQIECBAgAABAgQIECBAgAABAgQIHHoCgupDb87f4YjzYsR7vxZdT09ezNe18x7VwX6HDbmMAAECBAgQIECAAAECBAgQIECAAIFDTEBQfYhN+L4Mt2nbbtGn7b7cwbUECBAgQIAAAQIECBAgQIAAAQIECBCoKZBdc5c9BAgQIECAAAECBAgQIECAAAECBAgQIEDgwAkIqg+ctZYIECBAgAABAgQIECBAgAABAgQIECBAoBYBQXUtKHYRIECAAAECBAgQIECAAAECBAgQIECAwIETEFQfOGstESBAgAABAgQIECBAgAABAgQIECBAgEAtAoLqWlDsIkCAAAECBAgQIECAAAECBAgQIECAAIEDJyCoPnDWWiJAgAABAgQIECBAgAABAgQIECBAgACBWgRya9mXkbuWLFmSkeMyKAIEahfo2rVr7QfsJUCAAAECBAgQIECAAAECBAgQOOgEDpmg+p577jno8HWIAIH9J/CFL3xh/93cnQkQIECAAAECBAgQIECAAAECBBpUIKuoqKiisLCwQW/qZgQIECBAgAABAgQIECBAgAABAgQIECBAICWwbNmyKCgoiPz8/MjNzY3s7OzIysqqxNn2W41qzwoBAgQIECBAgAABAgQIECBAgAABAgQINKqAoLpR+TVOgAABAgQIECBAgAABAgQIECBAgAABAoJqzwABAgQIECBAgAABAgQIECBAgAABAgQINKqAoLpR+TVOgAABAgQIECBAgAABAgQIECBAgAABAoJqzwABAgQIECBAgAABAgQIECBAgAABAgQINKqAoLpR+TVOgAABAgQIECBAgAABAgQIECBAgAABAoJqzwABAgQIECBAgAABAgQIECBAgAABAgQINKqAoLpR+TVOgAABAgQIECBAgAABAgQIECBAgAABAoJqzwABAgQIECBAgAABAgQIECBAgAABAgQINKqAoLpR+TVOgAABAgQIECBAgAABAgQIECBAgAABAoJqzwABAgQIECBAgAABAgQIECBAgAABAgQINKqAoLpR+TVOgAABAgQIECBAgAABAgQIECBAgAABAoJqzwABAgQIECBAgAABAgQIECBAgAABAgQINKqAoLpR+TVOgAABAgQIECBAgAABAgQIECBAgAABAoJqzwABAgQIECBAgAABAgQIECBAgAABAgQINKqAoLpR+TVOgAABAgQIECBAgAABAgQIECBAgAABAoJqzwABAgQIECBAgAABAgQIECBAgAABAgQINKqAoLpR+TVOgAABAgQIECBAgAABAgQIECBAgAABAoJqzwABAgQIECBAgAABAgQIECBAgAABAgQINKqAoLpR+TVOgAABAgQIECBAgAABAgQIECBAgAABAoJqzwABAgQIECBAgAABAgQIECBAgAABAgQINKqAoLpR+TVOgAABAgQIECBAgAABAgQIECBAgAABAoJqzwABAgQIECBAgAABAgQIECBAgAABAgQINKqAoLpR+TVOgAABAgQIECBAgAABAgQIECBAgAABAoJqzwABAgQIECBAgAABAgQIECBAgAABAgQINKqAoLpR+TVOgAABAgQIECBAgAABAgQIECBAgAABAoJqzwABAgQIECBAgAABAgQIECBAgAABAgQINKqAoLpR+TVOgAABAgQIECBAgAABAgQIECBAgAABAoJqzwABAgQIECBAgAABAgQIECBAgAABAgQINKqAoLpR+TVOgAABAgQIECBAgAABAgQIECBAgAABAoJqzwABAgQIECBAgAABAgQIECBAgAABAgQINKqAoLpR+TVOgAABAgQIECBAgAABAgQIECBAgAABAoJqzwABAgQIECBAgAABAgQIECBAgAABAgQINKqAoLpR+TVOgAABAgQIECBAgAABAgQIECBAgAABAoJqzwABAgQIECBAgAABAgQIECBAgAABAgQINKqAoLpR+TVOgAABAgQIECBAgAABAgQIECBAgAABAoJqzwABAgQIECBAgAABAgQIECBAgAABAgQINKqAoLpR+TVOgAABAgQIECBAgAABAgQIECBAgAABAoJqzwABAgQIECBAgAABAgQIECBAgAABAgQINKqAoLpR+TVOgAABAgQIECBAgAABAgQIECBAgAABAoJqzwABAgQIECBAgAABAgQIECBAgAABAgQINKqAoLpR+TVOgAABAgQIECBAgAABAgQIECBAgAABAoJqzwABAgQIECBAgAABAgQIECBAgAABAgQINKqAoLpR+TVOgAABAgQIECBAgAABAgQIECBAgAABAoJqzwABAgQIECBAgAABAgQIECBAgAABAgQINKqAoLpR+TVOgAABAgQIECBAgAABAgQIECBAgAABAoJqzwABAgQIECBAgAABAgQIECBAgAABAgQINKqAoLpR+TVOgAABAgQIECBAgAABAgQIECBAgAABAoJqzwABAgQIECBAgAABAgQIECBAgAABAgQINKqAoLpR+TVOgAABAgQIECBAgAABAgQIECBAgAABAoJqzwABAgQIECBAgAABAgQIECBAgAABAgQINKqAoLpR+TVOgAABAgQIECBAgAABAgQIECBAgAABAoJqzwABAgQIECBAgAABAgQIECBAgAABAgQINKqAoLpR+TVOgAABAgQIECBAgAABAgQIECBAgAABAoJqzwABAgQIECBAgAABAgQIECBAgAABAgQINKqAoLpR+TVOgAABAgQIECBAgAABAgQIECBAgAABAoJqzwABAgQIECBAgAABAgQIECBAgAABAgQINKqAoLpR+TVOgAABAgQIECBAgAABAgQIECBAgAABAoJqzwABAgQIECBAgAABAgQIECBAgAABAgQINKqAoLpR+TVOgAABAgQIECBAgAABAgQIECBAgAABAoJqzwABAgQIECBAgAABAgQIECBAgAABAgQINKqAoLpR+TVOgAABAgQIECBAgAABAgQIECBAgAABAoJqzwABAgQIECBAgAABAgQIECBAgAABAgQINKqAoLpR+TVOgAABAgQIECBAgAABAgQIECBAgAABAoJqzwABAgQIECBAgAABAgQIECBAgAABAgQINKqAoLpR+TVOgAABAgQIECBAgAABAgQIECBAgAABAoJqzwABAgQIECBAgAABAgQIECBAgAABAgQINKqAoLpR+TVOgAABAgQIECBAgAABAgQIECBAgAABAoJqzwABAgQIECBAgAABAgQIECBAgAABAgQINKqAoLpR+TVOgAABAgQIECBAgAABAgQIECBAgAABAoJqzwABAgQIECBAgAABAgQIECBAgAABAgQINKqAoLpR+TVOgAABAgQIECBAgAABAgQIECBAgAABAoJqzwABAgQIECBAgAABAgQIECBAgAABAgQINKqAoLpR+TVOgAABAgQIECBAgAABAgQIECBAgAABAoJqzwABAgQIECBAgAABAgQIECBAgAABAgQINKqAoLpR+TVOgAABAgQIECBAgAABAgQIECBAgAABAoJqzwABAgQIECBAgAABAgQIECBAgAABAgQINKqAoLpR+TVOgAABAgQIECBAgAABAgQIECBAgAABAoJqzwABAgQIECBAgAABAgQIECBAgAABAgQINKqAoLpR+TVOgAABAgQIECBAgAABAgQIECBAgAABAoJqzwABAgQIECBAgAABAgQIECBAgAABAgQINKqAoLpR+TVOgAABAgQIECBAgAABAgQIECBAgAABAoJqzwABAgQIECBAgAABAgQIECBAgAABAgQINKqAoLpR+TVOgAABAgQIECBAgAABAgQIECBAgAABAoJqzwABAgQIECBAgAABAgQIECBAgAABAgQINKqAoLpR+TVOgAABAgQIECBAgAABAgQIECBAgAABAoJqzwABAgQIECBAgAABAgQIECBAgAABAgQINKpAbqO2rnECBDJOYPGku+KRSau2jysrJy+atyqMo4aPjEE9m9cz3rfisb/9K9b0/UC8b2Snes6r/1Dp2qlx+19fiN4XXhEn9siq/2RHCRAgQIAAAQIECBAgQIAAAQIEDgoBK6oPimnQCQKZI7BuyeyYOmtFNO/cOTonP4e1L4jiZS/ELT/7YfzzueX1DrSgoCCaNdm3cDkru1nktyiIpjlbmyp/LW776Q/i/qnF9bbtIAECBAgQIECAAAECBAgQIECAQOMJpNWK6uKiF+JfD8yMsq1eTVp0iF79h8bwo3tE0/0ZuZe/Hvf/7fF4s7Sq4ZyC1tG5a/84dsTg6FjQeJOnZQIHq0BOsz5x6rnnRedtYXFcGEfd8eP4290PxonDPh69m+7oeUV5SfKZzovc7PZx0iWfqHVIqXNKy/IiL6/Ww5U7K0pKIis5IafFEXHJ5UfsdOLmWL3szciTU9eN5wgBAgQIECBAgAABAgQIECBAoJEFcq6++urvtmjRopG7sWfNb1mSBNV3z4p2RwyMru2bRvaWt2LCk3fGoxPWR+/BA6Nd031biVlXLypK34gH/nZvrG03JPp1a5NEahtjweRH4p6HpkdB7yHRq31+XZfW2L/w2ZvjD2PWxMDjekezGkftIJD+AitfezYmLmkXI08/Klpu/wIpJ9pkvxlPPb8oeh0/Mjq8/Wj85Cdjomj1xPj7TX+Jl1f1jVMGFccdN/w0nl+XfAnUr1UlRMnbU+POW2+Km2/9d9z30BMxcc66OKzP4dGxRVUC/sa438Uv/j0zls8ZEzffcles6XRmHNn85fi/7/81NvYYFU1m3RLf+83YKFq/ORbPfi6en1ERA3q9Eb/74d9iQ5cTo1/Hqu/qioueiBt++I/Y1HNU9G2/f/4/kv4zawQECBAgQIAAAQIECBAgQIAAgXcmsH79+mQBYrLAMCcnsrOzIysrq/IntW37nVYrqis7ntMqjjn1vDi+c9VARo9eEP/53W/i1ts6x/9eeXLs/QLnkigpqX+lZhV/bnQbclacN3JbqH9+vPSvX8a//vyf6H7tf0Wf5ruGW6nVnWVJbd7caiu9i9eviTdXromy8uSutawCL0muS02ajUCmCaxYtiy2ZLeKVslHqGLjxtiwanZMmXdWXPyps6KwU/dkuKtiy8a1sbmkauTlxQviX7+5Jea1Oz++eN2oOCxneTxz15/j5t9uiS99/bLomXzmKko2xsr5c2LxYaPjE19MSo10zY+K0tLYtH5TFCf/9KJwxKXxzSNmxJ+TELr9BV+OC4a3jXat1kaf1vfGyxNnx5kDh0Tqf4KLXpkURVm9o3/PWj6UmTYRxkOAAAECBAgQIECAAAECBAgQOAgF0i6orm6YU9A7zht9fEz+v3ExecmoGNk1K+aO/b/4x7T+cdVX3xXttl4w8Y7vx8Orzo6rP31CNEn2VZQsi2fu/Xc8+PTMWFWcFx37joj3ffhDMTQJuvZsaxnDLxwd4yfeEk+9fFH0Oa1N5WWrXns8/t+dj8QrrydhdF5B9DzqrPjoR8+LbgVz4m8/uCUmJSH15pLX40dfnxCnfuTbceHRqd5sijnP3hm33/9SLFy1JQo69Y+zL/5onHdsxz3rirMIHGQC5aVvxcwpk2NZkvumyna8vWRyjHvyteg96vNxeBIwp7LorJxu8Z4PXxLHJ5/Zyq18xwsYU399a/pjMXnV4fGJL50TfVunzukd5yTnz/3uLfH0lPfER0dWfeby2g2PD3z09Oi+tcxIydtVt0v9N7tJq2jToXnk5WRFqlRQu1apz1tBjBjeI559bFIs3pL8i4j8t+KVVxZGl6HnRY89/fjvaMKfCBAgQIAAAQIECBAgQIAAAQIEGkAgI5YPtujZP7rmvBnzX99QSVJRsiHWbkxWNKdWLW/dSorXxrpNW5dqJsHwS7f/Lu55pU1c8qWfxg0//p84rdMbcdvN98TSLXuumlPQJ3p3z443Xl9YeVHJ28kL4/54f+QM/Hj84Be/iZ9e++Fo9+bD8Y/7ZkVpdu9471XXxEdP6xUFHU+Mz37t63HOwFRoFlH00t/jprsXx9BLvhE/v+GH8anTmsYTt/0pXiqq2PPOOJPAQSRQtn5+PPXQA/HAAw/EQ488GTMW5cbIS/47vvCBgZUrmCu37ORfHNTzVVnRwmWR06FPdK0Mqau2ys9c1+xYunDp9n3ZyRdC9dxm+3k7/6HrsOOjcPOMmDa7OEpXz4xZr7eNoUOPrPVcOwkQIECAAAECBAgQIECAAAECBPa/wN7mO/u/R++ghey8ZtGsSVZSNmBjcvXu622Xrp4QT47fFKd96oMxvG8qLG4dp733nHj5W/fF1PmXRJcj9zS/bxoFSa2RLZs2Ruo9i9lNkzD601+JwsO7R/PULQqGx4mDxsTf5y9KqloPjFZtO0SrgqSsR3ZBtO3QKpqlzilfFs8+MT26jvpqnDe8S+XojzrzvXH8+OuT0gRL4/jzu1busxFIJ4G8NiPic9/4wE4vU3xnvc9KyufUtpXu9CVUbcd3ty+v3TFx7OF3xMtTZscxa6bH262PikF99vRzv7u7O06AAAECBAgQIECAAAECBAgQILC3Agc0qF6xYkUsS+rUpopnl5fXnTSNHDlyL8dRGklZ2miat2f/bn/LsoWxYktFzBx3axS9UNVURfnaWF22Jla+tWdhd9VVpUl969TC0KowLaegMDq3nRHjbv9zzF26IjYmxXY3rFoVFe1LKoPs2rbykiWxaNmWeCv7wbjpj9tWjpbEyjVbomTlW8kldQfVzz33XG23tI9AnQKpYvWpl6cWFhZGx467lpbZ089nnTdPDuz9Z7fuu3XuWhilz82LNzdURLutNeDLixfFoiXl0Xlw1Zc6dV+9uyMtY8iw/vHovc/Fw2/NS8p+vGd7qP5OP1f12e6uN44TIECAAAECBAgQIECAAAECBA51gQMWVL/++uuxZs2a6N69e7Rp06by7Y4NtW1ZsShWlDSN4Z1a7dEtK5KXrJXnNI8eRxwZXZruuOTIASOjS989C7srryp/Mwney6PTsA6VpQdSpT9+9/PbI3/o++Lsi86ONgW5Me/x38e9i+ruVqovkVx9WLcjo3+3HSUO+vcfnNSq7lz3hcmRhgwF623IwYwRSH1BtHr16li0aFFs2LAhevXqVTm2/fn5fKd47QafGoMe+HXc95+XouOHTkjqzb8VL9x1T7yaPSQ+P6z1Xty2afIvLpL68cuXJV8s9UxeVlp1aafBx0W3O5O68bO7xgff22P7/d7p56ou273oqFMJECBAgAABAgQIECBAgAABAoeswAEJqlMrNVMh9eDBgxs0oK6atU0x+YnnYlXrETGo39bwO6l9W1G2rR711rkt21HvOa9D8lK1rBnRtueJcdqRVXWi38kTUPTy2Ji2ulO8N3kxW2pbMXNyLCofHld/YNT2F7ut2M3tc5q2j/ZJDd51rY+I006te/X0O+mfawhUF0h9QdSuXbvKL4umT58eqc9matt/n8/qPdjzv+cUHBEf/Nxl8a/b7orvfPnvlRe27n5MfPizH4r+O9Wt3u0dk/rwx5/QJW6+7/r46vhz4xvfubhy9XROi6Ni+IAWsWTZ0Biy05dEu71fHSfUZlt91Xodl9pNgAABAgQIECBAgAABAgQIEDjkBQ5IUJ0q95FaSd0wq6hLYtXKoijKyoriNYtjygtjY9ykvHj3Z8+LHlsXQ3fq2jmyVr4Sk149I848Mi+Wz3o6xr2yPqJb1XznH3ZSHD/giXj0P3dEr8+8PwYclh8r5z0e/75rcZz1mY/VGYJtXrMsipY1j/LiNTFn6tMx9rFZ0e+cL8TxXatWQhe0KIisza/FhMlLo/3AFlH06mPx4PjlUdIyaTdV6STJ0fOb5kfZhpWxYt2W6NAyP7Kye8XIk3vGbx/+d4zt+ck4fXDrKHlrRjz077HR/LTPxbu2vnDxkH9SATSoQOqzmPpMLlmypPK+Dff5jBhwwTfiFxfU391mvS+OH/5ftXOyu8Vl3951Z/POJ8anrjkxitevjS3RLFq22LVmda+zr44bz971PnntTo5v/OrknXbmxeALvxE/O3NtlOclteGTkLpqK42Nmyqi79Ch0a7h/oFH5f/nttkKqut/DhwlQIAAAQIECBAgQIAAAQIECGwTOCBBdaomdWoFZ0NsFWWL4+7fXBd3Jzdr2qowevUfGpdffXYc3aP59tu3PurcOH/4b+OeX18TdyUBcesux0S/Lq1j9fYzWsZZH/tsbPnXP+MP370qylKrK5t1ixPe/bHoVedKzdKYcO/Pkp8kb27SKrr26h9nfPxrceqxXSrLfqS2NkNDSU0QAAAgAElEQVQuiPeP/HPc/qfr4uGk3TbdRsSxA3rE0leK4u0tEe2SMiNdhoyIPmP/Gb+65itx2sd/HB86sUX0PfOKuGzz3+Kem6+JO8tTQVyzGHji++LDh+9mOfb28fgDgb0XSH0mZ8+eXfXsNtDnc+97sWdXNGnRKvb105C6x46tJJZMeTCeXdA1Lv7gvta7rjmGnW1rHrWHAAECBAgQIECAAAECBAgQIECgukBWUVFRRerFavtzS72c7J3Wfd2Xfm3ZuDY2l+ZGq1YFdd6mvHhtrNuYG81bF0RuA62qTN1zfXHd7VaUb4x1yQLvgqRfO39TkNq/dk1p5CeBWrNdF47W2X8HCOyLwLYXBzbG53Nf+r1P15a/Hn/93k/ihZVt48RLvhAfPq3rLp/Dfbr3Thc31v/3Gqr/7kOAAAECBAgQIECAAAECBAgQaCiBVMWNgoKCyM/Pj9zc3Mp/kZ6VVMxIbdt+H5AV1Q01oL29T35Bq9jdqxFTq6Nb7+tSzWodS92zVT33zMouSMLzmqNJ7W/dtuZ+ewgQaECBpNzO+676dlzQJKlVX62USAO24lYECBAgQIAAAQIECBAgQIAAAQJ7IZDRQfVeODiVAIFDSKBF+86H0GgNlQABAgQIECBAgAABAgQIECBw8As0ULGLg3+gekiAAAECBAgQIECAAAECBAgQIECAAAECB6eAoPrgnBe9IkCAAAECBAgQIECAAAECBAgQIECAwCEjIKg+ZKbaQAkQIECAAAECBAgQIECAAAECBAgQIHBwCgiqD8550SsCBAgQIECAAAECBAgQIECAAAECBAgcMgKC6kNmqg2UAAECBAgQIECAAAECBAgQIECAAAECB6eAoPrgnBe9IkCAAAECBAgQIECAAAECBAgQIECAwCEjIKg+ZKbaQAkQIECAAAECBAgQIECAAAECBAgQIHBwCgiqD8550SsCBAgQIECAAAECBAgQIECAAAECBAgcMgKC6kNmqg2UAAECBAgQIECAAAECBAgQIECAAAECB6eAoPrgnBe9IkCAAAECBAgQIECAAAECBAgQIECAwCEjIKg+ZKbaQAkQIECAAAECBAgQIECAAAECBAgQIHBwCuQenN3SKwKZLTBhwoSYOHFi5SCvuOKKPRrsTTfdVHnesGHDYvjw4Xt0TaaetGHp0mjepUumDs+4CBAgQIAAAQIECBAgQIAAAQKHnICg+pCbcgM+GARWrVoV8+bN26uubDu/T58+e3Vdpp086483xcJb/xj5h3WOwvMuiAGf2bOgP9McjIcAAQIECBAgQIAAAQIECBAgkEkCgupMmk1jSQuBVOCcCqq3bXsbWG8Lufv27ZsW423ITr5+35jKkDq1bXmzKJY9eJ+guiGB3YsAAQIECBAgQIAAAQIECBAg0EgCgupGgtfsoSeQKvdx++231xj4tpIeNQ7UsSN1n9RP27ZtK0uAnH322XWcmXm7NxUV7TKoVFitDEjmzbMRESBAgAABAgQIECBAgAABAoeegJcpHnpzbsSNJDB27NgGbTm1sjoVWB9KW4/zL6gxXLWqa5DYQYAAAQIECBAgQIAAAQIECBBIOwErqtNuynQ4HQWql/toqDEcamVAUqH0sb+5KRbff1807dwlaguuG8rWfQgQIECAAAECBAgQIECAAAECBA6cgKC6mnXpqnnx4sszomhtRNvCPjFsxKBo26T2CSlduzgmvTw53li1KZoWdIvBI46NXh2b1n7yTntTbby6uCK6DewXbXJqP/3tN+ZGVmG/OttOXfXW/Bdj/IyFsb64aXTue0wcP7RH5NV+u+17y4tXxtzX3oyWPQdG51ZZ2/dXlK2LWeNfiNeWrI6SnNbRZ/AJMaxf6zrvtv+cimPJzMkxdfbC2FC25+Oqs6MOZIxAqsTHwiSgbta5cwz9znUZMy4DIUCAAAECBAgQIECAAAECBAgQiBBUb38KiuPFv10dX/npg7FsY8X2va26nhrX3PiLuGxEm52el3XJud+Nb/zinnhjzY5zs5t0i4uuujG+9/nhUVDn07Uu7vz+ZfGTaRfE7Q9fGzvftXTtvHjmoTHxn7vGxJPT2sZPHrojRveqWZ2lomxx/OObV8ZP7poWG0p3NNRz2Cfi57/9ZgzrtCOArt6NeXddExd+b3XVvbcG1W8894f4xrd+HS++vmmn05vEsRf8T/zs+o9F7+Y732//ORUveSy+95Vvxx0vL4uSnXpSOOiSuP7/fhyn1WJRfXz+nnkCs/54U+VLE1P1qLdtC/70xzj9nvszb7BGRIAAAQIECBAgQIAAAQIECBA4RAVqpqCHKMRbL/4svv7DByL6XBY33TEuXnrpqfjPb6+I7puejuu/cn28vFMgPfeub8YXfnB3lPa7PP7w73ExfuJLMfY/P41393o77v7l5+OGMW/WqViycmzc/eS6OO7i90e/rV8TbF44Nq6/+gNxyknnxCe/8et4+OU3omRH/l3jXi/84Uvx/dtnx5HnfyfufOLFmPj82Pj1V86KtVP/HF//3/8Xa2pcsW3Hkhhz74TodML749Stoe/GOX+Jr1z5s5iyaUT8z6/vjWdemhLPjf1nfPHczjHpvuvi6z96bpfQeH85lRdPies/9+X497Tm8d6v3xIPPT05Gdf9ccMXT4niV++Ir33hhnhjp1C+ziE6kBECqdXTqYD6kROHxcJb/7hLSJ0aYCq0nnzddzJirAZBgAABAgQIECBAgAABAgQIECBgRfXWZ2BdPPjPMbEke2D8+GfXxdn9q/L7ju/+evxo5ex433fui7sf/EqM+FBhVJTNittueTjWtzg7fpWsXh61dfVyh2GXxI9+tDSmXfrLeHzME/HF0R+K2gpnzH7o/pi25Zj46egjtj9/a2Y+Gv94bFWcdMF/x7dHnxbz//6RuPHx2h/P8uLxccd/pkV+j/+K65LVzgObplY7d4r3XHlDvP3amXHd2H/E2NmXxiVbx7DzXTbMujMenpYdZ/zg3K19K45xf/9zTNnQNa668XfxmdO3rgPveEJc9fPrYu7MT8TYB2+PWdeOjCGV7ew/pyWP3Rp3vbIxRn72+vjeFSO2ljBpHRd/+eexbs55ybjui8cmfzU+OSL9v1u54oorom/fvrVP8B7uTdW8vummm/bw7PQ6bcXECTHpyit22+nlD98fK5KXK3YcNny35zqBAAECBAgQIECAAAECBAgQIEDg4BZI/9SvAXxT4fOkSauiRY9TY0TfXUn6nXpq9Gu6JaaMn1G5srhs44KYvyw3uh59YgyuVmKjYMBR0a9JVmxcviJ2qh6yUw/nx31jXo5OJ14QJ3ffUU6j/UnXxLMvjY2bf3RlnHtiz2hRz5g2JXWppxeVx+GjTtsaUm87uWWceuaxkVM8L6ZMrW1NdVKy4+77Y3GLU+I979pWcGRlvDp/YzRrcUycfGKzXVrNKRgQQ/oVJONdG28l9bpT2/50mvvqvChL6nyPGnVstTrbHWLgkB6RW7oi3nqrnmXm9Zg5lF4CKydO3N7h/MM6R4/LPxOp37Vtr3z/u5EKtm0ECBAgQIAAAQIECBAgQIAAAQLpLaBGdTJ/ZesWx9JV5dHmyG7RsZpI/mHdojDZN/vNRbE6Obdjy/Pitknn1TrrJSuXx6qyiA79+kWHWspEb3jl/nhkRk6868fbVjRX3Sa3VcdoW+sda+4sWbY4lpXkx5HdO9Y42KawW7TLK45FCxYlx3a9Y9nG8XHXg/NjyHnfjqO315zuGl+5bUJ8pcadUqH0iliydFM0S17o2L1d1WD2p9PpX70/Zn61lo5EcSxfujzKmvSNPr1rQa3tEvsyRmBbHepU+Y/atlQJkFRY3fuTn4leF4yu7RT7CBAgQIAAAQIECBAgQIAAAQIE0kDAiupkkso2FFeuls5t0rTaat6IrNwm0SRZJb1p/doorXdBb3E8949/xNSSrnH+xafXuE8kgevTd98Xy1ufE+edufMrFPfuKSneWBxbkkuaNGlS48Kc5q0iP9m7edPWJdA7nVH09Jh45q3ece7ok2rpW41bxZIn/xmPzsuJE0aP3l5L+8A47dqX4iUPxN8eWBqdh18Sp9ZSzqRmz+3JNIHX7xtTY0jbVlqnDqTC6tnXXxdPXnR+Zd3q2s6vcQM7CBAgQIAAAQIECBAgQIAAAQIEDioBQXUyHRVlW6K4nhA6K1lRXZGslN6S/NS1LX3qZ/G9v8yKAe/+7/jwybuW0Uhdk1rRfP+DC+Lo80bHwO0rmuu6W937i/fghYI1u7kyHrp7XDQ9/II4d+jupzwVDn/zO/+Kjd0viS99cvD2zhwIp51HXl48P377zetj4uYj48qvXRo115DX7eRIZgu0GTosBnzmisqyINu2VGCdqltd9MB9mT14oyNAgAABAgQIECBAgAABAgQIZKCA0h8NMKmrZ/0lrvrqrbG++2Vx43cuqvUlikufvCOeWd07rrlwz1Y0N0C3tt+ieMnYeOj5DXHKV0dH591Uzyhd+1L86Mr/iedXHx3f/vX/xqDWu7lgLzq6J047brcyxnz/qvjj86Vx4f/eEJcOqRn+70XTaXfqNddcU2ufG+JFjLXe+CDeuWrSjprV27rZ9thhlX+sDKuTFyouvP++WD1pQqydOukgHomuESBAgAABAgQIECBAgAABAgQI1CUgqE5ksnLyI6nuEZtqLkWudKtIVjHnJyfk59RkTK0+/tpnfxiz8s6KX/72ujh2az3nXc+sWtFcMOBTcebg3a9ortnKjj1Nts5YaoV39a2itLhyV172rmVBpt9/Z7xaflxcdV7P6pfs8vfUCuZff+Ur8fdXC+NzP/9dfPTYXcPh/e+0rTvr4slfXRXfun1+nPDRm+N7H+9fb78dzCyBVPDcYVhVEJ0a2erJNYPqjsOGbx908y5dKgPriNSPjQABAgQIECBAgAABAgQIECBAIB0F9i01TccR19LnnFato3kSQpdsWBMbqx0vL14b65K6IHnNW0ZBtcXFpaufiW9+9uvx9LoR8Z2bfhnn9Kudc/PCB+Le57fEKe+9YLcrmmvp3i67mrZsHS1yi2Pdhpp1qMuS+tXrkxImLVu32n5NRdnUuOOuV6PnWR+I4zvVvTq6omxx/PPaz8Rvni6Jy7792/jqew6r0ZX97VTVYHFMuu3quPq3U2LAhTfEr741Kgpq9MSOTBZIBc+pIHpbGJ0q6VF9G//5HSU/qh/zdwIECBAgQIAAAQIECBAgQIAAgfQTqD1ZTb9x7FOPcwq6RtfOObHq9XlRVK0G9OY35sayZKFyx579dinpUbZxVvz8qv+Oexf0iq/+6nf1lqaYlLwM7vW8U+LC3axo3pNBNOnVNwpzs2LRvMU1QvVF8+bH+tIm0b1X9+23evvl++KpBQXxrotOqyfwXReP/OSL8YN7V8YFX74lvvWhI2rtyv52SjU6/6Fr48ofPRadzvh2/PJH59VaRqXWztmZkQIrJk7YPq7UCxS3banwOvXyRBsBAgQIECBAgAABAgQIECBAgEBmCAiqk3nMyjkyTh3VMza9+VQ8+PjqnWa2OF6679GYX9E+Thh17Pb9qdXHt37t03HLhLbxuRv+FJ85uU2dT0NqRfOYMdOjz5kXxtBay4LUeWmtB5p0PS5G9suN+c/cHi8W7XgDZEXZ/HjkgQlR3uz4GHXitpIdxfHYnY/E+i6j45zt+6rftjiev+mL8bXkRZAnXf6buP7zQyKv+ilb/74/nVJNFL34s/jsNXdFk2Ffj9/d8MHoojBNHTNx6OzesHTp9sH2/uRnarw88YXPfvrQwTBSAgQIECBAgAABAgQIECBAgEAGC4gCKye3SZz+X5+IY+69Nm76xidj4+KPxcheTWPui/+MP/x1ZnQc9N9x6VnbClCsi4evvyJ+9tDS6Dzs/dH0jfvi5j/WfEI6D70kzh/RJlY+d0eMXVAYn7z29HpWNNe8vq49WTkD4oOfGx13funO+OanvhyfvPzd0afVunj+nj/HbeNL4vjLPxWjtpb4KF39eNz/+Fsx/COjY2DT2st+zHvg2vjqjU9FWfsTY0CbV+Mff3y1RtNNC4+PD44enATY+89p0/x/xZVX/iHml3aNCwdmxWP/+FONfmTn9o3Rnzg9OtY4Yke6C6RWRzct7BxNO3eJ1IsSt5X/2PlFiqlSIKn9qW3hrbV86NIdQf8JECBAgAABAgQIECBAgAABAoewgKB66+Q37fGh+O1Nm+O73/11/PmH/x1/TvZn5baKwad8Lq79/pXRc7vUipgybWGUJMeXTPxP/Lzme94q73jWl05OguqceOKeR6O0xwX1rGje+6evz7t/EL9fmx/f/8Xdcf0191XeIKegW5x1+Y3x3WtGbV8RveChO2LCpiPjB6MH1dnI61Onxpupwbz5Qvz+Zy/Uel7Xkd+O0UlQ3To5un+c2kTxG5PjtbcrojwWx903/6jWfuQ0Oz+O/VgSVB8CT+0VV9T+YsC+ffvWapPOO1PlPVKlPFI/a6dOiuUP3185nFSpj53rU28LqVMvTlw9aULluTYCBAgQIECAAAECBAgQIECAAIHMEDgEIr89n6jCYZfHH+67PFYtWxQr1xZH847dokvbptVu0Ce+8Z/p8Y09uG3Jyrvi7ifXJaucR0dSrWMPt5bxseRFgh+r9+wmcdylP4z7Lv12LHtjUWVd6sJu3aNFk50vWhJj7p0QHYZ/JU6p4yWPqbPP/N+ktMn/1ttYjYMN7ZRqoM3pP43p839ao61DdUcmBtJ1zWVBsoq607nnx+aipbuEzzuH1KnjNgIECBAgQIAAAQIECBAgQIAAgcwV2OP4NHMJao6sbWH3aFtYc//e7snKPy6u/dt/okPfgXt76R6enwTUyUsea99axXu/+a94b8e++61URkM51d7/zN27atWqmDdv3j4NcP78+ft0/cF0cWql9NDvXFfZpVRN6o1JYJ36nSr7UT28Ppj6rS8ECBAgQIAAAQIECBAgQIAAAQINJyCobjjLGnfKbdUtBg3uVmP/gdnRMnoPPurANKWV3Qq0a9cu2rZtG6mQ+vbbb9/t+XtzQiatvk6F1lX1qSN6XTC6kmHnFyrujYtzCRAgQIAAAQIECBAgQIAAAQIE0kcgO326qqcE0lcgFVKfffbZlWF1Q22pe33gAx9oqNsdtPfZFl4ftB3UMQIECBAgQIAAAQIECBAgQIAAgX0WsKJ6nwndgMCeCQwfPjxSq5/ffvvtPbtgN2dl0krq3QzVYQIECBAgQIAAAQIECBAgQIAAgQwXEFRn+AQb3sElkFoF3ZCrqg+u0ekNAQIECBAgQIAAAQIECBAgQIAAgXcmIKh+Z26uIkCgEQWadu5S2XqbY4c3Yi80TYAAAQIECBAgQIAAAQIECBAg0FACguqGknQfAgQOmMDQ71x3wNrSEAECBAgQIECAAAECBAgQIECAwP4X8DLF/W+sBQIECBAgQIAAAQIECBAgQIAAAQIECBCoR0BQXQ+OQwQIECBAgAABAgQIECBAgAABAgQIECCw/wUE1fvfWAsECBAgQIAAAQIECBAgQIAAAQIECBAgUI+AoLoeHIcIECBAgAABAgQIECBAgAABAgQIECBAYP8LCKr3v7EWCBAgQIAAAQIECBAgQIAAAQIECBAgQKAeAUF1PTgOESBAgAABAgQIECBAgAABAgQIECBAgMD+FxBU739jLRAgQIAAAQIECBAgQIAAAQIECBAgQIBAPQKC6npwHCJAgAABAgQIECBAgAABAgQIECBAgACB/S8gqN7/xlogQIAAAQIECBAgQIAAAQIECBAgQIAAgXoEBNX14DhEgAABAgQIECBAgAABAgQIECBAgAABAvtfQFC9/421QIAAAQIECBAgQIAAAQIECBAgQIAAAQL1CAiq68FxiAABAgQIECBAgAABAgQIECBAgAABAgT2v8ABCaqzs7OjvLx8/49GCwQI7LFA6jOZ+mz6fO4x2R6fuM12jy9wIgECBAgQIECAAAECBAgQIEDgEBc4IEF1ixYtYvXq1Yc4teETOLgEUp/J1GfT57Ph52WbbcPf2R0JECBAgAABAgQIECBAgAABApkpcECC6sLCwli0aJFV1Zn5DBlVGgqkVvymPpOpz6bPZ8NO4M62DXtndyNAgAABAgQIECBAgAABAgQIZK5A7oEYWseOHWPDhg0xffr06N69e7Rp06ay3ICNAIEDK5AKUVOrfVMhdevWrSP12UxtPp/7Pg912e77nd2BAAECBAgQIECAAAECBAgQIJD5AllFRUUVqRWVB2JbsWJFLFu2LNavX2919YEA1waBagKpL4hSpT5Sn/ltIfW2U3w+9+1xqc923+7sagIECBAgQIAAAQIECBAgQIBAegukMuGCgoLIz8+P3NzcykXMWVlZlYPa9vuArKjexpgKxqqHY+lNrPcEMkfA5zNz5tJICBAgQIAAAQIECBAgQIAAAQLpJqD+RrrNmP4SIECAAAECBAgQIECAAAECBAgQIEAgwwQE1Rk2oYZDgAABAgQIECBAgAABAgQIECBAgACBdBMQVKfbjOkvAQIECBAgQIAAAQIECBAgQIAAAQIEMkxAUJ1hE2o4BAgQIECAAAECBAgQIECAAAECBAgQSDcBQXW6zZj+EiBAgAABAgQIECBAgAABAgQIECBAIMMEBNUZNqGGQ4AAAQIECBAgQIAAAQIECBAgQIAAgXQTEFSn24zpLwECBAgQIECAAAECBAgQIECAAAECBDJMQFCdYRNqOAQIECBAgAABAgQIECBAgAABAgQIEEg3AUF1us2Y/hIgQIAAAQIECBAgQIAAAQIECBAgQCDDBATVGTahhkOAAAECBAgQIECAAAECBAgQIECAAIF0ExBUp9uM6S8BAgQIECBAgAABAgQIECBAgAABAgQyTEBQnWETajgECBAgQIAAAQIECBAgQIAAAQIECBBINwFBdbrNmP4SIECAAAECBAgQIECAAAECBAgQIEAgwwQE1Rk2oYZDgAABAgQIECBAgAABAgQIECBAgACBdBMQVKfbjOkvAQIECBAgQIAAAQIECBAgQIAAAQIEMkxAUJ1hE2o4BAgQIECAAAECBAgQIECAAAECBAgQSDcBQXW6zZj+EiBAgAABAgQIECBAgAABAgQIECBAIMMEBNUZNqGGQ4AAAQIECBAgQIAAAQIECBAgQIAAgXQTEFSn24zpLwECBAgQIECAAAECBAgQIECAAAECBDJMQFCdYRNqOAQIECBAgAABAgQIECBAgAABAgQIEEg3AUF1us2Y/hIgQIAAAQIECBAgQIAAAQIECBAgQCDDBATVGTahhkOAAAECBAgQIECAAAECBAgQIECAAIF0ExBUp9uM6S8BAgQIECBAgAABAgQIECBAgAABAgQyTEBQnWETajgECBAgQIAAAQIECBAgQIAAAQIECBBINwFBdbrNmP4SIECAAAECBAgQIECAAAECBAgQIEAgwwQE1Rk2oYZDgAABAgQIECBAgAABAgQIECBAgACBdBMQVKfbjOkvAQIECBAgQIAAAQIECBAgQIAAAQIEMkxAUJ1hE2o4BAgQIECAAAECBAgQIECAAAECBAgQSDcBQXW6zZj+EiBAgAABAgQIECBAgAABAgQIECBAIMMEBNUZNqGGQ4AAAQIECBAgQIAAAQIECBAgQIAAgXQTEFSn24zpLwECBAgQIECAAAECBAgQIECAAAECBDJMQFCdYRNqOAQIECBAgAABAgQIECBAgAABAgQIEEg3AUF1us2Y/hIgQIAAAQIECBAgQIAAAQIECBAgQCDDBATVGTahhkOAAAECBAgQIECAAAECBAgQIECAAIF0ExBUp9uM6S8BAgQIECBAgAABAgQIECBAgAABAgQyTEBQnWETajgECBAgQIAAAQIECBAgQIAAAQIECBBINwFBdbrNmP4SIECAAAECBAgQIECAAAECBAgQIEAgwwQE1Rk2oYZDgAABAgQIECBAgAABAgQIECBAgACBdBMQVKfbjOkvAQIECBAgQIAAAQIECBAgQIAAAQIEMkxAUJ1hE2o4BAgQIECAAAECBAgQIECAAAECBAgQSDcBQXW6zZj+EiBAgAABAgQIECBAgAABAgQIECBAIMMEBNUZNqGGQ4AAAQIECBAgQIAAAQIECBAgQIAAgXQTEFSn24zpLwECBAgQIECAAAECBAgQIECAAAECBDJMQFCdYRNqOAQIECBAgAABAgQIECBAgAABAgQIEEg3AUF1us2Y/hIgQIAAAQIECBAgQIAAAQIECBAgQCDDBATVGTahhkOAAAECBAgQIECAAAECBAgQIECAAIF0ExBUp9uM6S8BAgQIECBAgAABAgQIECBAgAABAgQyTEBQnWETajgECBAgQIAAAQIECBAgQIAAAQIECBBINwFBdbrNmP4SIECAAAECBAgQIECAAAECBAgQIEAgwwQE1Rk2oYZDgAABAgQIECBAgAABAgQIECBAgACBdBMQVKfbjOkvAQIECBAgQIAAAQIECBAgQIAAAQIEMkxAUJ1hE2o4BAgQIECAAAECBAgQIECAAAECBAgQSDcBQXW6zZj+EiBAgAABAgQIECBAgAABAgQIECBAIMMEBNUZNqGGQ4AAAQIECBAgQIAAAQIECBAgQIAAgXQTEFSn24zpLwECBAgQIECAAAECBAgQIECAAAECBDJMQFCdYRNqOAQIECBAgAABAgQIECBAgAABAgQIEEg3AUF1us2Y/hIgQIAAAQIECBAgQIAAAQIECBAgQCDDBATVGTahhkOAAAECBAgQIECAAAECBAgQIECAAIF0ExBUp9uM6S8BAgQIECBAgAABAgQIECBAgAABAgQyTEBQnWETajgECBAgQIAAAQIECBAgQIAAAQIECBBINwFBdbrNmP4SIECAAAECBAgQIECAAAECBAgQIEAgwwQE1Rk2oYZDgAABAgQIECBAgAABAgQIECBAgMomYpoAACAASURBVACBdBMQVKfbjOkvAQIECBAgQIAAAQIECBAgQIAAAQIEMkxAUJ1hE2o4BAgQIECAAAECBAgQIECAAAECBAgQSDcBQXW6zZj+EiBAgAABAgQIECBAgAABAgQIECBAIMMEBNUZNqGGQ4AAAQIECBAgQIAAAQIECBAgQIAAgXQTEFSn24zpLwECBAgQIECAAAECBAgQIECAAAECBDJMQFCdYRNqOAQIECBAgAABAgQIECBAgAABAgQIEEg3AUF1us2Y/hIgQIAAAQIECBAgQIAAAQIECBAgQCDDBATVGTahhkOAAAECBAgQIECAAAECBAgQIECAAIF0ExBUp9uM6S8BAgQIECBAgAABAgQIECBAgAABAgQyTEBQnWETajgECBAgQIAAAQIECBAgQIAAAQIECBBINwFBdbrNmP4SIECAAAECBAgQIECAAAECBAgQIEAgwwQE1Rk2oYZDgAABAgQIECBAgAABAgQIECBAgACBdBMQVKfbjOkvAQIECBAgQIAAAQIECBAgQIAAAQIEMkxAUJ1hE2o4BAgQIECAAAECBAgQIECAAAECBAgQSDcBQXW6zZj+EiBAgAABAgQIECBAgAABAgQIECBAIMMEBNUZNqGGQ4AAAQIECBAgQIAAAQIECBAgQIAAgXQTEFSn24zpLwECBAgQIECAAAECBAgQIECAAAECBDJMQFCdYRNqOAQIECBAgAABAgQIECBAgAABAgQIEEg3AUF1us2Y/hIgQIAAAQIECBAgQIAAAQIECBAgQCDDBATVGTahhkOAAAECBAgQIECAAAECBAgQIECAAIF0ExBUp9uM6S8BAgQIECBAgAABAgQIECBAgAABAgQyTEBQnWETajgECBAgQIAAAQIECBAgQIAAAQIECBBINwFBdbrNmP4SIECAAAECBAgQIECAAAECBAgQIEAgwwQE1Rk2oYZDgAABAgQIECBAgAABAgQIECBAgACBdBMQVKfbjOkvAQIECBAgQIAAAQIECBAgQIAAAQIEMkxAUJ1hE2o4BAgQIECAAAECBAgQIECAAAECBAgQSDcBQXW6zZj+EiBAgAABAgQIECBAgAABAgQIECBAIMMEBNUZNqGGQ4AAAQIECBAgQIAAAQIECBAgQIAAgXQTyE23DuvvwSvwxLRH4uGX7455i2dGaWnJwdvRRuxZbm5e9O02MM4dcXGcMeRdjdgTTRMgQIAAAQIECBAgQIAAAQIECBA4eAQE1QfPXKR1T25++FfxyoLJcelpl8fwfidEfl6TtB7P/ur8lpLimDD3xfj3uFtj3tJX49Pnfml/NeW+BAgQIECAAAECBAgQIECAAAECBNJGQOmPtJmqg7ejqZXUqZD6Z5+6KU4acKqQup6pSgX4KaOUVcosZWcjQIAAAQIECBAgQIAAAQIECBAgcKgLCKoP9SegAcafKveRWkltFfWeY6asUmYpOxsBAgQIECBAgAABAgQIECBAgACBQ11AUH2oPwENMP5UTepUuQ/b3gmkzFJ2NgIECBAgQIAAAQIECBAgQIAAAQKHuoCg+lB/Ahpg/KkXJ1pNvfeQKTMvndx7N1cQIECAAAECBAgQIECAAAECBAhknoCgOvPm1IgIECBAgAABAgQIECBAgAABAgQIECCQVgKC6rSaLp0lQIAAAQIECBAgQIAAAQIECBAgQIBA5gkIqjNvTo2IAAECBAgQIECAAAECBAgQIECAAAECaSUgqE6r6dJZAgQIECBAgAABAgQIECBAgAABAgQIZJ6AoDrz5tSICBAgQIAAAQIECBAgQIAAAQIECBAgkFYCguq0mi6dJUCAAAECBAgQIECAAAECBAgQIECAQOYJCKozb06NiAABAgQIECBAgAABAgQIECBAgAABAmklIKhOq+nSWQIECBAgQIAAAQIECBAgQIAAAQIECGSegKA68+bUiAgQIECAAAECBAgQIECAAAECBAgQIJBWArlp1VudPSQEli8ZF8/OnhZL1xZHk2bto3fP0+OkI3pHQZ1fq2yJuTPGxJRVFdHz8NEx4rAmOzltiVnTx8SMNVuibeE5cWa/DjUMS9dOjEemzY7NWYUxYvgZ0aPJ0nj2xXGxrLTGqZU7srafV/txewkQIECAAAECBAgQIECAAAECBAgQ2DsBQfXeeTl7fwqUL41Hxnwtbpo4P8p2bufZm+PvhRfFVR+5Joa1zqrRg/LNL8Qt994YszZVRJfF7WLQB8+MZtvPyo8ty++N28bNjRaFG+Oovp+Kwmq3eG3ib+OPT8yKgg4fieNOOCMqSufGw4/+JqaXVNRoK7UjK/uYaD/o9CTQrtmXWi+wkwABAgQIECBAgAABAgQIECBAgACBegUE1fXyOHggBea//NPKkDq74Jj4wHs+FyN7tI/SNTNizCM3xhOL7ok/3H1E3PDxi6NVtU4tnXF/vJaE1KntzTkPx/QNZ8RxzXeEyAOGnB0dn5kbK5ePi0krPxnnddw5YH4jnpkxp/LaI446N7rnRBJUb2ugMM4+96oY0a7pri1mt4i+O91/14P+RoAAAQIECBAgQIAAAQIECBAgQIDA3goIqvdWzPn7SWB9TJ/zSuVK6iHHXx0fHNK3qp02XeMLl66KV3/xyyha8GhMWnNRnLbLquq346mpk6I8uzB6dCqJhcteinFTV8ZxJ3Xc3s/8jmfFyM43xz2L58WkGYvjvNO6bz+2ZcVT8fLK0mSVdN8YeXSfXcaWlZ0X3XqfHsd3sXJ6P0262xIgQIAAAQIECBAgQIAAAQIECBCoFKiz6i8fAgdWID+a5OdXNrly+euxdqfGc1u/J751xV/j55+9NoZWW8lc8tbYeHLhxmja5qy44twzo2VWSUyb+nC8tUvnu8QpQwZFslg6Zs8et8uxuTOfihVJOt6my7ti2C4rrQ/s6LVGgAABAgQIECBAgAABAgQIECBA4FAWEFQfyrN/UI09P0467rxol6TJi2ZcG1/5/Q/ijinTYsWWVCdbRJfOR0S/zl2jdbV/AzBzyv2VQXPfo86IQb3PjqFtcmL9skfihaW71pfuOeic6JaXFeuWPhnTkpcuVm1L46VXX0v+mBcDB58b7at5VJSXxJJFz8fkORN2/MybFks21F67+qDi1BkCBAgQIECAAAECBAgQIECAAAECaSSg9EcaTVamd7VVryvj+svy46dj/hnzlz4Qt935QPzj3rYxYMD74uLTPxIjOjbZlaD8lXhs6oKkbEf3OHHQkcm/D8iKMwf3jqefnhtPJyH3+V2O3n5+bstT4+Rev4m/z5kb42esjNNHdYySVc/E+KLSyM49LkYO7lAL77J49P6r49FdjjSPiy57NC4foBxILWB2ESBAgAABAgQIECBAgAABAgQIEHhHAoLqd8Tmov0l0PmIz8SNX74kps0YE0++8mSMn/tazJh+S8ya9Uhc8P7fxScG7giU18x/IF5eVRbNC8+J4Z2rguOBg0+Jds/NjddnPByzzz46+udt62m7OHXIifGvOY/H7NeeiLWjLo0VM8fF0mQ1dqf+58axLWsLntvEsBM+EgNb7jza/Di8sLZz95eI+xIgQIAAAQIECBAgQIAAAQIECBDIfAFBdebPcdqNMCu3XRx99Mcrf8o2zol7H/hu/H3a/Hjovt/HyMO/tTV83hIvTHkqNiWja7FlUvzl39+qGmfWqihN/lS8dmw8/dqXov9RTbePv8ORp8URzZ6I2YvGxbQ1o2LujBnJseYx9OiTolktSlnZLWPI0MviIi9TrEXHLgIECBAgQIAAAQIECBAgQIAAAQINJ6BGdcNZutM+CJStfypu/NOn4+pbfhqTd6oBnVNweFx0wYeiV05WlGycHXPfrqoPXbbx6Xjy1dWVLa5/e3K8MOOxqp9XJsbaZJV0xIaYOPXJyiB725bd9JQ47Yg2UV46I54af1+8tLQk8gqOj1OOaL3TWf5IgAABAgQIECBAgAABAgQIECBAgMCBFrCi+kCLa69WgZyC9lGxZlbMWTU7Hpl0SQw9uc/28za+XRSrIhVQt4w2BVW7l864P+YUV0Srbp+K73/oomi1011LVt0V37z1z/HmnIdj0rpzY+T2sh75ceKQU+MvU++Jl5/9a1SUR/Tq/+7oX630da0dtJMAAQIECBAgQIAAAQIECBAgQIAAgf0mIKjeb7RuvFcC2YPiQ+eeE1NufyheePTj8fk5p8agwzpE2eY3YsrsF+PtZJV096Mu2VpLemk8PnlSlEVeDDpqdPRq1X7Xplq9J0Z1uS3uXjQ5npq6OEaO6r79eKs+Z8dRLcfEhHVJSh1t4rghJyV3qX2rKF8WD917ZbxUPcjO7hkXXvi1OKGtWtW1y9lLgAABAgQIECBAgAABAgQIECBAYO8EBNV75+Xs/SjQZeC34+cfPyr+8vi/YuIbj8UjC6oay23aI0446TPx6bPPrKwlvWXFY/FsUrYjO/eYOH7wjpcr7uhalzh58NAYs2h8zJj6SCwb+anY9v7DrNxj411HdYsJLy6M/9/evUBXUtd3AP/dvDab3awLC7i8Kgj44CGgrIBFBLSCHBRBpT6OeKAVPGjR0pYe6imtWotaFYtQagUXBVtQFJWXj6ogD3mJdVW0uIJYYF9Z9plssknudOYmd5PNJrvJ+AcC93PPydnk3vn9Zubz/8+c7PdO5rbPfW28Ys+t3f2mP5Y+fn8sHbPPlaY1ccTGJxFCawIECBAgQIAAAQIECBAgQIAAAQINJlBZsmRJNn/+/AbbbbubUuDEvz88vvmRH6dsGdWN62LV+rXR3zQn5s3tnPCq56QrfRqaPRl2T8NuWCUBAgQIECBAgAABAgQIECBAgACBCQWWLl0aHR0d0dbWFi0tLdHU1BSVytDdCur/uqJ6Qj4vPJ0CTW2dMW/7zqdzE6ybAAECBAgQIECAAAECBAgQIECAAIGnSGBr9z14ijbBaggQIECAAAECBAgQIECAAAECBAgQIECgkQUE1Y08+vadAAECBAgQIECAAAECBAgQIECAAAEC00BAUD0NBsEmECBAgAABAgQIECBAgAABAgQIECBAoJEFBNWNPPr2nQABAgQIECBAgAABAgQIECBAgAABAtNAQFA9DQbBJhAgQIAAAQIECBAgQIAAAQIECBAgQKCRBQTVjTz69p0AAQIECBAgQIAAAQIECBAgQIAAAQLTQEBQPQ0GwSYQIECAAAECBAgQIECAAAECBAgQIECgkQUE1Y08+vadAAECBAgQIECAAAECBAgQIECAAAEC00BAUD0NBsEmECBAgAABAgQIECBAgAABAgQIECBAoJEFBNWNPPr2nQABAgQIECBAgAABAgQIECBAgAABAtNAQFA9DQbBJhAgQIAAAQIECBAgQIAAAQIECBAgQKCRBQTVjTz69p0AAQIECBAgQIAAAQIECBAgQIAAAQLTQEBQPQ0GwSYQIECAAAECBAgQIECAAAECBAgQIECgkQUE1Y08+on2vaWlNTb29yXq1jhtCrPCzoMAAQIECBAgQIAAAQIECBAgQIBAowsIqht9BiTY/7122zfuW3xXgk6N1aIwK+w8CBAgQIAAAQIECBAgQIAAAQIECDS6gKC60WdAgv0/bsFJcc0tC11VPQXL4mrqwqyw8yBAgAABAgQIECBAgAABAgQIECDQ6AKC6kafAQn2/5iXHBv773lw/M1lZ8adv7pVYL0V0yKgLowKq8KssPMgQIAAAQIECBAgQIAAAQIECBAg0OgClSVLlmTz589vdAf7n0DgB4u+E9++97r47aMPxMBAf4KOz74WxT2pi9t9FFdSC6mffeNrjwgQIECAAAECBAgQIECAAAECBLYUWLp0aXR0dERbW1v+mW0t0dTUFJVKpbbgpn8F1VvCeYYAAQIECBAgQIAAAQIECBAgQIAAAQIE0ghMJqh264801roQIECAAAECBAgQIECAAAECBAgQIECAQEkBQXVJOGUECBAgQIAAAQIECBAgQIAAAQIECBAgkEZAUJ3GURcCBAgQIECAAAECBAgQIECAAAECBAgQKCkgqC4Jp4wAAQIECBAgQIAAAQIECBAgQIAAAQIE0ggIqtM46kKAAAECBAgQIECAAAECBAgQIECAAAECJQUE1SXhlBEgQIAAAQIECBAgQIAAAQIECBAgQIBAGgFBdRpHXQgQIECAAAECBAgQIECAAAECBAgQIECgpICguiScMgIECBAgQIAAAQIECBAgQIAAAQIECBBIIyCoTuOoCwECBAgQIECAAAECBAgQIECAAAECBAiUFBBUl4RTRoAAAQIECBAgQIAAAQIECBAgQIAAAQJpBATVaRx1IUCAAAECBAgQIECAAAECBAgQIECAAIGSAoLqknDKCBAgQIAAAQIECBAgQIAAAQIECBAgQCCNgKA6jaMuBAgQIECAAAECBAgQIECAAAECBAgQIFBSQFBdEk4ZAQIECBAgQIAAAQIECBAgQIAAAQIECKQREFSncdSFAAECBAgQIECAAAECBAgQIECAAAECBEoKCKpLwikjQIAAAQIECBAgQIAAAQIECBAgQIAAgTQCguo0jroQIECAAAECBAgQIECAAAECBAgQIECAQEkBQXVJOGUECBAgQIAAAQIECBAgQIAAAQIECBAgkEZAUJ3GURcCBAgQIECAAAECBAgQIECAAAECBAgQKCkgqC4Jp4wAAQIECBAgQIAAAQIECBAgQIAAAQIE0ggIqtM46kKAAAECBAgQIECAAAECBAgQIECAAAECJQUE1SXhlBEgQIAAAQIECBAgQIAAAQIECBAgQIBAGgFBdRpHXQgQIECAAAECBAgQIECAAAECBAgQIECgpICguiScMgIECBAgQIAAAQIECBAgQIAAAQIECBBIIyCoTuOoCwECBAgQIECAAAECBAgQIECAAAECBAiUFBBUl4RTRoAAAQIECBAgQIAAAQIECBAgQIAAAQJpBATVaRx1IUCAAAECBAgQIECAAAECBAgQIECAAIGSAoLqknDKCBAgQIAAAQIECBAgQIAAAQIECBAgQCCNgKA6jaMuBAgQIECAAAECBAgQIECAAAECBAgQIFBSQFBdEk4ZAQIECBAgQIAAAQIECBAgQIAAAQIECKQREFSncdSFAAECBAgQIECAAAECBAgQIECAAAECBEoKCKpLwikjQIAAAQIECBAgQIAAAQIECBAgQIAAgTQCguo0jroQIECAAAECBAgQIECAAAECBAgQIECAQEkBQXVJOGUECBAgQIAAAQIECBAgQIAAAQIECBAgkEZAUJ3GURcCBAgQIECAAAECBAgQIECAAAECBAgQKCkgqC4Jp4wAAQIECBAgQIAAAQIECBAgQIAAAQIE0ggIqtM46kKAAAECBAgQIECAAAECBAgQIECAAAECJQUE1SXhlBEgQIAAAQIECBAgQIAAAQIECBAgQIBAGgFBdRpHXQgQIECAAAECBAgQIECAAAECBAgQIECgpICguiScMgIECBAgQIAAAQIECBAgQIAAAQIECBBIIyCoTuOoCwECBAgQIECAAAECBAgQIECAAAECBAiUFBBUl4RTRoAAAQIECBAgQIAAAQIECBAgQIAAAQJpBATVaRx1IUCAAAECBAgQIECAAAECBAgQIECAAIGSAoLqknDKCBAgQIAAAQIECBAgQIAAAQIECBAgQCCNgKA6jaMuBAgQIECAAAECBAgQIECAAAECBAgQIFBSQFBdEk4ZAQIECBAgQIAAAQIECBAgQIAAAQIECKQREFSncdSFAAECBAgQIECAAAECBAgQIECAAAECBEoKCKpLwikjQIAAAQIECBAgQIAAAQIECBAgQIAAgTQCguo0jroQIECAAAECBAgQIECAAAECBAgQIECAQEkBQXVJOGUECBAgQIAAAQIECBAgQIAAAQIECBAgkEZAUJ3GURcCBAgQIECAAAECBAgQIECAAAECBAgQKCkgqC4Jp4wAAQIECBAgQIAAAQIECBAgQIAAAQIE0ggIqtM46kKAAAECBAgQIECAAAECBAgQIECAAAECJQUE1SXhlBEgQIAAAQIECBAgQIAAAQIECBAgQIBAGgFBdRpHXQgQIECAAAECBAgQIECAAAECBAgQIECgpICguiScMgIECBAgQIAAAQIECBAgQIAAAQIECBBIIyCoTuOoCwECBAgQIECAAAECBAgQIECAAAECBAiUFBBUl4RTRoAAAQIECBAgQIAAAQIECBAgQIAAAQJpBATVaRx1IUCAAAECBAgQIECAAAECBAgQIECAAIGSAoLqknDKCBAgQIAAAQIECBAgQIAAAQIECBAgQCCNgKA6jaMuBAgQIECAAAECBAgQIECAAAECBAgQIFBSQFBdEk4ZAQIECBAgQIAAAQIECBAgQIAAAQIECKQREFSncdSFAAECBAgQIECAAAECBAgQIECAAAECBEoKCKpLwikjQIAAAQIECBAgQIAAAQIECBAgQIAAgTQCguo0jroQIECAAAECBAgQIECAAAECBAgQIECAQEkBQXVJOGUECBAgQIAAAQIECBAgQIAAAQIECBAgkEZAUJ3GURcCBAgQIECAAAECBAgQIECAAAECBAgQKCkgqC4Jp4wAAQIECBAgQIAAAQIECBAgQIAAAQIE0ggIqtM46kKAAAECBAgQIECAAAECBAgQIECAAAECJQUE1SXhlBEgQIAAAQIECBAgQIAAAQIECBAgQIBAGgFBdRpHXQgQIECAAAECBAgQIECAAAECBAgQIECgpICguiScMgIECBAgQIAAAQIECBAgQIAAAQIECBBIIyCoTuOoCwECBAgQIECAAAECBAgQIECAAAECBAiUFBBUl4RTRoAAAQIECBAgQIAAAQIECBAgQIAAAQJpBATVaRx1IUCAAAECBAgQIECAAAECBAgQIECAAIGSAoLqknDKCBAgQIAAAQIECBAgQIAAAQIECBAgQCCNgKA6jaMuBAgQIECAAAECBAgQIECAAAECBAgQIFBSQFBdEk4ZAQIECBAgQIAAAQIECBAgQIAAAQIECKQREFSncdSFAAECBAgQIECAAAECBAgQIECAAAECBEoKCKpLwikjQIAAAQIECBAgQIAAAQIECBAgQIAAgTQCguo0jroQIECAAAECBAgQIECAAAECBAgQIECAQEkBQXVJOGUECBAgQIAAAQIECBAgQIAAAQIECBAgkEZAUJ3GURcCBAgQIECAAAECBAgQIECAAAECBAgQKCkgqC4Jp4wAAQIECBAgQIAAAQIECBAgQIAAAQIE0ggIqtM46kKAAAECBAgQIECAAAECBAgQIECAAAECJQUE1SXhlBEgQIAAAQIECBAgQIAAAQIECBAgQIBAGgFBdRpHXQgQIECAAAECBAgQIECAAAECBAgQIECgpICguiScMgIECBAgQIAAAQIECBAgQIAAAQIECBBIIyCoTuOoCwECBAgQIECAAAECBAgQIECAAAECBAiUFBBUl4RTRoAAAQIECBAgQIAAAQIECBAgQIAAAQJpBATVaRx1IUCAAAECBAgQIECAAAECBAgQIECAAIGSAoLqknDKCBAgQIAAAQIECBAgQIAAAQIECBAgQCCNgKA6jaMuBAgQIECAAAECBAgQIECAAAECBAgQIFBSQFBdEk4ZAQIECBAgQIAAAQIECBAgQIAAAQIECKQREFSncdSFAAECBAgQIECAAAECBAgQIECAAAECBEoKCKpLwikjQIAAAQIECBAgQIAAAQIECBAgQIAAgTQCguo0jroQIECAAAECBAgQIECAAAECBAgQIECAQEkBQXVJOGUECBAgQIAAAQIECBAgQIAAAQIECBAgkEZAUJ3GURcCBAgQIECAAAECBAgQIECAAAECBAgQKCkgqC4Jp4wAAQIECBAgQIAAAQIECBAgQIAAAQIE0ggIqtM46kKAAAECBAgQIECAAAECBAgQIECAAAECJQUE1SXhlBEgQIAAAQIECBAgQIAAAQIECBAgQIDA5AUqlcqECwuqJ6TxAgECBAgQIECAAAECBAgQIECAAAECBAg8FQKC6qdC2ToIECBAgAABAgQIECBAgAABAgQIECDQwAJbu5q6YBFUN/DksOsECBAgQIAAAQIECBAgQIAAAQIECBB4ugRGh9dNxQ9Zlj1d22K9BAgQIECAAAECBAgQIECAAAECBAgQIPAsFSiy59GB9ERXVteC6t7e3mcpg90iQIAAAQIECBAgQIAAAQIECBAgQIAAgadLoMieiwy6/jXRdtRu/bF27dqJXvc8AQIECBAgQIAAAQIECBAgQIAAAQIECBAoJVDPnie6krretCl/RE9PTyxbtqzUihQRIECAAAECBAgQIECAAAECBAgQIECAAIGxAkXmXGTPRQZdfG3tyuqW/BGtra21oPrxxx+PXXfdNebNmxfNzc1j+/qZAAECBAgQIECAAAECBAgQIECAAAECBAhMKDA4OBgrV66Mxx57rJYxb7/99lFk0EVIXYTV9cfYK6xb2tvbax+mWLywevXq+PWvfx3r1q2L/v7+Wo0PWpzQ3AsECBAgQIAAAQIECBAgQIAAAQIECBAgkAvUg+fioujOzs7axdBz586Njo6OKDLoIrTe2n2qW4oXi4WKr6KoSLXnzJkT1WoVMAECBAgQIECAAAECBAgQIECAAAECBAgQmLRAkS/PmDFjUzg9XkA99mrqonlLsWBbW1ttRcX3Rbo9MDBQC6rrV1O7qnrS42BBAgQIECBAgAABAgQIECBAgAABAgQINJRAPXiu396juNVH8VUE1kX2XOTO9XtUTwRTye8ZkufQWRT3DikC6npIPd4V1QLriRg9T4AAAQIECBAg8GwSGOyOeOT31WidV4ndd6o8m3bNvhAgQIAAAQIECBBIJjDeldH1D06sh9Vjr6ger6bYoEoeSGfFN/UrqOsBdRFKC6aTjZlGBAgQIEDgSREYXF+Nnz9Yjb6BbbeflQdu++/VHNlAD5+cqgAACu9JREFUNW77Vn+0v7Q1Xr7HyAdZbLtDxIaHNsZR+/XG4ImtcefVM2Pob7ImUzm0zPJf9setiyOOz+tnTb7MktNOIIvPvHldnHdjJa75zex4w27jB7n1+RJvao3brpr6fCm729lAFg8sGozKvKbY93njz/F19/bFoUf2xfPe2x43f3L0TM7iWx/uiXMuGIzH8g1o3645fvTIrDigtezWTKZucp6T6TR6mbWPDMZDK7PY6QXNscvs8cdo3WOD8dtlWeyYnxt2fc74y0x1vdN/+SfHO/V+P/rLgXgsf8Nkokf+h7Cx90taomNgMN65c3fcuWdL/OjujpjgcJyozVaf7185GNd/ZzBe+vrW2KOzUebHVkm8SIAAAQIECGxDYPQ9qOtXUG/tAxRHt6vdo7oIpOsFxb8C6m2Ie5kAAQIECEwTge77u+OEY3tj5SS250WvmxF3X98ea29aHye9oy/2eH0lfnzdrCkFxgMtefiXr6vS1BzFB2RMLbsbjIvO2hCfuqcpLr59RrznsOZJbLVF/hCB7q6BWNFbiV12y2/19oc02qK2Gs21zCr/rJP8z/laW8cPg+vzJUrNly1WOuknHrlpXRz7po2R7dMWP17UGXuNM1FbW/prc7mpuak2l+uPh69ZF2flIXXzPi3xsXNaY7e5LbFnx1Tn+qQ3dXjByXlOrWsWt16yPk75bBYfumlOfPC1LeOUZ3HXJd3xhgsH42+/8pz46MnjLTNO2TP+qSfDOy1KlofPl57eE59eNHHfts6WuG35zMjfc8z/L1d8eFFztBTn5RJ58vjniiy+96nueEc+P972ida4Mj8ePAgQIECAAAECkxUYHVgXNRNdRT26X+230fqCRUA9tslkV245AgQIECBA4KkX6Dy4PRZ+rTk21v4+aujxvU90x+fyMPgvLmyPV+0+kli07Zh/8nKeZrS/sj3Oe1/E3ONm1H6eyqOpqTIUVOdvdNf+nGsqxXnlKe+fGf33R7zmgJa8vkSaMqX1NfrC1fjcaWvi3Jtb4sZlc+N1O6b1zqdA/ijmQXGvufF71+dLVmq+lB2/atx0Vf/Qmze/GYjrbq/Gua/eMoCt//5b/DtyhUcWt9xY1DbFv101J96z4Kl7M2UynlMTKX6vH6qoVPJjddxjfTLLTG2tz5Sl03un3fOsqTo8fs3x4SvaY9/ZW/avtDTH3jPysR3YNNBD5+XxD8ctG2x6ZuJzxeFvb48PbBis/RXM+HNoK229RIAAAQIECBDIBSYTUNehNvutfVuFrrQ2vwgQIECAwPQSaN2hNU44afRVbtVY8uWefCMrcfAxM+PkA7aMklt3aIsPXpT2+trJqVRiwdtm51+TW9pSBMoI9D3aF1++Lov98iuIW787EN+4si8+kAfVk5vxWaxaVbzr0xzPm+JtccpsqxoC2xIo3ho84qSZcdRWbrsx6n3KbbWb8uvzXtYRn37ZlMsUECBAgAABAg0ksK08eSoUW15espXqlCveymq8RIAAAQIECJQWGLriuSif6K+ken/XFx+/pC+2O7w9zj558/hu2S964/LLe+OeX1VjsL0SBx7ZFn/+7o5N9yatX6FZBOG1/sPbuSqv+8TlG6Np55Z43192xM7j/oV4Fj/6/Pr41oOVOO38WbHfqOClv6s/vnRpT3z37sF4oj+/7+oBbfGu93bEYXuODdqz+N1dvbHwy33xs99Uo5rfd/fQ17bHae+cGbvMHEHr79oYF328N1oWtMefHRlxxUU98d/3Dy1/+PEz4+zT28fc8iSLh2/fEJd+sS9+/lAWrdsV+57fnuT0mbHrBPf2HT1E1d7BuPnKnvjqd/rj/1ZF7Lhnc5z0ro7401eOQKz8SU/881UDcegpHbHL4g3x+a/1R3bwzLjsH+r3bq7GT67riS9+vT8WL8/iufu0xhvfNTNOXDD217UsHvrhhrjiKxtj0cPjjVMW91y5Pq7J9/d/Hii2shoLz18XP+hsjjM/PCv2mVkftcmv74HvbYh//1Lfpu1665ntm8Z+onk2NAfrSpVY87998flLeuOO/J7qM3ZsiuNyh9Pe0DYcIA/GlR/pjp/3NMW787kxso351vcOxCXn98Tj+S04zv27jthuNPw43//imr74Sb51Hz5ndnTOWhMfuLo/7vhMxDH5mI5+jJ3LXXf3xAVXb4y7fjZi9v3c6ujTZ8UJBzTHvf+1LjeNePNZ7bH46u649tZqHHpGZ5x38tAYD64fjG8s7I7rbx2Irt6IPQ5qi3fnc/jAnbecw1PxrPe94Y6BWJbPrfkvbo1T8nlx3MFj58WWGPU93uoYDZdtuUwWS+7rjUsv76vNs7YdmuPok/Pj6eT8U9s3rWowvnpBd9yftcQZb2+J/8xvE3HHgxFnXvycOH67gSkegxFrFvfFF764Ie76abV2Htjn4LY49czNzwP14+ioU2fFIYMb8+3rjfvyY3b2js1xQn68nnrM2Lck8vuVT2n+buu4qMb1n+2OW/J1jveotFTijWfPjiNG/TXLeMtt87lR59ctx2ZM9chkHj7vj7y+ddNtnysevaU7Lvzm4KbjoN55Mue8+rJrf7cxrvxCT9y2qBrr86u/X7igNU49Y/NjY+rn7G0KWoAAAQIECBB4JgrkV0l7ECBAgAABAs8agcHs4pPylDO6soWLBsfdqzV3rcueH8uyV7+/e9Tr1eynC1dnu+bPV2J5tuDIldkr91+ex0/Lsp1e8ET2g99Xa8v2LO7ODsqfO+DkdVnfcPWqX/Vkx+60LGtp68ouu2dg3HUOPTmYffL1+ae2xcrsxseH+hXPd923Pjs6r4+874sO6cqOOnxFNi//vjnfh3/9/sZR/Qazr5+/MpuVv9bStiI74piu7JC98u/zn3c/cHV2+6ie9e3c87CV2St2XJbtMH9FdtghK7Id8mWL9Zz4wQ2btj/LqtkPL1xVW+fszuG+fzS03Pz9Vmf3Lh/Z1vF2rn/VxuzsPx5e/vld2TH5du3dXvy8PHvnx0bW89srV9W2dZ/9VmQdw9vxouPXZuvzpoMb+rNPvaWr9vr84R67NRU9VmR/dUXvZgbXnrOyVj9n3orsT44fGaddcoP7nii2tZp97dyV2UH7r8iGeizL9n7hiuzgg1Zld68d2pfJr2/EpnDb/6Cu7IDcZka+XfvsUGxfV3bd8NwYz6Y+DnOfvyLbt3loHA49aGh8i35v+cee4XGoZpeduqJm9qEb+jdrteTmNbWxedUZ3aPGbLy15Xve35/99YG5ze6rswfyqfPwV1fX5stZl9Vn60jd2OOgWLZmNjw2hdlB+xdzsNieanbVGcVxtTx/rvh3aLzf9rGhsdnw8IbsrS/efA4X623rXJldvWj0MTE1z57FPdkb9x7qu8d+XdnRR9a3b0V21sWj5/B4HtXs2rOHTD/y7c1NR5auZjec01Xbn/OuHb1MNbv5gic2HRPFnN5/56HteM1712dPDDcovN/3gqHjsf56MWc/c0f/pnPF5I7BLPtZ7r9Xvh2VvP7QY1Zmx+b7OnSsd2Vfun/EsH4cvSKf+8X56o9e2JW9PB+3Ytli3R+9YfQ5Y2rekzsuBrJ/et3y7LlzNv/aacbQuajYhoWbjfl4Y7Pt5+pzuZKfL384fNxOVFXt78veMmdZtsuBa7LRh+O2Tbd9rrj3X56onZdGz4/JnvOK7X3w+rW1Y784dg48rCt71YKhsWrr7Mr+486ROTe1c/ZEEp4nQIAAAQIEnukC/w8eZ9RCmnhGSgAAAABJRU5ErkJggg==;" parent="b5bX3gUsnpmr1mp6cXlo-3" vertex="1">
                    <mxGeometry y="25.134408602150536" width="353.17" height="161" as="geometry"/>
                </mxCell>
                <mxCell id="b5bX3gUsnpmr1mp6cXlo-2" value="&lt;font style=&quot;font-size: 20px&quot;&gt;TodoBoard&lt;/font&gt;" style="text;html=1;align=center;verticalAlign=middle;resizable=0;points=[];autosize=1;strokeColor=none;fillColor=none;hachureGap=4;" parent="b5bX3gUsnpmr1mp6cXlo-3" vertex="1">
                    <mxGeometry x="123.58000000000001" y="-1" width="107" height="21" as="geometry"/>
                </mxCell>
                <mxCell id="b5bX3gUsnpmr1mp6cXlo-48" value="" style="whiteSpace=wrap;html=1;rounded=0;sketch=0;hachureGap=4;fontSize=20;strokeColor=#CC0000;strokeWidth=2;fillColor=none;gradientColor=#ffffff;" parent="b5bX3gUsnpmr1mp6cXlo-3" vertex="1">
                    <mxGeometry y="60" width="82" height="129.13" as="geometry"/>
                </mxCell>
                <mxCell id="b5bX3gUsnpmr1mp6cXlo-49" value="" style="whiteSpace=wrap;html=1;rounded=0;sketch=0;hachureGap=4;fontSize=20;strokeColor=#CC0000;strokeWidth=2;fillColor=none;gradientColor=#ffffff;" parent="b5bX3gUsnpmr1mp6cXlo-3" vertex="1">
                    <mxGeometry x="85" y="25.13" width="265" height="158.87" as="geometry"/>
                </mxCell>
                <mxCell id="b5bX3gUsnpmr1mp6cXlo-79" value="&lt;font&gt;handlers&lt;/font&gt;" style="text;html=1;align=center;verticalAlign=middle;resizable=0;points=[];autosize=1;strokeColor=none;fillColor=none;rounded=0;dashed=1;sketch=0;hachureGap=4;fontSize=20;fontColor=#CC99FF;" parent="IwmPD_r2PDRioC0zgAHV-1" vertex="1">
                    <mxGeometry x="947" y="-333" width="87" height="28" as="geometry"/>
                </mxCell>
                <mxCell id="b5bX3gUsnpmr1mp6cXlo-40" value="" style="rounded=0;whiteSpace=wrap;html=1;sketch=0;hachureGap=4;fontSize=20;strokeColor=#CC0000;fillColor=none;gradientColor=#ffffff;strokeWidth=2;" parent="IwmPD_r2PDRioC0zgAHV-1" vertex="1">
                    <mxGeometry x="509" y="-222" width="202" height="28" as="geometry"/>
                </mxCell>
                <mxCell id="b5bX3gUsnpmr1mp6cXlo-43" value="ListChangeToggle" style="text;html=1;align=center;verticalAlign=middle;resizable=0;points=[];autosize=1;strokeColor=none;fillColor=none;rounded=0;sketch=0;hachureGap=4;fontSize=20;" parent="IwmPD_r2PDRioC0zgAHV-1" vertex="1">
                    <mxGeometry x="869" y="-194" width="170" height="28" as="geometry"/>
                </mxCell>
                <mxCell id="b5bX3gUsnpmr1mp6cXlo-42" style="edgeStyle=none;curved=1;rounded=1;sketch=0;orthogonalLoop=1;jettySize=auto;html=1;fontSize=20;endArrow=open;startSize=14;endSize=14;sourcePerimeterSpacing=8;targetPerimeterSpacing=8;entryX=-0.018;entryY=0.687;entryDx=0;entryDy=0;entryPerimeter=0;fillColor=#f8cecc;strokeColor=#b85450;strokeWidth=2;exitX=1;exitY=0.5;exitDx=0;exitDy=0;" parent="IwmPD_r2PDRioC0zgAHV-1" source="b5bX3gUsnpmr1mp6cXlo-40" target="b5bX3gUsnpmr1mp6cXlo-43" edge="1">
                    <mxGeometry relative="1" as="geometry">
                        <mxPoint x="292.66906474820144" y="-90.99999999999977" as="targetPoint"/>
                    </mxGeometry>
                </mxCell>
                <mxCell id="b5bX3gUsnpmr1mp6cXlo-75" style="edgeStyle=none;curved=1;rounded=1;sketch=0;orthogonalLoop=1;jettySize=auto;html=1;fontSize=20;endArrow=open;startSize=14;endSize=14;sourcePerimeterSpacing=8;targetPerimeterSpacing=8;strokeWidth=2;entryX=0.516;entryY=-0.128;entryDx=0;entryDy=0;entryPerimeter=0;exitX=1;exitY=0.5;exitDx=0;exitDy=0;fillColor=#e1d5e7;strokeColor=#9673a6;" parent="IwmPD_r2PDRioC0zgAHV-1" source="b5bX3gUsnpmr1mp6cXlo-66" target="b5bX3gUsnpmr1mp6cXlo-43" edge="1">
                    <mxGeometry relative="1" as="geometry">
                        <mxPoint x="1037" y="-274" as="targetPoint"/>
                    </mxGeometry>
                </mxCell>
                <mxCell id="b5bX3gUsnpmr1mp6cXlo-5" value="&lt;font style=&quot;font-size: 20px&quot;&gt;TodoList&lt;/font&gt;" style="text;html=1;align=center;verticalAlign=middle;resizable=0;points=[];autosize=1;strokeColor=none;fillColor=none;hachureGap=4;" parent="IwmPD_r2PDRioC0zgAHV-1" vertex="1">
                    <mxGeometry x="555.1160164271048" y="-268" width="84" height="21" as="geometry"/>
                </mxCell>
                <mxCell id="b5bX3gUsnpmr1mp6cXlo-54" value="" style="group" parent="IwmPD_r2PDRioC0zgAHV-1" vertex="1" connectable="0">
                    <mxGeometry x="417" y="-225.05882352941177" width="393" height="237.2525667351129" as="geometry"/>
                </mxCell>
                <mxCell id="b5bX3gUsnpmr1mp6cXlo-4" value="" style="shape=image;verticalLabelPosition=bottom;verticalAlign=top;aspect=fixed;imageAspect=0;image=data:image/png,iVBORw0KGgoAAAANSUhEUgAABEIAAAKSCAYAAADWLH5sAAAABHNCSVQICAgIfAhkiAAAIABJREFUeF7s3QucXGV9P/5vQoAg0CRcEwRJkCJXIREBUYQE5M+9guAFVBAQtVipYEWqRatFvEHVihQEvAIqCrVylZvQP4EWTICCCEITkLsEgtwCBPKbZ8Isk8nsfTbfZM/7vF772uzMmfM5532G3eWzz3nOiAW1JSwECBAgQIAAAQIECBAgQIAAgQoIjKzAMTpEAgQIECBAgAABAgQIECBAgEBdQBHijUCAAAECBAgQIECAAAECBAhURkARUplT7UAJECBAgAABAgQIECBAgAABRYj3AAECBAgQIECAAAECBAgQIFAZAUVIZU61AyVAgAABAgQIECBAgAABAgQUId4DBAgQIECAAAECBAgQIECAQGUEFCGVOdUOlAABAgQIECBAgAABAgQIEFCEeA8QIECAAAECBAgQIECAAAEClRFQhFTmVDtQAgQIECBAgAABAgQIECBAQBHiPUCAAAECBAgQIECAAAECBAhURkARUplT7UAJECBAgAABAgQIECBAgAABRYj3AAECBAgQIECAAAECBAgQIFAZAUVIZU61AyVAgAABAgQIECBAgAABAgQUId4DBAgQIECAAAECBAgQIECAQGUEFCGVOdUOlAABAgQIECBAgAABAgQIEFCEeA8QIECAAAECBAgQIECAAAEClRFQhFTmVDtQAgQIECBAgAABAgQIECBAYNRQEzwy98G4ZdaMeHTuw7HW2PH1uLXHrhNbTpoy1NG2T4AAAQIECBAgQIAAAQIECBBYRGBIipBSflw+8+I476ozu+VevVaKbD5pcuw8ea/0UmTuA8/E3AeebbuvE7dZs+3jHiRAgECWwLx58+Khhx6K8rl8lOWJJ56I0aNH1/+90kor1f9dPsaOHRvjxo3L2lW5BAgQIECAAAECBJY6gRELakun9qovBUhrVqMQOWja4fWRIkt6KSXIhZ/9XTxw02Nto1ed8Jr428t3a/ucBwkQILCkBBrlx6xZs/odWQqRUoaMHz9eKdJvPS8gQIAAAQIECBAYbgIdK0JKCXLcmUfGnNolMI1l40lbxRaT3hRbTJxSH/XRfJnM/876Xfxh1s1d65ZC5MTDThnyMuQnh1zbbenR15P72q3XiPf/4O19Xd16BAgQGLBAKUDuuOOO+oiPTiylFNlkk00UIp3AtA0CBAgQIECAAIFlUqAjRUgpOI446V1dAKXUOGq/f+r1kpfW8mRJlCGKkGXyfWqnCVROYDAjQPqCNWHChJg0aVLX5TR9eY11CBAgUFWB8jtrWR5+4tU/+JnvrqrvBsdNgMBwEOhIEXLsWR/rGt1xwLTD4v1TD++zTevlNENdhtz8H7PjyQee6/P+tVtxzGtXiq3eObHdUx4jQIDAoAXK6I+ZM2f2up3GJS+NuUHK57lz59ZfV4qU3kaRlPVLGVJKEQsBAgQIvCrQ+P20dQRzq1H5vXXNceNrc97tGbvW5r2zECBAgMCyITDoIuTk878Y18y8pH60/S1Bmol+cvUZXZOr7jh59zh6v+OHTLCnyVF7Cx372tfE2Neu3NtqnidAgMCABMokqOVSmO6WMtdHmQC1FBi9LY0ypJQjZbvtllKGNEaHtHveYwQIEKiSQClAzr7qjK7fbft77OV32Kx57/q7r9YnQIBAlQUGVYSU2+Ief9aRdb/SiJ91zAX9tizbaMwfcvL5X6qPLOnrpTX9DnvlBdecckfccGr3/6PR03a3+9gmseORm/S0iucIECAwIIGeSpBSgJS5PRqjP/obUEqRMtFqd4VIKVb6Uq70N9f6BAgQWBYEWkcoD2afy++x06bsGe+YvMeQz303mP30WgIECFRZYFC3z71y5oVddmVOkP4ujSKlUaIcXdtGmWukTLh6ztXfqxUkp/Z3k9YnQIDAMilQLmNpNxKkU5ObNrZTyo4ZM2Z03Xa3gdW4G40yZJl8+9hpAgQGIdA6113rphrFRnl8rVrJUZZHa7+rPvrEg7UbATy0yOT/5bnye+x5V50ZV824aIncCKB1f31NgAABAr0LDKoIuW3WwmvYyzDA/k4Y1TyapPzAaIwMKXeaKaNC/tw0GVXvhzHwNd5z1g59evHPDv2vPq1nJQIECPRXoLs5QcookMmTJ/d3cz2uXwqRKVOmtB0dUkaLlMtuSq6FQG8CCxYs6G2VGDFiRK/rWIFApkDz76PN+9EoP/oy710pUsp2florP5rvnlj+Xe6oWEaH9GU7mQ6yCRAgUDWBARch5Rt+45v9WuPW6Zdb6w+dLx56SleRUm63W4qQ5nKkXxvv58oTt1mzn6+wOgECBDonUC5ZaTcx6lCUII29bkySWj43RoKU5xq36i1FyUAvwemcjC0trQKNAqT1c/P+thYgrV8vrcdmv6ol0Pr7aDn6/hQgDa21x65Tmyh1nfrvspfPvLhrzrvyfGN0SPm3MqRa7y9HS4DA0i0wcqC717iNWHl9Y5hg+YFSJj3taWn9odNcgpTXbTFxStfLmzN62qbnCBAgsKwKNBcRjWMYyhKkkdGYJLV19EejDFlWPe330AmU4qPx8fLLL9f/XZaRI0fGcsst1/VRvi5Leb6xXuN1Q7d3tkygfwKtv4+WVzfmqBtoYVEKkfLa04/5ZX1bzUu5TKZkWggQIEBg6RAYcBHSvPulAW/8QCnf6LsrQ1p/6LSWIGWb42u3IGss5fpLCwECBIarQLkkpnXy0lJQdPpymO78GvOGtI7+KPvV2613u9umx4enQGsB0ig/yufW0R7l6+bnWwuR4SnkqJY1gcZk/439Lpdml0n/+3upd7vjLoXIiYedEmWbjaWMDPlW7aYA/sjXTsxjBAgQWPICAy5CWkuKxjf28o2+XRnSlxKkHH754dFYGiNNljyLRAIECAy9wOzZsxcLKXeGGcqlcfeYRkZjzpDWzHb71rqOr4e/QHMBUkZ3lJKjjP5oLT+6k2hev7y+eYRId6/xOIGhFjj5/C8uElFGb3z10M5O0F9+ny03AWgeGVJ+Ry635rUQIECAQL7AgIuQ5ktYHq5NbLrr5L3iyP0+Wz+i1jKkryVIee1vmu5Ek89jDwgQIDA0Au1GXZTLVFovVelkeilBpk+fXh+F0nxJTilDWnPb7V8n98W2lh2BRnkxatSo+kiPgSzldeX1jdEhA9mG1xDohED5w901My9ZZFMDufNhX/alMTKked1yowGXyPRFzzoECBAYWoEBT5bavFv/O3tGfShhKUPKcsr5J3SVIeXWYs0/cNpdDtO8reaRJp0Ynji0fLZOgACBgQk8/PDil/5NnDhxYBvrw6saJUhZtfy7cUlO43a5ZSRKKUmal7KPrQVJH6KsMkwEmi9pKaNAOrX8+te/jscff7w+qqSvI0tas1dYYYVYbbXVYt111403vOENsfzyy7eu4msCbQVOrl2e0ryUP+J18vfNUnKUS2DKpTGlCCkfJaP8blyW8sfCc67+Xi2zsyNQ2h6sBwkQIECgW4GB/WmntrnmuTz+d9bvugJaR4b0pwQpGynFSWNpvkym2yPwBAECBJZBgdY5OCZMmDBkpUNzCdKgapQh5XNZuhsVsgzS2uUOCDRfEtNuHpCBRpRRIW9961u7JlotOQNZXnjhhShF3U033RTnnXde3HXXXQPZjNdUUKDcmbCxlMtWGn/E6wRFYwR0KTvKbXMbl42XoqX5EpmyD+YK6YS4bRAgQGDgAgMuQkpJ0ZgE6s+1S2Oah/k1lyGNXettJEhZr2yjUZzsOHn3gR+VVxIgQGApFiglSKOAaOzm2LFjh2SP25UgjaAyCqR5otTWESnlta2FzZDspI0uVQLNJUjZsYFeDtPdQa255pqxxRZbDLoMaWy/lCJlNFO721B3tw8er6ZA6+XX7512WMcgWi8DL2VIY/RJ+Z25NcvlMR2jtyECBAgMSGDARUhJK5NAlaUxE3bzHjSXIX0pQcpry1DBxrLzK5fZNG/TvwkQIDAcBObOnbvYYQzFJSg9lSDlzjStmSuttNJi+9VuXxdbyQPDTqBxWUwZwTEUSylCmm/B24mMW265xciQTkAO423c1nL72k5dEtNaghTC1glYW7OunHnRMJZ2aAQIEFj6BQZVhJSGuzFyY2Hzvegs3KUM+dWXru/TtZfllruN4Yplm60/MJZ+SntIgACBvgm0jgYphUTrLWz7tqXu1+pvCVK21O7yGEVI98bD9ZnGiJByfAOdw6M3m1K6bbDBBr2t1u/ny6UyL774Yr9f5wXVEGi+XLv8rtmJS7C7K0HKrXibl+aR1OXxMpraQoAAAQJ5AoMqQspuHzTt8K7rHstM2KXQ6O9SXnPeVWfWX1Ya9KP3O76/m7A+AQIElhmB1iKkXQlyxx13LHJnl/4c3EBKkMb22+1Lf7Ktu2wLNObsKJ+HqgRpCJWJTpvzOiFXLpO58847O7Ep26iYwEAuVelrCdKgXHvshC7V8gdE84RU7E3mcAkQWKoEBj3mtTTcZWbsI056V/0SmVJoXDXjoii3IuttVEf5AVAmkyqvayxDdQuz7tRn/8+fu3vK4wQIEBgSgeeee67H7Za5DsrcHI1SonFnlx5f9MqTgylByiZai5De9rUv+2SdZUugMSKkk3eKaSewxhpr1IuQTpcu999/f2y++ebtIj1WYYHWomOtcet0aTQKjfLHuNaRHN2R9bcEKdtpzixfP1wbFdKJUSnd7aPHCRAgQKB7gUEXIWXT5Zv46cf8sqvUaMwZsua48bXnJsTmtdmyG6VI+aZfbrdb7jTTOnN3X8qT7g+l789s+c7XxQ2n3lF/wc8O/a++v7C25vpvXqNf61uZAAECvQk0lw+NEqS8ppQarbe57Wlbgy1Betq256olUObvGOpb0q666qpdI0I6qVtuzWsh0CrQOvpirVrpUZbmQqP8/nroSfv2WoYMpAQpWY3M1n3zNQECBAgseYGOFCFltxsjQy6feXF9VEj5YVI+/hA3d90JprvDO6A2a/f7px7e3dMdf3zsa1eO7T62SVcZ0teA8pqJ26zZ19WtR4AAgX4JlCKjdQRGX8uQTpUgrSNCWi/j6dcBWXmZFBiKURrtIErR0rg0pt3zA32sXB5jIdAq0N3Ii9aCpLcyZKAlSOv+lK8XZk9p95THCBAgQGCIBTpWhJT9LD9kSqHxjsl7xNlXndFjAVKGH06bsmd93e5+OA3lse945CZRRobMfeDZPsUoQPrEZCUCBPogUCaKbFcwlBJiypQpMWPGjEWe760M6VQJUna9db9ai5E+HJ5VhoHAkihDhmpS0xVWWGEYnAGH0GmB8bVRys3Lo69cll0m9i/LKeef0PV0d2XIYEuQRmYjqLdLyDttYHsECBAg8KpAR4uQxmZLsVEmPC0TqZZLYRpte/kBUIYFlueXhm/+ZWRI+bAQIEAgU6D5ziz9LUM6WYIUg9YipN0tdTOtZC85gfnz5w/p5TF/+ctfhuRgVltttSHZro0OL4FHn3iw64D6UoYMtgQpYc2Zw0vT0RAgQGDZExiSIqTBUAqPhaM9DPtb9t4a9pgAgaES6G2URV/LkE6XIOV4W4uQ3vZ1qIxsN0+g3C2mfJRLTIZynpBHHnlkSA6y3I3GQqBVoHX0cbnTYfPSUxlS5rA7/qwjF1m/PxOrNl7Ymtm6T6377GsCBAgQGDqBQd8+d+h2zZYJECAwPAVay4XWeUHKUTfKkNZ1G5fJzJo1K6ZPn94WaPLkyTFu3Li2z/X2YLlbjYVAKUKG6tKVhu59993X8Vv0lsti3vCGNziBBNoKbDxpq67Hy+UvrXeSKWXIkft9dpHXlvU6UYKUjZZtNZYdJ+/edh89SIAAAQJLRkARsmScpRAgQKBLYMKECYtoNM8B0vxET2VIKULaLYMpQRp3qGne7vjxi15X3y7TY8NPYOTIkfWJTMvlMUOxPPvss3HPPfd0vAjZeuuth3QUy1BY2OaSE9h58p6LhJW7GLYu7cqQ5nUGMhKkvP43My9cJKrcUdFCgAABAnkCipA8e8kECFRUoBQcrSM2Hn741b8UNrN0V4a0oxtMCVK21zxXSWP7rfvZLtdjw0ugjAYpRUi5LObJJ58ckoO78cYbY7nllqvnlLxOLFtuuWVstNFGndiUbQxTgdb56a6acVHbI+2uDBloCVJCflq7o2Lz0rovbXfEgwQIECAwZAKKkCGjtWECBAh0LzB27NhFniyXx3R3WUpfypDBliDtRqW0jlzp/mg8M1wEGvODlM+jRo2qjwh5+umnO3p4999/f9x66631IqSxDKYMKZfDbL/99lH+G7AQ6EmgzMnRennMT64+o+1LWsuQwZQgZTRI62Ux5gdpy+5BAgQILDEBRcgSoxZEgACBVwVai5BSRMyePbtbop7KkMGWICW03aU2Lovp9nQM+ydKMVGKipVXXrle0L300ksdOeYyAesVV1xRH20ymNEgpfwo789yKcwBBxxgJEhHzk41NnJ0beLT5qWMCmnc3bBVoFGGDKYEKdtuvjVvydj5lVv2tub5mgABAgSWnMCI2jXAC5ZcnCQCBAgQaAjMnDlzsVEgvZUapTCZMWNG191delu/L9rlf3TLvjQv5ZIYf2Hvi97wXKf8avDyyy/XC5Bnnnkm5syZE5MmTVpkFEd/j7xsqxRuq6++er1g6fSlMf3dH+tXV+Dk878Y18y8pAtgMEVHb4rHnvWx+MOsm7tWK5OkHr3f8b29zPMECBAgMMQCRoQMMbDNEyBAoDuBTTbZZLGn7rjjjsVuYdu8UvPIkE6UIGXb7UaiTJw4cbF980C1BBpzhay00koxZsyYuPPOOxcr7voqUsq28vqynbK9wYwG6Wum9Qh0J3DQtMOjlB+NpVy2cuhJ+3a3+oAeLyNBWkuQkqkEGRCnFxEgQKDjAkaEdJzUBgkQINB3gVJ8tN6tpZQdZc6DJbG0G5ViNMiSkF/6M8qokMbIkDJXyFNPPRUPPvhgrLjiivXRIeVzb8vzzz9fHwVSPq+zzjqx6qqr1uceaRQhg5kbpLdszxPoSaAUFUec9K5FVilFxYmHnRKDnb+jbPvk87+0yEiQEvTFQ08Jk6T2dFY8R4AAgSUnoAhZctaSCBAgsJhA66UujRXKRKXtRowstoFBPNCuhCmb69RIk0HsmpcuJQLNZUi5VKa8X8tlMqW8K4XdaqutVr8DUrnUpTG5armUpowAefzxx+vrl/dyuRymrF8KECXIUnJy7Ub9lrat83eUMmTalD3j/VMPH5BQmXz1vJY7xJQNKUEGxOlFBAgQGDIBRciQ0dowAQIE+ibQbo6O8sqeJkjt25a7X6vdSJCythKke7OqPtMoQ5pHh5S7HJURIuX2uuWuMmXERylKSslRRoqsssoq9ctgygiQcilM6ygQI0Gq+m5a+o67XRlS9rJRiLxj8h69jhApI0Aun3lxlIlXm+8O0zhaJcjSd97tEQECBBQh3gMECBBYCgTKX9jLCI3WpZQhZWRI+at7J5byF/qS0+5WveVyh/JhIdAq0JhXvVGGlM9l8tPy8eKLL9Y/l8cad5spd4Upk6GWj8ZcI43yQwnSquvrbIFSZBx35pFtS4yyb6UU2XzS5Fhr3Dqx1itzizxam1ekLP8763eLXQLTOJ7yuqNqd6lxOUz2GZZPgACBxQUUIYubeIQAAQIpAmUuhXa3sS07Uy4vKCVFKUYGspQCpJQt3W3fvCADUa3ea5oLkcZIkaLQeLz8u7nwKP9WgFTvfbIsHnFjVEe7y1oGcjwHTDtswJfXDCTPawgQIECgfwKKkP55WZsAAQJDKtBTGVJKkFJYjB07tl6M9LaU8qNcwjB37txuC5CyDSNBepP0fKtAc/HR/O/Ges2jPowAadXz9dIsUAqRs686Y5Hb6/ZnfzeetFXtzjD/1OvlNP3ZpnUJECBAoPMCipDOm9oiAQIEBiVQCozp06f3uI1SipS5FxojREo5Ul5XlvK5fLS7/KV1o+YEaRXx9UAFGpfGDPT1XkdgaRIohcgts2bElTMv6vbSl8b+lvJji0lvMgJkaTqB9oUAAQK9CChCegHyNAECBDIESpFRRoe03lq3U/tSRpaUuUcGeqlNp/bDdggQILAsCJRipCwPP7FwbpDyb3N/LAtnzj4SIECgvYAipL2LRwkQILBUCPQ0uelAdrDTk68OZB+8hgABAgQIECBAgECmgCIkU182AQIE+ihQRoaUuT4GMkKklB9lTpHG5z5GWo0AAQIECBAgQIDAsBRQhAzL0+qgCBAYrgKNeUBKIdKYC6RMiNp4vHnukPLvMndIp269O1xNHRcBAgQIECBAgEC1BBQh1TrfjpYAAQIECBAgQIAAAQIECFRaYGSlj97BEyBAgAABAgQIECBAgAABApUSUIRU6nQ7WAIECBAgQIAAAQIECBAgUG0BRUi1z7+jJ0CAAAECBAgQIECAAAEClRJQhFTqdDtYAgQIECBAgAABAgQIECBQbQFFSLXPv6MnQIAAAQIECBAgQIAAAQKVElCEVOp0O1gCBAgQIECAAAECBAgQIFBtAUVItc+/oydAgAABAgQIECBAgAABApUSUIRU6nQ7WAIECBAgQIAAAQIECBAgUG0BRUi1z7+jJ0CAAAECBAgQIECAAAEClRJQhFTqdDtYAgQIECBAgAABAgQIECBQbQFFSLXPv6MnQIAAAQIECBAgQIAAAQKVElCEVOp0O1gCBAgQIECAAAECBAgQIFBtAUVItc+/oydAgAABAgQIECBAgAABApUSUIRU6nQ7WAIECBAgQIAAAQIECBAgUG0BRUi1z7+jJ0CAAAECBAgQIECAAAEClRJQhFTqdDtYAgQIECBAgAABAgQIECBQbQFFSLXPv6MnQIAAAQIECBAgQIAAAQKVElCEVOp0O1gCBAgQIECAAAECBAgQIFBtAUVItc+/oydAgAABAgQIECBAgAABApUSUIRU6nQ7WAIECBAgQIAAAQIECBAgUG0BRUi1z7+jJ0CAAAECBAgQIECAAAEClRJQhFTqdDtYAgQIECBAgAABAgQIECBQbQFFSLXPv6MnQIAAAQIECBAgQIAAAQKVElCEVOp0O1gCBAgQIECAAAECBAgQIFBtAUVItc+/oydAgAABAgQIECBAgAABApUSUIRU6nQ7WAIECBAgQIAAAQIECBAgUG0BRUi1z7+jJ0CAAAECBAgQIECAAAEClRJQhFTqdDtYAgQIECBAgAABAgQIECBQbQFFSLXPv6MnQIAAAQIECBAgQIAAAQKVElCEVOp0O1gCBAgQIECAAAECBAgQIFBtAUVItc+/oydAgAABAgQIECBAgAABApUSUIRU6nQ7WAIECBAgQIAAAQIECBAgUG0BRUi1z7+jJ0CAAAECBAgQIECAAAEClRJQhFTqdDtYAgQIECBAgAABAgQIECBQbQFFSLXPv6MnQIAAAQIECBAgQIAAAQKVElCEVOp0O1gCBAgQIECAAAECBAgQIFBtAUVItc+/oydAgAABAgQIECBAgAABApUSUIRU6nQ7WAIECBAgQIAAAQIECBAgUG0BRUi1z7+jJ0CAAAECBAgQIECAAAEClRJQhFTqdDtYAgQIECBAgAABAgQIECBQbYFRw+3w77rrro4c0kYbbdSR7dgIAQIECBAgQIAAAQIECBAgsPQIDJsiZPr06fHDH/6wY7Krr756bL/99rHXXnt1bJs2RIAAAQIECBAgQIAAAQIECOQKDJtLYy688MKOSs6ZMydKuWIhQIAAAQIECBAgQIAAAQIEho/AsBgRUi6HKcVFWfbee+8Y7GUtjz32WH10Sdlm2fZgtzd83i6OhAABAgQIECBAgAABAgQILNsCw6IIaT4FpbRQXCzbb0p7T4AAgeEgsGD+k3H7zb+Pp+b3fjQjRo2O12+8Vay5yojeV+7HGi89c17sue5747K5K8SxP30svvKelfvxaqsSIEBg2RZ44ZH/jh/8/KZ4oekwRta+3668xvjYertpsdl6K/XpAP90xVfj09+9NXb8+L/FR6et1qfX9LbSUGyzt0zP91VgXvzuP74f1//p5a4XjFplXLx+k+1ix+02iBX6uhnrLdUCw64IWaq17RwBAgQIVEZg/pO/io9PPSSueXpBr8c8YrmN41+vvS2O2n65Xte1AgECBAj0TeC5e34VXzrmxLj/xcXXHzl67djzo9+J0762f0xYfvHnmx+55menxE8v+FPct9ohtSLkHT2v3Mdn223z8Vt+Ft/9z7tj1Te8M45692Z93JLVOi/wfFx95vHxDxc+ttimJ9TOzfHfPaX2Plhnsec8sGwJKEKWrfNlbwkQIEBgGREYMWp8bLr91Fiu6RfwP93x2/jjwy/H8mMnxjaTN4gVXzmWEaPWjvGrdnY0yDLCZDcJECAw5AKj194tvn7638UGtcJjwfx5cd/tl8YpJ58Rv/7mB+rfj3/5+a173IcDvnBeLNjmnnjjXrv0uF5/nmy3zYdv+ll86fgLYtP3bBQfqxUhRh70R3Qo1h0du338e/F3e6wWz86dHTdfem6cds5/xMf3mR3P/ueVcXSHRgcNxZ7bZu8CipDejaxBgAABAgT6LTBqzK7x3ct2bXrdvDjzAxPj8J88Eutt9bH45ZWfjrV1H/129QICBAj0V2D50ZNih933iC0bIz/23i92m/RMbPn+c+Ly758Vt/zj1rH587Nj5s3/Fy+vsklsseHzcc2vr4rn1t0t9t1hnXh+/oqxwYaTYrnn59Wimy+nmRd3/vfVcePvH4zlVqkV3FOnxevXaP7G/mTcecPv46H5Y2KLrdeJ+357Sdz61Eax/wFvipcW2eYLtfVmxI1/XDjn4dNz/hDT///r43WbT475d8+M+5+KeF3tsowNxze2PS/uumlmPFjbnfU23q4ls7861u9JYJ2Np8Yeu7+2vsr+7zs09pyyX+z695fEiZ/4Ruw+88uxSe099dT9N8etf3wuRq+3cbxpw3GvbK723rhhZu3crxjfQ8ePAAAgAElEQVQbvWlKrNP0tlkw/5H4nyumxx8fei7GTNwqdtph01jV/5X3dBqG5Llhc9eYIdGxUQIECBAgsEQFnowZF54an/7I/rHnHjvH3vsdFJ87+Zcx+6nFL68pv0hddMbx8ZED94pddt0z3v3BI+PkH10Xj/dhTpIyXPyfP/2pOOboT8W3fn77ItfPL9HDFUaAAIEkgfFbbxsbrjAinv3zQzGndgnjc/f8KD648y6x6/4Hxf+3/Rax+4GHxb+cdl197/7r1MPibdO2j8+dcXvX3s6791fxobduGBtvt0d84NDD48B37xJvmLhpfPL027q+py6Yf0uc8L63x7Sd3hXv2efNsd3uB8ZRx50d99VGCjZvc+F6u8YhX722/tq7rzg+pu6we/zkupfixjM+EDvXsj/6lSu6sl+c8/P4yC5vi513OTpufGLxnw9JpBWIHR3bfuTY2Pf1y8ecO8+KX131TP2Ybz376JhWO0dHf/OmLoMF82+Nkw7ZsXbuD4vf3P3qXCMPXPfV2Hmj19feC/vV3jcHxT7TNotNtz40rpr16joVgFwqDlERslScBjtBgAABAlUXWDD/zjj5vdvGW/b+29oQ7l/GxZdcFRdecE6ccMz+sd1bjozrHnr1l92Xnv6f+MzOb4y9PvylOP3ci+LKyy+O83783Tjm4LfFjnt/Pf74XPe/GL8457L42H4fiC98/aQ496qX461TNzX8uupvPsdPoIICj952c/zphQWx4tgJsXrTRNVP3nN13PbU5vHeDx8Zu719g7Yypbg4/qBD4gfT58Rb9v9i/PziK+OcfzsiNl7hzvjWkXvHyZct/B/kxosXvPSH+O3182Pn2oiCg/edEqu0/PV/xKgt4+jv/Sr+/aht69+PN9jpuLjg4vPjoG1fE7scsE+sWxt1MOPSS+KOVy61vP+Ky+KmJ1+O9bbeN6Zu6H/n2p6kIXpw5OitYtvJ42qXWD0Zt948q18pLzzy8zjs3Z+N3/5pzTjwM6fHRRf/Mr5y6Jtj7i3fj4//7Xfike5/dPcrx8p9E/BfTt+crEWAAAECBIZUYOaZR8dxP7szXlp5q/j82TfFw39+Im6//CvxlrVGxiO3nxr/ctLCv0yWnbjhlM/EN699NFZd/53x42sfiGefeiL+59yjYtPaPCO3XXp8fOWsB9vu60tP3xKfe8/B8cNbn6q99r1x1gXfiK3XdH1OWywPEiAwbASef3pWXHLuOXFO7ePsH58Z3/zSEbHfh38Yj80fHW9/34H1yxsaywqrvzN+Mn16nHv6d+KEI97U1uDRK0+P7//33Fhjs0/GD3/0uThg92nxvo+fFj86cfdYfv7s+MG/nh1PNL1yxKiJ8bmf3BQXn3NmfOvr74/1Fvu2Oya22mWP2GGLhRNw/tXak2uXYyy8zGbNt/5NTH3d8jH37kvimpvLqIF5cdWl18bTMTqmHrCfSyzbnqGhfHBMjBlbZviaF08+US6V6vty4w++HVc/+FJse9C34/snfrh2jveLT5/2nXjfZivEnVefG1c3jRzp+1atOVABVyMNVM7rCBAgQIBABwVWXP8d8fkvbx+rvna32uUub6r/VXDtXY6KI/f9Xlx/2j1x9y0zar9Yvy3K1cez/nB3ffj0X2+1X/369XLp8Zvf+89x4v0vx6/vejlet+rc2iMLr2lu7OLLL82Obx3+nvjalY/ECqtPjVMuOLN2jby/h3TwFNoUAQJLqcALcy6N4w6+dJG9K3eN2at2O9zTT3xb/ftt4xa7K42dFJMWmedj8YO67fqZtRIlapemTI2/XunVVmPT3XaLKStfEjfPvCHuefGIeNMrT41YbnxstFFj7ojFt9fTIyNH7xjv2Xej+PE3bo/LL54RR2zxePzm6odjuZXfFnvv037ESk/b81wHBF65BHVkv/5P+sm44YY76++zEc9cH9848dZXdmRePDByQbz8/B1x1121ISF/3YH9s4k+CfTr9PVpi1YiQIAAAQIE+i2w2W5/H5vtVvtl/JHaEOoLzo17H348npo3L27/Y22WvNry4nPzojaKu/YbVMSm220Rq/zgT/H7i/4h9v/wvfH+ffeIHbefHPt86tuxT9vkeXHx1w+IP958Z4xcceP453N+ER+Y/Jq2a3qQAAECw02glL9f+NrhURtYUV9WXmNibPHmybVJRpsnPu37Uc975i/1lceMW7TcWG6VMbFi7Xv0i08/Fy/Mr33Dbhpp0vetL77mDgf8TWzwrdvjxksujt/t+FxMf3B+TNqxdlmMMntxrCF/5N649/5y6dPoWHe9Cf1Imxtzn3ipvv71vzix9tH60ufj2afLCJOVW5/w9RAJKEKGCNZmCRAgQIBAfwQWzL83fvipD8Y/nHJt/S+NPS2TDzsrvjfrg/GJb/0mLj3jn+ofI0aNjck7va82Ed/n4oPTFg6vbt7G7TffUf9yxEtPxL2zHq/9a7WeIjxHgACBYSOw4iobxx4fOPDVu8YM8sjWHr9WbRTJ7fHoQ80XwNSK7IcfiUdrf/J/zYRxsfKoxa5/GXDqqlPeHXtselJ89+YL4ivfnh/3vzg6Prr/u+ojBC1LVqBMNn7RjU/U/qiwbezw9kWLkJd7/Nk9NsaOW662s7Vz9+93x78evHrLjo+O0aOX7LFUPc2Y2Kq/Axw/AQIECCwVAr896cD4yLeujb+MmRr/Upsj5L4/PxvPPfdc/OKozRbbvxGj1o73fuWyuOfuG+LcU0+II963c7x+XO2OM1ecGh+q3W3mK78pRceiS7lGffu3bVq7fv2ROOuzR8R5d5ihvtXI1wQIEOiLwBt22mnhBKYXnhXX/rkxw+W8uObcC+KO2tC9TXaYGhsOYDTI6FfKk5fmLzr3RJlM9Z3vnFK7fOLmOP+C22qXxexUuyxm8cK7L/tunYELPP/AZfHJQ0+I659cEFsfcHT8zSYL/1d63NiFI4vmPDArGtPkvjhndtw3d+EIkIWJY2Knnd5YK9DmxW9+enZtYtRSfCz8KNu9aPriP7cHvqde2RcBRUhflKxDgAABAgSGVODOuOTXv69fOzztkC/GZ2tzhKxXG7JdfkmKxcZuPhLXXHB+7Zfhi+NPI7eJ9370H+O0c66IO+66Pv5umzG1X5T/EL/40ZUtt8QdHe/+wq/jiku+H4dM+at4Yc7V8ZkPf6N+C0cLAQIECPRPYNU3fST+8aCN49kHfhr777BnfPL4z8VRB78jDv7q9bH8mJ3iE59+14AucFh5/Pj4q9r3/D9ccXJ86BOfil/c+Gphvd0B+8Ymtdv9lmWjqfvGWyZ0bsRJ/46+SmvXSovvfSD22mfP2u2MN4v1NtwtTqtNVL7BW4+LM769f9c5Xv9tO8WGrxkRf6hNVv6uDx0Txx394Zi2w6Fx2SOL/sFhy0OOj4O3/Kv4v98eW3v+wDj2+BPi2L/dO7Z+y77xwQ9+Km5wK+Ql+uZShCxRbmEECBAgQKBngQfuntV1t4F59/4qzrvkvkVeUC6hOfuf3hfv2q/2y/dXr+sqPEaNnRjrr9P9nyAnbjgpVlplmzjhu8fU7y7zf9d9Po7+55taCpOe982zBAgQIFAE1o4PnfofcdrRu8boBy+t3YXmhPj2j26K1bb9UHz/kl/GQVsM7H+x1tr5E/HJPTeKEU/eXLsd7ylx0/8918W98mb7xF5vHlP7ekzs6rKYJfY2vP+Wq+OiX18c/3XznFindrvi40+5PG787Zdji3GvFlErb/Z3ccqX3x3rrvRoXPaDk+Or//aLWGHbj8S+k8s0vK8uo8bsGN+57Fdx3Lu3jsduPze+9qXPxddOvSJW2OiQOP28b8R2TdtcYgdY4aARC2rLsn78d911V5x00kn1wzjmmGNqszJvNKhD6vT2BrUzXkyAAAECw0RgXpz5gYlx+E8eiQ12+mpMv+rTi9z28LqvTotpn7m6Xkysv/nU2HTCk3FT7c4Ef3564Y/pNTY7Lm6Y+eV4fa3ruPmHB8Y7Dj+3fuvHKbvsG9tvslo8fPtl8Z9X3R3za5OhnvCf18Vndl0tXnrmvNhz3ffGZXNXiGN/+lh85T1lErbarRdP2D12/9xva+tuFSf95rr4+7ebOHWYvMkcBgECS1jg5Xlz46H7n4hRY8fH2gOcfLV1l+fcPyueHjU+1h//6mSuC+bfEp/Yetv499m7x6V/PD92duvzVrb0r8t7YXbtvbDq+Imx5io9j9h56elHapOiPxurrDEh1hprcpCMkzewujJjT2USIECAAIFhLLD9MefGD4/dNdarjda497ar45LLfx8Ttvv7OOVL+9Rv7fjE7Jlx52MLS5GtDj4rLv7xsbHzFivX5gU5N75T+8vhL2olyBqb7Rtf//mF9RKk+2V0TD32m7XyY1z9evMvH/Gp+J3huN1zeYYAAQI9CIwcPTZeWxtx16kSpEStvu6klhLkybj2tC/ET29/PqbsfWBspwTp4YzkPVXeCxvU3gu9lSBlD5dbZe36ukqQvPNlREgbeyNC2qB4iAABAgSWiED5K9Gs2bVJ02q3d9yw6a+B3YU//XBtQrbHnqvfDrL5r4fdre9xAgQIEFh2BJ65/euxzTbHxu+fXRDlNsBnXX3FgC+9WXaO2p4SGHqBxaZgG/rIoU147LHHBh1QihALAQIECBDIECh/Jdpw87X7HL1KbQjupuP7vLoVCRAgQGAZElh+jTfGbnvtG28cs3Ec+LFjYu8Bzj+yDB2yXSWwRASGxYiQOXPm1OcIKZ87vZx22mmd3qTtESBAgAABAgQIECBAgAABAkkCw2KOkNVXXz322muvKJ87tZRtHXzwwZ3anO0QIECAAAECBAgQIECAAAECS4HAsBgR0nAsI0I6NSpksHeeWQrOrV0gQIAAAQIECBAgQIAAAQIEWgSGVRHi7BIgQIAAAQIECBAgQIAAAQIEehIYFpfG9HSAniNAgAABAgQIECBAgAABAgQINAQUId4LBAgQIECAAAECBAgQIECAQGUEFCGVOdUOlAABAgQIECBAgAABAgQIEFCEeA8QIECAAAECBAgQIECAAAEClRFQhFTmVDtQAgQIECBAgAABAgQIECBAQBHiPUCAAAECBAgQIECAAAECBAhURkARUplT7UAJECBAgAABAgQIECBAgAABRYj3AAECBAgQIECAAAECBAgQIFAZAUVIZU61AyVAgAABAgQIECBAgAABAgQUId4DBAgQIECAAAECBAgQIECAQGUEFCGVOdUOlAABAgQIECBAgAABAgQIEFCEeA8QIECAAAECBAgQIECAAAEClRFQhFTmVDtQAgQIECBAgAABAgQIECBAQBHiPUCAAAECBAgQIECAAAECBAhURkARUplT7UAJECBAgAABAgQIECBAgAABRYj3AAECBAgQIECAAAECBAgQIFAZAUVIZU61AyVAgAABAgQIECBAgAABAgQUId4DBAgQIECAAAECBAgQIECAQGUEFCGVOdUOlAABAgQIECBAgAABAgQIEFCEeA8QIECAAAECBAgQIECAAAEClRFQhFTmVDtQAgQIECBAgAABAgQIECBAQBHiPUCAAAECBAgQIECAAAECBAhURkARUplT7UAJECBAgAABAgQIECBAgAABRYj3AAECBAgQIECAAAECBAgQIFAZAUVIZU61AyVAgAABAgQIECBAgAABAgQUId4DBAgQIECAAAECBAgQIECAQGUEFCGVOdUOlAABAgQIECBAgAABAgQIEFCEeA8QIECAAAECBAgQIECAAAEClRFQhFTmVDtQAgQIECBAgAABAgQIECBAYFQWwb333psVLZcAAQIECBAgQIAAAQIECBBYCgTWX3/9Jb4XIxbUliWeKpAAAQIECBAgQIAAAQIECBAgkCDg0pgEdJEECBAgQIAAAQIECBAgQIBAjoAiJMddKgECBAgQIECAAAECBAgQIJAgoAhJQBdJgAABAgQIECBAgAABAgQI5AgoQnLcpRIgQIAAAQIECBAgQIAAAQIJAoqQBHSRBAgQIECAAAECBAgQIECAQI6AIiTHXSoBAgQIECBAgAABAgQIECCQIKAISUAXSYAAAQIECBAgQIAAAQIECOQIKEJy3KUSIECAAAECBAgQIECAAAECCQKKkAR0kQQIECBAgAABAgQIECBAgECOgCIkx10qAQIECBAgQIAAAQIECBAgkCCgCElAF0mAAAECBAgQIECAAAECBAjkCChCctylEiBAgAABAgQIECBAgAABAgkCipAEdJEECBAgQIAAAQIECBAgQIBAjoAiJMddKgECBAgQIECAAAECBAgQIJAgoAhJQBdJgAABAgQIECBAgAABAgQI5AgoQnLcpRIgQIAAAQIECBAgQIAAAQIJAoqQBHSRBAgQIECAAAECBAgQIECAQI6AIiTHXSoBAgQIECBAgAABAgQIECCQIKAISUAXSYAAAQIECBAgQIAAAQIECOQIKEJy3KUSIECAAAECBAgQIECAAAECCQKKkAR0kQQIECBAgAABAgQIECBAgECOgCIkx10qAQIECBAgQIAAAQIECBAgkCCgCElAF0mAAAECBAgQIECAAAECBAjkCChCctylEiBAgAABAgQIECBAgAABAgkCipAEdJEECBAgQIAAAQIECBAgQIBAjoAiJMddKgECBAgQIECAAAECBAgQIJAgoAhJQBdJgAABAgQIECBAgAABAgQI5AgoQnLcpRIgQIAAAQIECBAgQIAAAQIJAoqQBHSRBAgQIECAAAECBAgQIECAQI6AIiTHXSoBAgQIECBAgAABAgQIECCQIKAISUAXSYAAAQIECBAgQIAAAQIECOQIKEJy3KUSIECAAAECBAgQIECAAAECCQKKkAR0kQQIECBAgAABAgQIECBAgECOgCIkx10qAQIECBAgQIAAAQIECBAgkCCgCElAF0mAAAECBAgQIECAAAECBAjkCChCctylEiBAgAABAgQIECBAgAABAgkCipAEdJEECBAgQIAAAQIECBAgQIBAjoAiJMddKgECBAgQIECAAAECBAgQIJAgoAhJQBdJgAABAgQIECBAgAABAgQI5AgoQnLcpRIgQIAAAQIECBAgQIAAAQIJAoqQBHSRBAgQIECAAAECBAgQIECAQI6AIiTHXSoBAgQIECBAgAABAgQIECCQIKAISUAXSYAAAQIECBAgQIAAAQIECOQIKEJy3KUSIECAAAECBAgQIECAAAECCQKKkAR0kQQIECBAgAABAgQIECBAgECOgCIkx10qAQIECBAgQIAAAQIECBAgkCCgCElAF0mAAAECBAgQIECAAAECBAjkCChCctylEiBAgAABAgQIECBAgAABAgkCipAEdJEECBAgQIAAAQIECBAgQIBAjoAiJMddKgECBAgQIECAAAECBAgQIJAgoAhJQBdJgAABAgQIECBAgAABAgQI5AgoQnLcpRIgQIAAAQIECBAgQIAAAQIJAoqQBHSRBAgQIECAAAECBAgQIECAQI6AIiTHXSoBAgQIECBAgAABAgQIECCQIKAISUAXSYAAAQIECBAgQIAAAQIECOQIKEJy3KUSIECAAAECBAgQIECAAAECCQKKkAR0kQQIECBAgAABAgQIECBAgECOgCIkx10qAQIECBAgQIAAAQIECBAgkCCgCElAF0mAAAECBAgQIECAAAECBAjkCChCctylEiBAgAABAgQIECBAgAABAgkCipAEdJEECBAgQIAAAQIECBAgQIBAjoAiJMddKgECBAgQIECAAAECBAgQIJAgoAhJQBdJgAABAgQIECBAgAABAgQI5AgoQnLcpRIgQIAAAQIECBAgQIAAAQIJAoqQBHSRBAgQIECAAAECBAgQIECAQI6AIiTHXSoBAgQIECBAgAABAgQIECCQIKAISUAXSYAAAQIECBAgQIAAAQIECOQIKEJy3KUSIECAAAECBAgQIECAAAECCQKKkAR0kQQIECBAgAABAgQIECBAgECOgCIkx10qAQIECBAgQIAAAQIECBAgkCCgCElAF0mAAAECBAgQIECAAAECBAjkCChCctylEiBAgAABAgQIECBAgAABAgkCipAEdJEECBAgQIAAAQIECBAgQIBAjoAiJMddKgECBAgQIECAAAECBAgQIJAgoAhJQBdJgAABAgQIECBAgAABAgQI5AgoQnLcpRIgQIAAAQIECBAgQIAAAQIJAoqQBHSRBAgQIECAAAECBAgQIECAQI6AIiTHXSoBAgQIECBAgAABAgQIECCQIKAISUAXSYAAAQIECBAgQIAAAQIECOQIKEJy3KUSIECAAAECBAgQIECAAAECCQKKkAR0kQQIECBAgAABAgQIECBAgECOgCIkx10qAQIECBAgQIAAAQIECBAgkCCgCElAF0mAAAECBAgQIECAAAECBAjkCChCctylEiBAgAABAgQIECBAgAABAgkCipAEdJEECBAgQIAAAQIECBAgQIBAjoAiJMddKgECBAgQIECAAAECBAgQIJAgoAhJQBdJgAABAgQIECBAgAABAgQI5AgoQnLcpRIgQIAAAQIECBAgQIAAAQIJAoqQBHSRBAgQIECAAAECBAgQIECAQI6AIiTHXSoBAgQIECBAgAABAgQIECCQIKAISUAXSYAAAQIECBAgQIAAAQIECOQIKEJy3KUSIECAAAECBAgQIECAAAECCQKKkAR0kQQIECBAgAABAgQIECBAgECOgCIkx10qAQIECBAgQIAAAQIECBAgkCCgCElAF0mAAAECBAgQIECAAAECBAjkCChCctylEiBAgAABAgQIECBAgAABAgkCipAEdJEECBAgQIAAAQIECBAgQIBAjoAiJMddKgECBAgQIECAAAECBAgQIJAgoAhJQBdJgAABAgQIECBAgAABAgQI5AgoQnLcpRIgQIAAAQIECBAgQIAAAQIJAoqQBHSRBAgQIECAAAECBAgQIECAQI6AIiTHXSoBAgQIECBAgAABAgQIECCQIKAISUAXSYAAAQIECBAgQIAAAQIECOQIKEJy3KUSIECAAAECBAgQIECAAAECCQKKkAR0kQQIECBAgAABAgQIECBAgECOgCIkx10qAQIECBAgQIAAAQIECBAgkCCgCElAF0mAAAECBAgQIECAAAECBAjkCChCctylEiBAgAABAgQIECBAgAABAgkCipAEdJEECBAgQIAAAQIECBAgQIBAjoAiJMddKgECBAgQIECAAAECBAgQIJAgoAhJQBdJgAABAgQIECBAgAABAgQI5AgoQnLcpRIgQIAAAQIECBAgQIAAAQIJAoqQBHSRBAgQIECAAAECBAgQIECAQI6AIiTHXSoBAgQIECBAgAABAgQIECCQIKAISUAXSYAAAQIECBAgQIAAAQIECOQIKEJy3KUSIECAAAECBAgQIECAAAECCQKKkAR0kQQIECBAgAABAgQIECBAgECOgCIkx10qAQIECBAgQIAAAQIECBAgkCCgCElAF0mAAAECBAgQIECAAAECBAjkCChCctylEiBAgAABAgQIECBAgAABAgkCipAEdJEECBAgQIAAAQIECBAgQIBAjoAiJMddKgECBAgQIECAAAECBAgQIJAgoAhJQBdJgAABAgQIECBAgAABAgQI5AgoQnLcpRIgQIAAAQIECBAgQIAAAQIJAoqQBHSRBAgQIECAAAECBAgQIECAQI6AIiTHXSoBAgQIECBAgAABAgQIECCQIKAISUAXSYAAAQIECBAgQIAAAQIECOQIKEJy3KUSIECAAAECBAgQIECAAAECCQKKkAR0kQQIECBAgAABAgQIECBAgECOgCIkx10qAQIECBAgQIAAAQIECBAgkCCgCElAF0mAAAECBAgQIECAAAECBAjkCChCctylEiBAgAABAgQIECBAgAABAgkCipAEdJEECBAgQIAAAQIECBAgQIBAjoAiJMddKgECBAgQIECAAAECBAgQIJAgoAhJQBdJgAABAgQIECBAgAABAgQI5AgoQnLcpRIgQIAAAQIECBAgQIAAAQIJAoqQBHSRBAgQIECAAAECBAgQIECAQI6AIiTHXSoBAgQIECBAgAABAgQIECCQIKAISUAXSYAAAQIECBAgQIAAAQIECOQIKEJy3KUSIECAAAECBAgQIECAAAECCQKKkAR0kQQIECBAgAABAgQIECBAgECOgCIkx10qAQIECBAgQIAAAQIECBAgkCCgCElAF0mAAAECBAgQIECAAAECBAjkCChCctylEiBAgAABAgQIECBAgAABAgkCipAEdJEECBAgQIAAAQIECBAgQIBAjoAiJMddKgECBAgQIECAAAECBAgQIJAgoAhJQBdJgAABAgQIECBAgAABAgQI5AgoQnLcpRIgQIAAAQIECBAgQIAAAQIJAoqQBHSRBAgQIECAAAECBAgQIECAQI6AIiTHXSoBAgQIECBAgAABAgQIECCQIKAISUAXSYAAAQIECBAgQIAAAQIECOQIKEJy3KUSIECAAAECBAgQIECAAAECCQKKkAR0kQQIECBAgAABAgQIECBAgECOgCIkx10qAQIECBAgQIAAAQIECBAgkCCgCElAF0mAAAECBAgQIECAAAECBAjkCChCctylEiBAgAABAgQIECBAgAABAgkCipAEdJEECBAgQIAAAQIECBAgQIBAjoAiJMddKgECBAgQIECAAAECBAgQIJAgoAhJQBdJgAABAgQIECBAgAABAgQI5AgoQnLcpRIgQIAAAQIECBAgQIAAAQIJAoqQBHSRBAgQIECAAAECBAgQIECAQI6AIiTHXSoBAgQIECBAgAABAgQIECCQIKAISUAXSYAAAQIECBAgQIAAAQIECOQIKEJy3KUSIECAAAECBAgQIECAAAECCQKKkAR0kQQIECBAgAABAgQIECBAgECOgCIkx10qAQIECBAgQIAAAQIECBAgkCCgCElAF0mAAAECBAgQIECAAAECBAjkCChCcrMGbRkAACAASURBVNylEiBAgAABAgQIECBAgAABAgkCipAEdJEECBAgQIAAAQIECBAgQIBAjoAiJMddKgECBAgQIECAAAECBAgQIJAgoAhJQBdJgAABAgQIECBAgAABAgQI5AgoQnLcpRIgQIAAAQIECBAgQIAAAQIJAoqQBHSRBAgQIECAAAECBAgQIECAQI6AIiTHXSoBAgQIECBAgAABAgQIECCQIKAISUAXSYAAAQIECBAgQIAAAQIECOQIKEJy3KUSIECAAAECBAgQIECAAAECCQKKkAR0kQQIECBAgAABAgQIECBAgECOgCIkx10qAQIECBAgQIAAAQIECBAgkCCgCElAF0mAAAECBAgQIECAAAECBAjkCChCctylEiBAgAABAgQIECBAgAABAgkCipAEdJEECBAgQIAAAQIECBAgQIBAjoAiJMddKgECBAgQIECAAAECBAgQIJAgoAhJQBdJgAABAgQIECBAgAABAgQI5AgoQnLcpRIgQIAAAQIECBAgQIAAAQIJAoqQBHSRBAgQIECAAAECBAgQIECAQI6AIiTHXSoBAgQIECBAgAABAgQIECCQIKAISUAXSYAAAQIECBAgQIAAAQIECOQIKEJy3KUSIECAAAECBAgQIECAAAECCQKKkAR0kQQIECBAgAABAgQIECBAgECOgCIkx10qAQIECBAgQIAAAQIECBAgkCCgCElAF0mAAAECBAgQIECAAAECBAjkCChCctylEiBAgAABAgQIECBAgAABAgkCipAEdJEECBAgQIAAAQIECBAgQIBAjoAiJMddKgECBAgQIECAAAECBAgQIJAgoAhJQBdJgAABAgQIECBAgAABAgQI5AgoQnLcpRIgQIAAAQIECBAgQIAAAQIJAoqQBHSRBAgQIECAAAECBAgQIECAQI6AIiTHXSoBAgQIECBAgAABAgQIECCQIKAISUAXSYAAAQIECBAgQIAAAQIECOQIKEJy3KUSIECAAAECBAgQIECAAAECCQKKkAR0kQQIECBAgAABAgQIECBAgECOgCIkx10qAQIECBAgQIAAAQIECBAgkCCgCElAF0mAAAECBAgQIECAAAECBAjkCChCctylEiBAgAABAgQIECBAgAABAgkCipAEdJEECBAgQIAAAQIECBAgQIBAjoAiJMddKgECBAgQIECAAAECBAgQIJAgoAhJQBdJgAABAgQIECBAgAABAgQI5AgoQnLcpRIgQIAAAQIECBAgQIAAAQIJAoqQBHSRBAgQIECAAAECBAgQIECAQI6AIiTHXSoBAgQIECBAgAABAgQIECCQIKAISUAXSYAAAQIECBAgQIAAAQIECOQIKEJy3KUSIECAAAECBAgQIECAAAECCQKKkAR0kQQIECBAgAABAgQIECBAgECOgCIkx10qAQIECBAgQIAAAQIECBAgkCCgCElAF0mAAAECBAgQIECAAAECBAjkCChCctylEiBAgAABAgQIECBAgAABAgkCipAEdJEECBAgQIAAAQIECBAgQIBAjoAiJMddKgECBAgQIECAAAECBAgQIJAgoAhJQBdJgAABAgQIECBAgAABAgQI5AgoQnLcpRIgQIAAAQIECBAgQIAAAQIJAoqQBHSRBAgQIECAAAECBAgQIECAQI6AIiTHXSoBAgQIECBAgAABAgQIECCQIKAISUAXSYAAAQIECBAgQIAAAQIECOQIKEJy3KUSIECAAAECBAgQIECAAAECCQKKkAR0kQQIECBAgAABAgQIECBAgECOgCIkx10qAQIECBAgQIAAAQIECBAgkCCgCElAF0mAAAECBAgQIECAAAECBAjkCChCctylEiBAgAABAgQIECBAgAABAgkCipAEdJEECBAgQIAAAQIECBAgQIBAjoAiJMddKgECBAgQIECAAAECBAgQIJAgoAhJQBdJgAABAgQIECBAgAABAgQI5AgoQnLcpRIgQIAAAQIECBAgQIAAAQIJAoqQBHSRBAgQIECAAAECBAgQIECAQI6AIiTHXSoBAgQIECBAgAABAgQIECCQIKAISUAXSYAAAQIECBAgQIAAAQIECOQIKEJy3KUSIECAAAECBAgQIECAAAECCQKKkAR0kQQIECBAgAABAgQIECBAgECOgCIkx10qAQIECBAgQIAAAQIECBAgkCCgCElAF0mAAAECBAgQIECAAAECBAjkCChCctylEiBAgAABAgQIECBAgAABAgkCipAEdJEECBAgQIAAAQIECBAgQIBAjoAiJMddKgECBAgQIECAAAECBAgQIJAgoAhJQBdJgAABAgQIECBAgAABAgQI5AgoQnLcpRIgQIAAAQIECBAgQIAAAQIJAoqQBHSRBAgQIECAAAECBAgQIECAQI6AIiTHXSoBAgQIECBAgAABAgQIECCQIKAISUAXSYAAAQIECBAgQIAAAQIECOQIKEJy3KUSIECAAAECBAgQIECAAAECCQKKkAR0kQQIECBAgAABAgQIECBAgECOgCIkx10qAQIECBAgQIAAAQIECBAgkCCgCElAF0mAAAECBAgQIECAAAECBAjkCChCctylEiBAgAABAgQIECBAgAABAgkCipAEdJEECBAgQIAAAQIECBAgQIBAjoAiJMddKgECBAgQIECAAAECBAgQIJAgoAhJQBdJgAABAgQIECBAgAABAgQI5AgoQnLcpRIgQIAAAQIECBAgQIAAAQIJAoqQBHSRBAgQIECAAAECBAgQIECAQI6AIiTHXSoBAgQIECBAgAABAgQIECCQIKAISUAXSYAAAQIECBAgQIAAAQIECOQIKEJy3KUSIECAAAECBAgQIECAAAECCQKKkAR0kQQIECBAgAABAgQIECBAgECOgCIkx10qAQIECBAgQIAAAQIECBAgkCCgCElAF0mAAAECBAgQIECAAAECBAjkCChCctylEiBAgAABAgQIECBAgAABAgkCipAEdJEECBAgQIAAAQIECBAgQIBAjoAiJMddKgECBAgQIECAAAECBAgQIJAgoAhJQBdJgAABAgQIECBAgAABAgQI5AgoQnLcpRIgQIAAAQIECBAgQIAAAQIJAoqQBHSRBAgQIECAAAECBAgQIECAQI6AIiTHXSoBAgQIECBAgAABAgQIECCQIKAISUAXSYAAAQIECBAgQIAAAQIECOQIKEJy3KUSIECAAAECBAgQIECAAAECCQKKkAR0kQQIECBAgAABAgQIECBAgECOgCIkx10qAQIECBAgQIAAAQIECBAgkCCgCElAF0mAAAECBAgQIECAAAECBAjkCChCctylEiBAgAABAgQIECBAgAABAgkCipAEdJEECBAgQIAAAQIECBAgQIBAjoAiJMddKgECBAgQIECAAAECBAgQIJAgoAhJQBdJgAABAgQIECBAgAABAgQI5AgoQnLcpRIgQIAAAQIECBAgQIAAAQIJAoqQBHSRBAgQIECAAAECBAgQIECAQI6AIiTHXSoBAgQIECBAgAABAgQIECCQIKAISUAXSYAAAQIECBAgQIAAAQIECOQIKEJy3KUSIECAAAECBAgQIECAAAECCQKKkAR0kQQIECBAgAABAgQIECBAgECOgCIkx10qAQIECBAgQIAAAQIECBAgkCCgCElAF0mAAAECBAgQIECAAAECBAjkCChCctylEiBAgAABAgQIECBAgAABAgkCipAEdJEECBAgQIAAAQIECBAgQIBAjoAiJMddKgECBAgQIECAAAECBAgQIJAgoAhJQBdJgAABAgQIECBAgAABAgQI5AgoQnLcpRIgQIAAAQIECBAgQIAAAQIJAoqQBHSRBAgQIECAAAECBAgQIECAQI6AIiTHXSoBAgQIECBAgAABAgQIECCQIKAISUAXSYAAAQIECBAgQIAAAQIECOQIKEJy3KUSIECAAAECBAgQIECAAAECCQKKkAR0kQQIECBAgAABAgQIECBAgECOgCIkx10qAQIECBAgQIAAAQIECBAgkCCgCElAF0mAAAECBAgQIECAAAECBAjkCChCctylEiBAgAABAgQIECBAgAABAgkCipAEdJEECBAgQIAAAQIECBAgQIBAjoAiJMddKgECBAgQIECAAAECBAgQIJAgoAhJQBdJgAABAgQIECBAgAABAgQI5AgoQnLcpRIgQIAAAQIECBAgQIAAAQIJAoqQBHSRBAgQIECAAAECBAgQIECAQI6AIiTHXSoBAgQIECBAgAABAgQIECCQIKAISUAXSYAAAQIECBAgQIAAAQIECOQIKEJy3KUSIECAAAECBAgQIECAAAECCQKKkAR0kQQIECBAgAABAgQIECBAgECOgCIkx10qAQIECBAgQIAAAQIECBAgkCCgCElAF0mAAAECBAgQIECAAAECBAjkCChCctylEiBAgAABAgQIECBAgAABAgkCipAEdJEECBAgQIAAAQIECBAgQIBAjoAiJMddKgECBAgQIECAAAECBAgQIJAgoAhJQBdJgAABAgQIECBAgAABAgQI5AgoQnLcpRIgQIAAAQIECBAgQIAAAQIJAoqQBHSRBAgQIECAAAECBAgQIECAQI6AIiTHXSoBAgQIECBAgAABAgQIECCQIKAISUAXSYAAAQIECBAgQIAAAQIECOQIKEJy3KUSIECAAAECBAgQIECAAAECCQKKkAR0kQQIECBAgAABAgQIECBAgECOgCIkx10qAQIECBAgQIAAAQIECBAgkCCgCElAF0mAAAECBAgQIECAAAECBAjkCChCctylEiBAgAABAgQIECBAgAABAgkCipAEdJEECBAgQIAAAQIECBAgQIBAjoAiJMddKgECBAgQIECAAAECBAgQIJAgoAhJQBdJgAABAgQIECBAgAABAgQI5AgoQnLcpRIgQIAAAQIECBAgQIAAAQIJAoqQBHSRBAgQIECAAAECBAgQIECAQI6AIiTHXSoBAgQIECBAgAABAgQIECCQIKAISUAXSYAAAQIECBAgQIAAAQIECOQIKEJy3KUSIECAAAECBAgQIECAAAECCQKKkAR0kQQIECBAgAABAgQIECBAgECOgCIkx10qAQIECBAgQIAAAQIECBAgkCCgCElAF0mAAAECBAgQIECAAAECBAjkCChCctylEiBAgAABAgQIECBAgAABAgkCipAEdJEECBAgQIAAAQIECBAgQIBAjoAiJMddKgECBAgQIECAAAECBAgQIJAgoAhJQBdJgAABAgQIECBAgAABAgQI5AgoQnLcpRIgQIAAAQIECBAgQIAAAQIJAoqQBHSRBAgQIECAAAECBAgQIECAQI6AIiTHXSoBAgQIECBAgAABAgQIECCQIKAISUAXSYAAAQIECBAgQIAAAQIECOQIKEJy3KUSIECAAAECBAgQIECAAAECCQKKkAR0kQQIECBAgAABAgQIECBAgECOgCIkx10qAQIECBAgQIAAAQIECBAgkCCgCElAF0mAAAECBAgQIECAAAECBAjkCChCctylEiBAgAABAgQIECBAgAABAgkCipAEdJEECBAgQIAAAQIECBAgQIBAjoAiJMddKgECBAgQIECAAAECBAgQIJAgoAhJQBdJgAABAgQIECBAgAABAgQI5AgoQnLcpRIgQIAAAQIECBAgQIAAAQIJAoqQBHSRBAgQIECAAAECBAgQIECAQI6AIiTHXSoBAgQIECBAgAABAgQIECCQIKAISUAXSYAAAQIECBAgQIAAAQIECOQIKEJy3KUSIECAAAECBAgQIECAAAECCQKKkAR0kQQIECBAgAABAgQIECBAgECOgCIkx10qAQIECBAgQIAAAQIECBAgkCCgCElAF0mAAAECBAgQIECAAAECBAjkCChCctylEiBAgAABAgQIECBAgAABAgkCipAEdJEECBAgQIAAAQIECBAgQIBAjoAiJMddKgECBAgQIECAAAECBAgQIJAgoAhJQBdJgAABAgQIECBAgAABAgQI5AgoQnLcpRIgQIAAAQIECBAgQIAAAQIJAoqQBHSRBAgQIECAAAECBAgQIECAQI6AIiTHXSoBAgQIECBAgAABAgQIECCQIKAISUAXSYAAAQIECBAgQIAAAQIECOQIKEJy3KUSIECAAAECBAgQIECAAAECCQKKkAR0kQQIECBAgAABAgQIECBAgECOgCIkx10qAQIECBAgQIAAAQIECBAgkCCgCElAF0mAAAECBAgQIECAAAECBAjkCChCctylEiBAgAABAgQIECBAgAABAgkCipAEdJEECBAgQIAAAQIECBAgQIBAjoAiJMddKgECBAgQIECAAAECBAgQIJAgoAhJQBdJgAABAgQIECBAgAABAgQI5AgoQnLcpRIgQIAAAQIECBAgQIAAAQIJAoqQBHSRBAgQIECAAAECBAgQIECAQI6AIiTHXSoBAgQIECBAgAABAgQIECCQIKAISUAXSYAAAQIECBAgQIAAAQIECOQIKEJy3KUSIECAAAECBAgQIECAAAECCQKKkAR0kQQIECBAgAABAgQIECBAgECOgCIkx10qAQIECBAgQIAAAQIECBAgkCCgCElAF0mAAAECBAgQIECAAAECBAjkCChCctylEiBAgAABAgQIECBAgAABAgkCipAEdJEECBAgQIAAAQIECBAgQIBAjoAiJMddKgECBAgQIECAAAECBAgQIJAgoAhJQBdJgAABAgQIECBAgAABAgQI5AgoQnLcpRIgQIAAAQIECBAgQIAAAQIJAoqQBHSRBAgQIECAAAECBAgQIECAQI6AIiTHXSoBAgQIECBAgAABAgQIECCQIKAISUAXSYAAAQIECBAgQIAAAQIECOQIKEJy3KUSIECAAAECBAgQIECAAAECCQKKkAR0kQQIECBAgAABAgQIECBAgECOgCIkx10qAQIECBAgQIAAAQIECBAgkCCgCElAF0mAAAECBAgQIECAAAECBAjkCChCctylEiBAgAABAgQIECBAgAABAgkCipAEdJEECBAgQIAAAQIECBAgQIBAjoAiJMddKgECBAgQIECAAAECBAgQIJAgoAhJQBdJgAABAgQIECBAgAABAgQI5AgoQnLcpRIgQIAAAQIECBAgQIAAAQIJAoqQBHSRBAgQIECAAAECBAgQIECAQI6AIiTHXSoBAgQIECBAgAABAgQIECCQIKAISUAXSYAAAQIECBAgQIAAAQIECOQIKEJy3KUSIECAAAECBAgQIECAAAECCQKKkAR0kQQIECBAgAABAgQIECBAgECOgCIkx10qAQIECBAgQIAAAQIECBAgkCCgCElAF0mAAAECBAgQIECAAAECBAjkCChCctylEiBAgAABAgQIECBAgAABAgkCipAEdJEECBAgQIAAAQIECBAgQIBAjoAiJMddKgECBAgQIECAAAECBAgQIJAgoAhJQBdJgAABAgQIECBAgAABAgQI5AgoQnLcpRIgQIAAAQIECBAgQIAAAQIJAoqQBHSRBAgQIECAAAECBAgQIECAQI6AIiTHXSoBAgQIECBAgAABAgQIECCQIKAISUAXSYAAAQIECBAgQIAAAQIECOQIKEJy3KUSIECAAAECBAgQIECAAAECCQKKkAR0kQQIECBAgAABAgQIECBAgECOgCIkx10qAQIECBAgQIAAAQIECBAgkCCgCElAF0mAAAECBAgQIECAAAECBAjkCChCctylEiBAgAABAgQIECBAgAABAgkCipAEdJEECBAgQIAAAQIECBAgQIBAjoAiJMddKgECBAgQIECAAAECBAgQIJAgoAhJQBdJgAABAgQIECBAgAABAgQI5AgoQnLcpRIgQIAAAQIECBAgQIAAAQIJAoqQBHSRBAgQIECAAAECBAgQIECAQI6AIiTHXSoBAgQIECBAgAABAgQIECCQIKAISUAXSYAAAQIECBAgQIAAAQIECOQIKEJy3KUSIECAAAECBAgQIECAAAECCQKKkAR0kQQIECBAgAABAgQIECBAgECOgCIkx10qAQIECBAgQIAAAQIECBAgkCCgCElAF0mAAAECBAgQIECAAAECBAjkCChCctylEiBAgAABAgQIECBAgAABAgkCipAEdJEECBAgQIAAAQIECBAgQIBAjoAiJMddKgECBAgQIECAAAECBAgQIJAgoAhJQBdJgAABAgQIECBAgAABAgQI5AgoQnLcpRIgQIAAAQIECBAgQIAAAQIJAoqQBHSRBAgQIECAAAECBAgQIECAQI6AIiTHXSoBAgQIECBAgAABAgQIECCQIKAISUAXSYAAAQIECBAgQIAAAQIECOQIKEJy3KUSIECAAAECBAgQIECAAAECCQKKkAR0kQQIECBAgAABAgQIECBAgECOgCIkx10qAQIECBAgQIAAAQIECBAgkCCgCElAF0mAAAECBAgQIECAAAECBAjkCChCctylEiBAgAABAgQIECBAgAABAgkCipAEdJEECBAgQIAAAQIECBAgQIBAjoAiJMddKgECBAgQIECAAAECBAgQIJAgoAhJQBdJgAABAgQIECBAgAABAgQI5AgoQnLcpRIgQIAAAQIECBAgQIAAAQIJAoqQBHSRBAgQIECAAAECBAgQIECAQI6AIiTHXSoBAgQIECBAgAABAgQIECCQIKAISUAXSYAAAQIECBAgQIAAAQIECOQIKEJy3KUSIECAAAECBAgQIECAAAECCQKKkAR0kQQIECBAgAABAgQIECBAgECOgCIkx10qAQIECBAgQIAAAQIECBAgkCCgCElAF0mAAAECBAgQIECAAAECBAjkCChCctylEiBAgAABAgQIECBAgAABAgkCipAEdJEECBAgQIAAAQIECBAgQIBAjoAiJMddKgECBAgQIECAAAECBAgQIJAgoAhJQBdJgAABAgQIECBAgAABAgQI5AgoQnLcpRIgQIAAAQIECBAgQIAAAQIJAoqQBHSRBAgQIECAAAECBAgQIECAQI6AIiTHXSoBAgQIECBAgAABAgQIECCQIKAISUAXSYAAAQIECBAgQIAAAQIECOQIKEJy3KUSIECAAAECBAgQIECAAAECCQKKkAR0kQQIECBAgAABAgQIECBAgECOgCIkx10qAQIECBAgQIAAAQIECBAgkCCgCElAF0mAAAECBAgQIECAAAECBAjkCChCctylEiBAgAABAgQIECBAgAABAgkCipAEdJEECBAgQIAAAQIECBD4f+3dCXxU1b0H8N+smaxCWQoIZZGgEtKAFQGfYIh1gYcgiFBthQdWUKRo8ZV+QB8q6IOCqEUo+mSTxUJBkf1VqKAssigIIm0RWQTUJJOEbLNklvPOnTt3lswkmUkDw5Pf/Xzygcyce86537N85vxzzx0KUIACiRFgICQx7iyVAhSgAAUoQAEKUIACFKAABShAgQQIMBCSAHQWSQEKUIACFKAABShAAQpQgAIUoEBiBBgISYw7S6UABShAAQpQgAIUoAAFKEABClAgAQIMhCQAnUVSgAIUoAAFKEABClCAAhSgAAUokBgBBkIS485SKUABClCAAhSgAAUoQAEKUIACFEiAAAMhCUBnkRSgAAUoQAEKUIACFKAABShAAQokRoCBkMS4s1QKUIACFKAABShAAQpQgAIUoAAFEiDAQEgC0FkkBShAAQpQgAIUoAAFKEABClCAAokRYCAkMe4slQIUoAAFKEABClCAAhSgAAUoQIEECDAQkgB0FkkBClCAAhSgAAUoQAEKUIACFKBAYgQYCEmMO0ulAAUoQAEKUIACFKAABShAAQpQIAECDIQkAJ1FUoACFKAABShAAQpQgAIUoAAFKJAYAQZCEuPOUilAAQpQgAIUoAAFKEABClCAAhRIgAADIQlAZ5EUoAAFKEABClCAAhSgAAUoQAEKJEaAgZDEuLNUClCAAhSgAAUoQAEKUIACFKAABRIgwEBIAtBZJAUoQAEKUIACFKAABShAAQpQgAKJETAmpliWSgEKUIACFKAABShAAQpQgAIUoAAFLo+Ax+NBUVERLly4AOO6desuT6kshQIUoAAFKEABClCAAhSgAAUoQAEKXEYBnU7nK81kMiE9PR1NmjSBsW3btpexCiyKAhSgAAUoQAEKUIACFKAABShAAQpcXgG9Xo+kpCRYLBYYGzdufHlLZ2kUoAAFKEABClCAAhSgAAUoQAEKUOASC2h3gyj/KoEQo9Go/mRkZFziopk9BShAAQo0hICnEjj7jRemJjq0aa7e4tcQ+TIPClCAAhSgAAUoQAEK/JAEtABI6DUpgRAtGKKz2+3ih3TBvJbEC3gqvPjihBdOd911SZULui7XGSDcXuza4ILlJhNuaRfflxnZT1UhN8sBzyAT9q5KhrnuYsNSFHzpwkcngf7y/NQ4z2XyK0lA4LWh5Zi8WYfVX6VhYOvogQKtv+B+E3atiL+/1PeKhVvg+FEPdE306Nw2eh8vP+hEjz5OtH3Cgq0vh/ZkgQ3TbJg4w4MLsgKWxgZ8fDYV2ab61iaW82LzjCWn0DRlZz04VSTQvJMBrdKit1H5BQ++zhdoJueGa6+Jnibecq/89JfGu6Gv+/yXblyQAbmaDnmnKTr+1IgUtwcPt6zE3vZGfLw/BTUMx5qyqfV1V5EHG//qwU33mtAu/WrpH7WS8E0KUIACFKAABeoQUAIjWnDEFwxRHhjCgwINKVB5qBID7nagKIZMb+iXhP0bLSjbUoHBv3Si3b06fLIuNa6AhNsoF5eyLJ3e4HsATnw92oO54+yYc0CPebuT8FhPQwy1ZpJ/RaDS6kahQ4dWrQ1xB61qL9cLg29NpINB3vJmMkUPNmj9BfXqL7XXoLZ3z24px933V0FkmvHJ0XRcF6WjmowuX1/WG/S+vqwdp1eXY5wMghgyjZg50YTWjYxonxJvX6+tdtHei80z2pk1vybw0fwKDHtd4IUtGXjmrmhfXCawb34lBr7qwe//cg1eGhItTc0l/P9951J4N6yGkMGNBaNteOVo8swhJQAADN5JREFUzfma043YVZAMGdOWf3GRo1FnUD5owFSPeEX0uUJg25xK/FL2jwdnmbBcjgceFKAABShAAQpQIFYBLSBiVKIhPCjQkALp3SxY8q4BVSH3Gm2bVYk3ZbDhN69acHub4CdiczP55F7ZBy29LZg8Hmh0T5Lv93gOvV5G9+QJ2r6v+M7WYdiTyXAdAn6ebZQf3OvxaT2eyl71ab14c1QpJm01YnN+I/Rr1rDe6gOhlf1/hhrbUusvwr9PML7+Ut8G9GLLCpcaHPzKjXW7vZh0R+QCv/oeRrU0gZ2blXP1+NOKDDzW/fIF62LxjE9EyHGqnqHTqbcmRp4fS5rIs34IrzS8d8OqCL3X334GTFtqQee0yPx1RgM6Jsm2dQca2ncLavxTa81zRa+HLHjK7vHdxcfPMJFtwFcoQAEKUIACFKhbIPKTeN3nMAUFahUwNTVhwODQv9J58d1KmzxHh255yRiSHbn0NDU145m58W5qqbUaMb6pQ/cH0+RPjMmZjAL1EHCed2LlOoEseQeE6QM33l/uxFMyEBJbjxcoKVGiiga0jXPbWD2qylMoUKeAEnq+bXAycmvZlnIp99w2+VkKXvlZndVkAgpQgAIUoAAFrmKBaM8ICeUw1pXgKrbjpTeYgHrHhpJd6N6s0OwdZ5z4w3wnGveyYMKQ8OVh/jEHFi1y4MDfvfBYdMjpY8avH00J7A3X/sKsBFp8+fszLpHnzVpUBX1LI8b/NgUto95BLfDxWxXYcEKHUVNTkRXywd5ldWHZAhs+2O9BsUvue882Y+QTKejZvnogR+DMPgeWrHTiyFdeeOVzD3rcZcGoh5PRKjl4lS5rFeb+wQFjdwse6QMsnWvD9kNq+l79kzFhtKXaliCB07vtWPC2E1+cEjA1Vq5dbt8ZnYxra3i2Qqip1+HB1uU2rPmrC+dKgGbtDRg8MgXDewchij6z4b9XuNFjWApanbTjrXddEN2SsfA57dkZXny2zoa333PhZIHAjzNNuG9kMgZ1rx5DFTi1w46lf6nC0dPR2kngwPIKrJbX+/lxpZZeLJlajg/TDRg7LRWZyVqrxV7e8W12vLHMGajXL8ZaAm1fUz9T+6CmpEPpP514a74De+QzbZKa6XGPdBg10OwPUHiwfHolvrDp8ajsG8E6yto73Jg/1YZv5RaVSVNSUNd3bx1b7cRnsnbTJqYhPbUUT61yYc9rQJ5s09Cjel+27rdhxqoq7DsSNPubtOo7OhUDsg04+OdyaQoMHWfByVWVWPuRFz3GpGPyELWNPRUevL+kEhs/csPqANp1NeNR2YdzWkb24Xg8tXw37XEjX/atFjeaMEz2i3u6Ve8XYZfn+0W74lrbyH9aZBqB7z51YMEip6+fmZsa0HeIHE9DkkKCSh6smVGJQ8KIMQ8Z8Y7cRrHnBDB23jXo39gd5xgESk86sfhtO/Yd9vrmgcxuZowYGz4PaOMod0QqbvZUyfo58Kkcs2nNDBggx+uIvOohL/m8mLj6b13jwouNr1dipywz2qEz6nDfhDTcFnI3XrR0db4WMr9Gtk21s4Od2T/vB9+v3bTuueL8zkq8ut4TGAdazrHMeVrasjNVWL7Yhl1HvaiQd69c392EEWPCx0b8c3adgkxAAQpQgAIUoMCVIiB4UOCSC3jEvMFyFQ2rWHLUE7W00n3logPyxR1PVoa87xWHl1wU18rXdSgQ3fsUid5dCuTyJl8071QsPvzG60trO1kpusrXsoeUC6f/7JK/28TdzfOF0WwVCw+4o5apvugRL98rn8qIIrH5WzU/5XXrpxWirzwfMt8bbraK3F6Foon8v0Fewx//VhWSn0e8N7VIpMr3jOZCcVueVdx8nfy//L1NzkWxOyRPrZ7texaJW5vli6YtCkXPmwtFU5lWKWfQM/ZA/YXwih2vlvjKTEv35/sTNV2LrIviYEGwrtEuzlVSJSb8mz99B6vIk/XqaFF+LxAPzwyW8/XyEl9dM7MKRYq/Hjf0LxMVMlOP3SXmPGD1vd/Cn0drvZJHoXh6qSPMYO3EIt/5GU0KxZ39g+3UShp8WqzU1SvenVQkunYpFGoe+aLj9YWiW9cSsb9MvZbYywvaKG5dulpFtrRJkvXKbKrUzyrW+ftGNButHRp1KBSdDWo79Oiqtq+S3wPP2/zt4BULRxT6zF7Y5ArL6rutpb62uX1MZUibRStNXrnLJf4zR9q0uSiOy65zes1FX38Zt1DrrcHzqo8DJa3PzN82ilnXLkofVOrjFSvGKOOqQL6m/Ku294Mz1baxn7aLX9wY3oeVcs3pRWLV0dAxEZ+n7aRN3NdRzbddllX07aPVr1CMmxfah6N5eMXaCarp9P8NNw2m9opNE62+65m8NjSNV2ydURwYE0qf7tJSrcfPn6gQxf4MFO/xndTxqL2v9NnX9rgCc0VsY1CII9L/OlkPnTy/R16RuFteqzrWrWLZoaChNo5ulX1fma9+cr1V3CLbTUmrlP3SptA5Iz7v2MaFW7zYr0D8OCP8p3mSOhcpdVgS1ubR2qbu17S+rJPz5Q7/uK3pLK/LKR7IyBetckpF6HCs27TuueLg7GLfvBTaP2Kd85T6nthY5hv7ytjJ6WkVt3dX28qcbhX/szfY5+Kbs2uS4OsUoAAFKEABClyJArgSK8U6/dAE6hcIqfyHGuBo3qlE7PpGC6AEgyPdHyr3LdirB0KUBeCgdmrQYs720AVINNfIQIjHXiXGZ0UGPYo+rxC5jZUFbYk4bFMX72c2lvoWPp36loqjvgW/cgQXOjkDywMLNK2eyofvR162++quHPbTMmgj8zWnF4sD/nyrCu3iLrOyiLgojgUWHDLoMqXItwDo/3u7/+xo/3jkAllZSKrlaMvtqkKn+E0PNVCwyL+I0xZwSsDopdUOURrI1iu2T7UKkyzrQRkY0OrqOGcXwzOVRWaR2O4Pxny/rcxnkDOwTJyxafXxiE2T1CDKyJfDgyaz+yl1KBJbwoI5sZen9YuMNsVi83FtMeoV+5df9AXTYg2EKIvD8W8EF+6lst8o16acr/loAY9bR1eEBanWjFMW84Vi5vaaFvPBdrm4Ww3yaW3mLneIgT/KFx16l4rvq8WzqgdC1Fw84sU7o5upgRAZqMoqFmsOuELqKBfG8hxlAT8rZBF+bke56CyNQsuOx1NZCD97m7q4f3aVM1Ce45xDjPyp+vr8vbUFHrVASL743Qqn+PacK+rP4scjAyFaP8uWgbrTgeCZWwbr1LaY4Q+saIEQJZDSY1iZ+OxUMPga3xiU7ZSeLxp1UIKuwTxO+Md8thzb2rgIHUehgdJ/rlMDuVpwUWnPeLyVuSTWcRg5E3jFhzPU+SJvbEWgrpHpYn/lXw2EVBXGbipDsSL6XCFEZCAk9jnPcc4mclPzRWqL8ICgMja6JSvze7H4xD+Xx9NfYldkSgpQgAIUoAAFrgSB6vdHXyk3qrAeV72AwI7Fdnwub6R/fJZyS7fWVXXo+h9peKwvcHitC8erfftz1fcOjOpfhvVn9Hj+/QxMvCPqfphadQt22vHnL4E7n07BhLzg+T/KScEzjxtQds6NnQc9Mg8PVsx1yK8zNeCFN9OQHdjmoEPuU3J7wr3AkQ1OrP/CG1ZeJ7ltZvbTwW0wlnYWDO2nQ1W5F1+fl+treTjl14eeqwJaZhmQGdiuo8eA36Zh1rMW9O4s09dwFcrt3Mve8qBtzyQ8N9ES2DKgPIdlyvMWNJH1/mBL+HcbD5JbP6YMS0KG/OpL5fBUyG088zxolJWE6VOSA1t2klpb8NwUeZt/lRvvya87Vo6k1kmYtTINb7yWiraBrUB65I6wIFO+f+xQ3d+jHHt5AnuXKf0CGDU9Ff1v1B4cqsMtv0rH4/18VYrp6HRXEmbK7TTapoUM2Q4zppmRIn3eXa1eW/PcZPRvAxxaX4Uj/r4m3G5s2OhFRhsTBvapayuI/IaLdxw4JR90ev9wtS8Z0swYNlSPU7tc2HosvG/EVPGIRHr87o/pGCq3K2nXUrpHbqnaBvSRt/o/+e/BPtw6NxUTR6hl7ziplB2fZ6HcqrVkN9BzRDL+a7i2hUjtA7P/lIIOcsvT4nl21PLtqoHaz/7VRbRqUxz1Z/QCZXyFHl4sf8XuG2vPz0sNbIvTWwx4bHoKuspy17/jDBsTRrMJcxam4aaIrWxALGNQeejnI3Jcr1yRjr6B+UdukbsnGXmyT5w97ME3ajcJVFQZR6FzRuaAFOS1AL7/h9efNj7v2MdFRKfA+Z0V+PVkN5rnJGHu7JS4vokrMrfwVwTcGNOrGDd1Kwr76d6rFEeqmYSeWR/TuuqivB/7nCewZ6kNcmcNHnkxDcPl9jLtUMbG61NNsJ1z4W25xS/0iKW/xFJPpqEABShAAQpQ4MoR+D8Xz8sEh2h5VgAAAABJRU5ErkJggg==;" parent="b5bX3gUsnpmr1mp6cXlo-54" vertex="1">
                    <mxGeometry width="393" height="237.25256673511294" as="geometry"/>
                </mxCell>
                <mxCell id="b5bX3gUsnpmr1mp6cXlo-33" value="" style="rounded=0;whiteSpace=wrap;html=1;sketch=0;hachureGap=4;fontSize=20;fillColor=none;strokeColor=#b85450;strokeWidth=1;dashed=1;" parent="b5bX3gUsnpmr1mp6cXlo-54" vertex="1">
                    <mxGeometry x="3" y="58.05882352941177" width="386" height="175" as="geometry"/>
                </mxCell>
                <mxCell id="b5bX3gUsnpmr1mp6cXlo-38" value="" style="rounded=0;whiteSpace=wrap;html=1;sketch=0;hachureGap=4;fontSize=20;strokeColor=#CC0000;fillColor=none;gradientColor=#ffffff;strokeWidth=1;dashed=1;" parent="b5bX3gUsnpmr1mp6cXlo-54" vertex="1">
                    <mxGeometry y="2.058823529411768" width="40" height="20" as="geometry"/>
                </mxCell>
                <mxCell id="b5bX3gUsnpmr1mp6cXlo-44" value="" style="rounded=0;whiteSpace=wrap;html=1;sketch=0;hachureGap=4;fontSize=20;strokeColor=#CC0000;strokeWidth=1;fillColor=none;gradientColor=#ffffff;dashed=1;" parent="b5bX3gUsnpmr1mp6cXlo-54" vertex="1">
                    <mxGeometry x="3" y="34.05882352941177" width="386" height="20" as="geometry"/>
                </mxCell>
                <mxCell id="b5bX3gUsnpmr1mp6cXlo-77" style="edgeStyle=none;curved=1;rounded=1;sketch=0;orthogonalLoop=1;jettySize=auto;html=1;entryX=1.017;entryY=0.706;entryDx=0;entryDy=0;entryPerimeter=0;fontSize=20;endArrow=open;startSize=14;endSize=14;sourcePerimeterSpacing=8;targetPerimeterSpacing=8;strokeWidth=2;exitX=1;exitY=0.5;exitDx=0;exitDy=0;fillColor=#e1d5e7;strokeColor=#9673a6;" parent="IwmPD_r2PDRioC0zgAHV-1" source="b5bX3gUsnpmr1mp6cXlo-66" target="b5bX3gUsnpmr1mp6cXlo-46" edge="1">
                    <mxGeometry relative="1" as="geometry">
                        <Array as="points">
                            <mxPoint x="1144" y="-268"/>
                        </Array>
                    </mxGeometry>
                </mxCell>
                <mxCell id="b5bX3gUsnpmr1mp6cXlo-78" style="edgeStyle=none;curved=1;rounded=1;sketch=0;orthogonalLoop=1;jettySize=auto;html=1;entryX=1;entryY=0.5;entryDx=0;entryDy=0;fontSize=20;endArrow=open;startSize=14;endSize=14;sourcePerimeterSpacing=8;targetPerimeterSpacing=8;strokeWidth=2;exitX=1;exitY=0.5;exitDx=0;exitDy=0;fillColor=#e1d5e7;strokeColor=#9673a6;" parent="IwmPD_r2PDRioC0zgAHV-1" source="b5bX3gUsnpmr1mp6cXlo-66" target="b5bX3gUsnpmr1mp6cXlo-7" edge="1">
                    <mxGeometry relative="1" as="geometry">
                        <Array as="points">
                            <mxPoint x="1160" y="-361"/>
                        </Array>
                    </mxGeometry>
                </mxCell>
                <mxCell id="b5bX3gUsnpmr1mp6cXlo-80" style="edgeStyle=none;curved=1;rounded=1;sketch=0;orthogonalLoop=1;jettySize=auto;html=1;entryX=1.018;entryY=0.647;entryDx=0;entryDy=0;entryPerimeter=0;fontSize=20;fontColor=#B266FF;endArrow=open;startSize=14;endSize=14;sourcePerimeterSpacing=8;targetPerimeterSpacing=8;strokeWidth=2;fillColor=#e1d5e7;strokeColor=#9673a6;" parent="IwmPD_r2PDRioC0zgAHV-1" target="b5bX3gUsnpmr1mp6cXlo-47" edge="1">
                    <mxGeometry relative="1" as="geometry">
                        <mxPoint x="939" y="-268" as="sourcePoint"/>
                        <Array as="points">
                            <mxPoint x="1242" y="-178"/>
                        </Array>
                    </mxGeometry>
                </mxCell>
                <mxCell id="b5bX3gUsnpmr1mp6cXlo-66" value="&lt;font color=&quot;#b9e0a5&quot;&gt;useTodoList&lt;/font&gt;" style="rhombus;whiteSpace=wrap;html=1;rounded=0;sketch=0;hachureGap=4;fontSize=20;strokeColor=#B9E0A5;strokeWidth=2;fillColor=none;" parent="IwmPD_r2PDRioC0zgAHV-1" vertex="1">
                    <mxGeometry x="771" y="-328" width="167" height="120" as="geometry"/>
                </mxCell>
                <mxCell id="b5bX3gUsnpmr1mp6cXlo-46" value="TodoTableHead" style="text;html=1;align=center;verticalAlign=middle;resizable=0;points=[];autosize=1;strokeColor=none;fillColor=none;rounded=0;sketch=0;hachureGap=4;fontSize=20;" parent="IwmPD_r2PDRioC0zgAHV-1" vertex="1">
                    <mxGeometry x="874" y="-159" width="149" height="28" as="geometry"/>
                </mxCell>
                <mxCell id="b5bX3gUsnpmr1mp6cXlo-45" style="edgeStyle=none;curved=1;rounded=1;sketch=0;orthogonalLoop=1;jettySize=auto;html=1;entryX=-0.005;entryY=0.623;entryDx=0;entryDy=0;fontSize=20;endArrow=open;startSize=14;endSize=14;sourcePerimeterSpacing=8;targetPerimeterSpacing=8;strokeWidth=2;exitX=1;exitY=0.5;exitDx=0;exitDy=0;fillColor=#f8cecc;strokeColor=#b85450;entryPerimeter=0;" parent="IwmPD_r2PDRioC0zgAHV-1" source="b5bX3gUsnpmr1mp6cXlo-44" target="b5bX3gUsnpmr1mp6cXlo-46" edge="1">
                    <mxGeometry relative="1" as="geometry">
                        <mxPoint x="902" y="-158" as="targetPoint"/>
                    </mxGeometry>
                </mxCell>
                <mxCell id="b5bX3gUsnpmr1mp6cXlo-10" value="" style="group" parent="IwmPD_r2PDRioC0zgAHV-1" vertex="1" connectable="0">
                    <mxGeometry x="874" y="-127" width="165" height="53" as="geometry"/>
                </mxCell>
                <mxCell id="b5bX3gUsnpmr1mp6cXlo-7" value="&lt;span style=&quot;color: rgb(240 , 240 , 240) ; font-family: &amp;#34;helvetica&amp;#34; ; font-style: normal ; font-weight: 400 ; letter-spacing: normal ; text-align: center ; text-indent: 0px ; text-transform: none ; word-spacing: 0px ; background-color: rgb(42 , 42 , 42) ; display: inline ; float: none&quot;&gt;&lt;font style=&quot;font-size: 20px&quot;&gt;StatusChangeBtn&lt;/font&gt;&lt;/span&gt;" style="text;whiteSpace=wrap;html=1;" parent="b5bX3gUsnpmr1mp6cXlo-10" vertex="1">
                    <mxGeometry width="165" height="28.002362538817216" as="geometry"/>
                </mxCell>
                <mxCell id="b5bX3gUsnpmr1mp6cXlo-39" style="edgeStyle=none;curved=1;rounded=1;sketch=0;orthogonalLoop=1;jettySize=auto;html=1;entryX=0;entryY=0.75;entryDx=0;entryDy=0;fontSize=20;endArrow=open;startSize=14;endSize=14;sourcePerimeterSpacing=8;targetPerimeterSpacing=8;fillColor=#f8cecc;strokeColor=#b85450;strokeWidth=2;exitX=0.5;exitY=1;exitDx=0;exitDy=0;" parent="IwmPD_r2PDRioC0zgAHV-1" source="b5bX3gUsnpmr1mp6cXlo-38" target="b5bX3gUsnpmr1mp6cXlo-7" edge="1">
                    <mxGeometry relative="1" as="geometry"/>
                </mxCell>
                <mxCell id="b5bX3gUsnpmr1mp6cXlo-47" value="&lt;span&gt;TodoTableBody&lt;/span&gt;" style="text;html=1;align=center;verticalAlign=middle;resizable=0;points=[];autosize=1;strokeColor=none;fillColor=none;rounded=0;sketch=0;hachureGap=4;fontSize=20;" parent="IwmPD_r2PDRioC0zgAHV-1" vertex="1">
                    <mxGeometry x="874" y="-83" width="147" height="28" as="geometry"/>
                </mxCell>
                <mxCell id="b5bX3gUsnpmr1mp6cXlo-37" style="edgeStyle=none;curved=1;rounded=1;sketch=0;orthogonalLoop=1;jettySize=auto;html=1;fontSize=20;endArrow=open;startSize=14;endSize=14;sourcePerimeterSpacing=8;targetPerimeterSpacing=8;fillColor=#f8cecc;strokeColor=#b85450;strokeWidth=2;entryX=-0.018;entryY=0.668;entryDx=0;entryDy=0;entryPerimeter=0;" parent="IwmPD_r2PDRioC0zgAHV-1" source="b5bX3gUsnpmr1mp6cXlo-33" target="b5bX3gUsnpmr1mp6cXlo-47" edge="1">
                    <mxGeometry relative="1" as="geometry">
                        <mxPoint x="610.7918739857264" y="65.00294117647081" as="targetPoint"/>
                    </mxGeometry>
                </mxCell>
                <mxCell id="b5bX3gUsnpmr1mp6cXlo-81" value="&lt;font&gt;llistDate&lt;/font&gt;" style="text;html=1;align=center;verticalAlign=middle;resizable=0;points=[];autosize=1;strokeColor=none;fillColor=none;rounded=0;dashed=1;sketch=0;hachureGap=4;fontSize=20;fontColor=#99FFFF;" parent="IwmPD_r2PDRioC0zgAHV-1" vertex="1">
                    <mxGeometry x="388" y="-483" width="81" height="28" as="geometry"/>
                </mxCell>
                <mxCell id="b5bX3gUsnpmr1mp6cXlo-83" value="" style="edgeStyle=none;curved=1;rounded=0;orthogonalLoop=1;jettySize=auto;html=1;endArrow=none;startSize=14;endSize=14;sourcePerimeterSpacing=8;strokeWidth=2;fillColor=#f8cecc;strokeColor=#b85450;exitX=0.5;exitY=1;exitDx=0;exitDy=0;" parent="IwmPD_r2PDRioC0zgAHV-1" source="b5bX3gUsnpmr1mp6cXlo-49" target="b5bX3gUsnpmr1mp6cXlo-81" edge="1">
                    <mxGeometry relative="1" as="geometry">
                        <mxPoint x="224" y="-431" as="sourcePoint"/>
                        <mxPoint x="588.9951576818171" y="-276" as="targetPoint"/>
                        <Array as="points"/>
                    </mxGeometry>
                </mxCell>
                <mxCell id="b5bX3gUsnpmr1mp6cXlo-82" value="&lt;font&gt;llistDate&lt;/font&gt;" style="text;html=1;align=center;verticalAlign=middle;resizable=0;points=[];autosize=1;strokeColor=none;fillColor=none;rounded=0;dashed=1;sketch=0;hachureGap=4;fontSize=20;fontColor=#99FFFF;" parent="IwmPD_r2PDRioC0zgAHV-1" vertex="1">
                    <mxGeometry x="3" y="-490" width="81" height="28" as="geometry"/>
                </mxCell>
                <mxCell id="b5bX3gUsnpmr1mp6cXlo-84" value="" style="edgeStyle=none;curved=1;rounded=0;orthogonalLoop=1;jettySize=auto;html=1;entryX=0.477;entryY=-0.043;entryDx=0;entryDy=0;endArrow=none;startSize=14;endSize=14;sourcePerimeterSpacing=8;exitX=0.25;exitY=1;exitDx=0;exitDy=0;entryPerimeter=0;fillColor=#f8cecc;strokeColor=#b85450;strokeWidth=2;" parent="IwmPD_r2PDRioC0zgAHV-1" source="b5bX3gUsnpmr1mp6cXlo-48" target="b5bX3gUsnpmr1mp6cXlo-82" edge="1">
                    <mxGeometry relative="1" as="geometry">
                        <mxPoint x="17.5" y="-421.8699999999999" as="sourcePoint"/>
                        <mxPoint x="-55.76000000000022" y="-291.2039999999997" as="targetPoint"/>
                    </mxGeometry>
                </mxCell>
                <mxCell id="b5bX3gUsnpmr1mp6cXlo-68" value="" style="group" parent="IwmPD_r2PDRioC0zgAHV-1" vertex="1" connectable="0">
                    <mxGeometry x="-367" y="-247" width="144" height="164" as="geometry"/>
                </mxCell>
                <mxCell id="b5bX3gUsnpmr1mp6cXlo-50" value="&lt;span style=&quot;color: rgb(240 , 240 , 240) ; font-family: &amp;#34;helvetica&amp;#34; ; font-style: normal ; font-weight: 400 ; letter-spacing: normal ; text-align: center ; text-indent: 0px ; text-transform: none ; word-spacing: 0px ; background-color: rgb(42 , 42 , 42) ; display: inline ; float: none&quot;&gt;&lt;font style=&quot;font-size: 20px&quot;&gt;TaskInput&lt;/font&gt;&lt;/span&gt;" style="text;whiteSpace=wrap;html=1;fontSize=20;" parent="b5bX3gUsnpmr1mp6cXlo-68" vertex="1">
                    <mxGeometry x="25" width="94" height="41" as="geometry"/>
                </mxCell>
                <mxCell id="b5bX3gUsnpmr1mp6cXlo-51" value="&lt;span style=&quot;color: rgb(240 , 240 , 240) ; font-family: &amp;#34;helvetica&amp;#34; ; font-style: normal ; font-weight: 400 ; letter-spacing: normal ; text-align: center ; text-indent: 0px ; text-transform: none ; word-spacing: 0px ; background-color: rgb(42 , 42 , 42) ; display: inline ; float: none&quot;&gt;&lt;font style=&quot;font-size: 20px&quot;&gt;DateTimePicker&lt;/font&gt;&lt;/span&gt;" style="text;whiteSpace=wrap;html=1;fontSize=20;" parent="b5bX3gUsnpmr1mp6cXlo-68" vertex="1">
                    <mxGeometry y="69" width="144" height="41" as="geometry"/>
                </mxCell>
                <mxCell id="b5bX3gUsnpmr1mp6cXlo-52" value="&lt;span style=&quot;color: rgb(240 , 240 , 240) ; font-family: &amp;#34;helvetica&amp;#34; ; font-style: normal ; font-weight: 400 ; letter-spacing: normal ; text-align: center ; text-indent: 0px ; text-transform: none ; word-spacing: 0px ; background-color: rgb(42 , 42 , 42) ; display: inline ; float: none&quot;&gt;&lt;font style=&quot;font-size: 20px&quot;&gt;Button&lt;/font&gt;&lt;/span&gt;" style="text;whiteSpace=wrap;html=1;fontSize=20;" parent="b5bX3gUsnpmr1mp6cXlo-68" vertex="1">
                    <mxGeometry x="45" y="129" width="66" height="35" as="geometry"/>
                </mxCell>
                <mxCell id="b5bX3gUsnpmr1mp6cXlo-61" style="edgeStyle=none;curved=1;rounded=1;sketch=0;orthogonalLoop=1;jettySize=auto;html=1;entryX=1;entryY=0.5;entryDx=0;entryDy=0;fontSize=20;endArrow=open;startSize=14;endSize=14;sourcePerimeterSpacing=8;targetPerimeterSpacing=8;strokeWidth=2;fillColor=#f8cecc;strokeColor=#b85450;" parent="IwmPD_r2PDRioC0zgAHV-1" source="b5bX3gUsnpmr1mp6cXlo-60" target="b5bX3gUsnpmr1mp6cXlo-50" edge="1">
                    <mxGeometry relative="1" as="geometry"/>
                </mxCell>
                <mxCell id="b5bX3gUsnpmr1mp6cXlo-63" style="edgeStyle=none;curved=1;rounded=1;sketch=0;orthogonalLoop=1;jettySize=auto;html=1;entryX=1;entryY=0.5;entryDx=0;entryDy=0;fontSize=20;endArrow=open;startSize=14;endSize=14;sourcePerimeterSpacing=8;targetPerimeterSpacing=8;strokeWidth=2;fillColor=#f8cecc;strokeColor=#b85450;" parent="IwmPD_r2PDRioC0zgAHV-1" source="b5bX3gUsnpmr1mp6cXlo-62" target="b5bX3gUsnpmr1mp6cXlo-51" edge="1">
                    <mxGeometry relative="1" as="geometry"/>
                </mxCell>
                <mxCell id="b5bX3gUsnpmr1mp6cXlo-65" style="edgeStyle=none;curved=1;rounded=1;sketch=0;orthogonalLoop=1;jettySize=auto;html=1;entryX=1;entryY=0.5;entryDx=0;entryDy=0;fontSize=20;endArrow=open;startSize=14;endSize=14;sourcePerimeterSpacing=8;targetPerimeterSpacing=8;strokeWidth=2;fillColor=#f8cecc;strokeColor=#b85450;" parent="IwmPD_r2PDRioC0zgAHV-1" source="b5bX3gUsnpmr1mp6cXlo-64" target="b5bX3gUsnpmr1mp6cXlo-52" edge="1">
                    <mxGeometry relative="1" as="geometry"/>
                </mxCell>
                <mxCell id="b5bX3gUsnpmr1mp6cXlo-90" value="property" style="text;html=1;align=center;verticalAlign=middle;resizable=0;points=[];autosize=1;strokeColor=none;fillColor=none;rounded=0;dashed=1;sketch=0;hachureGap=4;fontSize=20;fontColor=#99FFFF;" parent="IwmPD_r2PDRioC0zgAHV-1" vertex="1">
                    <mxGeometry x="-180" y="-761" width="84" height="28" as="geometry"/>
                </mxCell>
                <mxCell id="b5bX3gUsnpmr1mp6cXlo-91" value="&lt;font color=&quot;#cc99ff&quot;&gt;handler&lt;/font&gt;" style="text;html=1;align=center;verticalAlign=middle;resizable=0;points=[];autosize=1;strokeColor=none;fillColor=none;rounded=0;dashed=1;sketch=0;hachureGap=4;fontSize=20;fontColor=#99FFFF;" parent="IwmPD_r2PDRioC0zgAHV-1" vertex="1">
                    <mxGeometry x="-180" y="-696" width="76" height="28" as="geometry"/>
                </mxCell>
                <mxCell id="b5bX3gUsnpmr1mp6cXlo-93" value="hook" style="text;html=1;align=center;verticalAlign=middle;resizable=0;points=[];autosize=1;strokeColor=none;fillColor=none;rounded=0;sketch=0;hachureGap=4;fontFamily=Helvetica;fontSize=20;fontColor=#B9E0A5;" parent="IwmPD_r2PDRioC0zgAHV-1" vertex="1">
                    <mxGeometry x="-179" y="-666" width="53" height="28" as="geometry"/>
                </mxCell>
                <mxCell id="b5bX3gUsnpmr1mp6cXlo-94" value="&lt;font color=&quot;#ffffff&quot;&gt;component&lt;/font&gt;" style="text;html=1;align=center;verticalAlign=middle;resizable=0;points=[];autosize=1;strokeColor=none;fillColor=none;rounded=0;sketch=0;hachureGap=4;fontFamily=Helvetica;fontSize=20;fontColor=#B9E0A5;" parent="IwmPD_r2PDRioC0zgAHV-1" vertex="1">
                    <mxGeometry x="-179" y="-792" width="109" height="28" as="geometry"/>
                </mxCell>
                <mxCell id="b5bX3gUsnpmr1mp6cXlo-95" value="&lt;font color=&quot;#ffd966&quot;&gt;state&lt;/font&gt;" style="text;html=1;align=center;verticalAlign=middle;resizable=0;points=[];autosize=1;strokeColor=none;fillColor=none;rounded=0;sketch=0;hachureGap=4;fontFamily=Helvetica;fontSize=20;fontColor=#FFFFFF;" parent="IwmPD_r2PDRioC0zgAHV-1" vertex="1">
                    <mxGeometry x="-180" y="-728" width="53" height="28" as="geometry"/>
                </mxCell>
                <mxCell id="b5bX3gUsnpmr1mp6cXlo-96" value="task&lt;br&gt;dueDate&lt;br&gt;" style="text;html=1;align=center;verticalAlign=middle;resizable=0;points=[];autosize=1;strokeColor=none;fillColor=none;rounded=0;sketch=0;hachureGap=4;fontFamily=Helvetica;fontSize=20;fontColor=#FFD966;" parent="IwmPD_r2PDRioC0zgAHV-1" vertex="1">
                    <mxGeometry x="718" y="-531" width="86" height="52" as="geometry"/>
                </mxCell>
                <mxCell id="b5bX3gUsnpmr1mp6cXlo-101" value="" style="group;fontColor=#CC99FF;" parent="IwmPD_r2PDRioC0zgAHV-1" vertex="1" connectable="0">
                    <mxGeometry x="-223" y="12.19" width="454" height="237" as="geometry"/>
                </mxCell>
                <mxCell id="b5bX3gUsnpmr1mp6cXlo-99" value="" style="whiteSpace=wrap;html=1;rounded=0;sketch=0;hachureGap=4;fontFamily=Helvetica;fontSize=20;fontColor=#FFD966;strokeColor=#B9E0A5;strokeWidth=2;fillColor=none;" parent="b5bX3gUsnpmr1mp6cXlo-101" vertex="1">
                    <mxGeometry x="1.6841636680639533" width="328.41191527247094" height="229.44621513944222" as="geometry"/>
                </mxCell>
                <mxCell id="b5bX3gUsnpmr1mp6cXlo-111" value="&lt;font color=&quot;#ffd966&quot;&gt;task&lt;/font&gt;" style="text;html=1;align=center;verticalAlign=middle;resizable=0;points=[];autosize=1;strokeColor=none;fillColor=none;rounded=0;sketch=0;hachureGap=4;fontFamily=Helvetica;fontSize=20;fontColor=#CC99FF;" parent="b5bX3gUsnpmr1mp6cXlo-101" vertex="1">
                    <mxGeometry x="24" y="16.98371335504886" width="47" height="28" as="geometry"/>
                </mxCell>
                <mxCell id="b5bX3gUsnpmr1mp6cXlo-115" value="priority" style="text;html=1;align=center;verticalAlign=middle;resizable=0;points=[];autosize=1;strokeColor=none;fillColor=none;rounded=0;sketch=0;hachureGap=4;fontFamily=Helvetica;fontSize=20;fontColor=#FFD966;" parent="b5bX3gUsnpmr1mp6cXlo-101" vertex="1">
                    <mxGeometry x="91" y="16.98371335504886" width="70" height="28" as="geometry"/>
                </mxCell>
                <mxCell id="b5bX3gUsnpmr1mp6cXlo-113" value="dueDate" style="text;html=1;align=center;verticalAlign=middle;resizable=0;points=[];autosize=1;strokeColor=none;fillColor=none;rounded=0;sketch=0;hachureGap=4;fontFamily=Helvetica;fontSize=20;fontColor=#FFD966;" parent="b5bX3gUsnpmr1mp6cXlo-101" vertex="1">
                    <mxGeometry x="168" y="16.98371335504886" width="86" height="28" as="geometry"/>
                </mxCell>
                <mxCell id="b5bX3gUsnpmr1mp6cXlo-114" value="typed" style="text;html=1;align=center;verticalAlign=middle;resizable=0;points=[];autosize=1;strokeColor=none;fillColor=none;rounded=0;sketch=0;hachureGap=4;fontFamily=Helvetica;fontSize=20;fontColor=#FFD966;" parent="b5bX3gUsnpmr1mp6cXlo-101" vertex="1">
                    <mxGeometry x="259" y="16.98371335504886" width="59" height="28" as="geometry"/>
                </mxCell>
                <mxCell id="b5bX3gUsnpmr1mp6cXlo-118" value="&lt;span style=&quot;font-family: helvetica; font-size: 20px; font-style: normal; font-weight: 400; letter-spacing: normal; text-align: left; text-indent: 0px; text-transform: none; word-spacing: 0px; background-color: rgb(42, 42, 42); display: inline; float: none;&quot;&gt;handleOnSubmit&lt;/span&gt;&lt;br style=&quot;font-family: helvetica; font-size: 20px; font-style: normal; font-weight: 400; letter-spacing: normal; text-align: left; text-indent: 0px; text-transform: none; word-spacing: 0px; background-color: rgb(42, 42, 42);&quot;&gt;" style="text;whiteSpace=wrap;html=1;fontSize=20;fontFamily=monospace;fontColor=#CC99FF;" parent="b5bX3gUsnpmr1mp6cXlo-101" vertex="1">
                    <mxGeometry x="16.007058823529533" y="100.05636739707091" width="169" height="29.335504885993487" as="geometry"/>
                </mxCell>
                <mxCell id="b5bX3gUsnpmr1mp6cXlo-120" value="&lt;span style=&quot;font-family: helvetica; font-size: 20px; font-style: normal; font-weight: 400; letter-spacing: normal; text-align: left; text-indent: 0px; text-transform: none; word-spacing: 0px; background-color: rgb(42, 42, 42); display: inline; float: none;&quot;&gt;handleOnPrioritySelect&lt;/span&gt;" style="text;whiteSpace=wrap;html=1;fontSize=20;fontFamily=monospace;fontColor=#CC99FF;" parent="b5bX3gUsnpmr1mp6cXlo-101" vertex="1">
                    <mxGeometry x="16.01" y="129.39" width="210.99" height="29.34" as="geometry"/>
                </mxCell>
                <mxCell id="b5bX3gUsnpmr1mp6cXlo-119" value="&lt;span style=&quot;font-size: 20px ; font-style: normal ; font-weight: 400 ; letter-spacing: normal ; text-align: left ; text-indent: 0px ; text-transform: none ; word-spacing: 0px ; background-color: rgb(42 , 42 , 42) ; display: inline ; float: none&quot;&gt;&lt;font face=&quot;monospace&quot;&gt;handleOnChange&lt;/font&gt;&lt;/span&gt;" style="text;whiteSpace=wrap;html=1;fontSize=20;fontFamily=Helvetica;fontColor=#CC99FF;" parent="b5bX3gUsnpmr1mp6cXlo-101" vertex="1">
                    <mxGeometry x="16.009411764705884" y="158.72136452295697" width="177" height="29.335504885993487" as="geometry"/>
                </mxCell>
                <mxCell id="b5bX3gUsnpmr1mp6cXlo-140" value="&lt;span style=&quot;font-size: 20px ; font-style: normal ; font-weight: 400 ; letter-spacing: normal ; text-align: left ; text-indent: 0px ; text-transform: none ; word-spacing: 0px ; background-color: rgb(42 , 42 , 42) ; display: inline ; float: none&quot;&gt;&lt;font face=&quot;monospace&quot;&gt;handleOnDateAccept&lt;/font&gt;&lt;/span&gt;" style="text;whiteSpace=wrap;html=1;fontSize=20;fontFamily=Helvetica;fontColor=#CC99FF;" parent="b5bX3gUsnpmr1mp6cXlo-101" vertex="1">
                    <mxGeometry x="18.999411764705883" y="188.06136452295698" width="177" height="29.335504885993487" as="geometry"/>
                </mxCell>
                <mxCell id="b5bX3gUsnpmr1mp6cXlo-102" value="" style="group" parent="IwmPD_r2PDRioC0zgAHV-1" vertex="1" connectable="0">
                    <mxGeometry x="-139" y="-361" width="173.07" height="280" as="geometry"/>
                </mxCell>
                <mxCell id="b5bX3gUsnpmr1mp6cXlo-57" value="TodoForm" style="text;html=1;align=center;verticalAlign=middle;resizable=0;points=[];autosize=1;strokeColor=none;fillColor=none;rounded=0;sketch=0;hachureGap=4;fontSize=20;" parent="b5bX3gUsnpmr1mp6cXlo-102" vertex="1">
                    <mxGeometry x="36.54000000000002" width="100" height="28" as="geometry"/>
                </mxCell>
                <mxCell id="b5bX3gUsnpmr1mp6cXlo-69" value="" style="group" parent="b5bX3gUsnpmr1mp6cXlo-102" vertex="1" connectable="0">
                    <mxGeometry y="31" width="173.07" height="249" as="geometry"/>
                </mxCell>
                <mxCell id="b5bX3gUsnpmr1mp6cXlo-56" value="" style="shape=image;verticalLabelPosition=bottom;labelBackgroundColor=default;verticalAlign=top;aspect=fixed;imageAspect=0;image=data:image/png,iVBORw0KGgoAAAANSUhEUgAAAV8AAAH5CAYAAAAm8D1yAAAABHNCSVQICAgIfAhkiAAAIABJREFUeF7t3QdYVFfCBuCPjnQpSlWKiqJgAVuwl8SYqCmm7iZ/sumJSXZTN5u6m7K76dlUYzamZ5MYu1Fj7w0RRJoKKF2KdHAYYP5zh87M4IzccQbmu8/jbrhz5pT33Pnmzrl3wEolNnCjAAUoQIHLKmB9WVtjYxSgAAUooBZg+PJAoAAFKGACAYavCdDZJAUoQAGGL48BClCAAiYQYPiaAJ1NUoACFGD48higAAUoYAIBhq8J0NkkBShAAYYvjwEKUIACJhBg+JoAnU1SgAIUYPjyGKAABShgAgGGrwnQ2SQFKEABhi+PAQpQgAImEGD4mgCdTVKAAhRg+PIYoAAFKGACAYavCdDZJAUoQAGGL48BClCAAiYQYPiaAJ1NUoACFGD48higAAUoYAIBhq8J0NkkBShAAYYvjwEKUIACJhBg+JoAnU1SgAIUYPjyGKAABShgAgGGrwnQ2SQFKEABhi+PAQpQgAImEGD4mgCdTVKAAhRg+PIYoAAFKGACAYavCdDZJAUoQAGGL48BClCAAiYQYPiaAJ1NUoACFGD48higAAUoYAIBhq8J0NkkBShAAYYvjwEKUIACJhBg+JoAnU1SgAIUYPjyGKAABShgAgGGrwnQ2SQFKEABhi+PAQpQgAImEGD4mgCdTVKAAhRg+PIYoAAFKGACAYavCdDZJAUoQAGGL48BClCAAiYQYPiaAJ1NUoACFGD48higAAUoYAIBhq8J0NkkBShAAYYvjwEKUIACJhBg+JoAnU1SgAIUYPjyGKAABShgAgGGrwnQ2SQFKEABhi+PAQpQgAImEGD4mgCdTVKAAhRg+PIYoAAFKGACAYavCdDZJAUoQAGGL48BClCAAiYQYPiaAJ1NUoACFGD48higAAUoYAIBhq8J0NkkBShAAYYvjwEKUIACJhBg+JoAnU1SgAIUYPjyGKAABShgAgGGrwnQ2SQFKEABhi+PAQpQgAImEGD4mgCdTVKAAhRg+PIYoAAFKGACAYavCdDZJAUoQAGGL48BClCAAiYQYPiaAJ1NUoACFGD48higAAUoYAIBhq8J0NkkBShAAYYvjwEKUIACJhBg+JoAnU1SgAIUYPjyGKAABShgAgGGrwnQ2SQFKEABhi+PAQpQgAImEGD4mgCdTVKAAhRg+PIYoAAFKGACAYavCdDZJAUoQAGGL48BClCAAiYQYPiaAJ1NUoACFGD48higAAUoYAIBhq8J0NkkBShAAYYvjwEKUIACJhBg+JoAnU1SgAIUYPjyGKAABShgAgGGrwnQ2SQFKEABhi+PAQpQgAImEGD4mgCdTVKAAhRg+PIYoAAFKGACAYavCdDZJAUoQAGGL48BClCAAiYQYPiaAJ1NUoACFGD48higAAUoYAIBhq8J0NkkBShAAYYvjwEKUIACJhBg+JoAnU1SgAIUYPjyGKAABShgAgGGrwnQ2SQFKEABhi+PAQpQgAImEDDb8FUpK5F3NhO5hTVaWepKc5F9tgAXmjQfbqwtFY/l4FxZvfrB4kPL8MgDS7B8Z7lmYbPYU4fNnzyOB5e8i/jzKrPokaV2oi5rFf720AN448cUsyQ4s+Vt9bG8Ik7Ro/41KUpx6vhh7N2zD3HHM1Des+p61BdLfbKtuQ5c1ZSFlR9+ilNOs/DcyzfDz6ZjT6uw7bu3sD7NGTc+8RrmDu38HpK1bzneW3EGk+78F+6ItTfqEJsUlaiqBexd3NDPzqhNsXIzE1BUV6JaaQv3/k4w2xeSFrNzCSvx+be/I7e6/Y3exiUEC+96EPMiPbQ8g7uMIWC2Z77WDqEYFuyA+vO5yCnrfDbYWHsSp84qoGoqRXp6QReXOmRn5qDRLhChoc7GMOtUZ8aOz/G3v76MjSlaTsGN3jobMJ1AHXZ+9SKef3EZUqt6z6eV+uLd+HL57yi0HoYFd/4ZL7zwAh65YxZ8ms5g3de/4GQvGovp5l6els02fAFXEZ6+UClzkH2mefmgdchVJ5Nwps4W9g5ATvoJVHa0aMpB5hkF7D1CETrASh4l1kKBPiJQkJyA3Au2mLjgT7g2dgSCgoIQNeUW3Dg1AA1VKUg61fm11keGbZbDMOtPSwFDwuBufQaZmRlATEQLoBKnUzNRbzcUU6IrsPdoGs5WXIlI9+agVZzLQrb4OOU5Ngw+nZYqmp9efvYIdu+Lx9nSeji4+CJy8pWYPNxdY3Jqi5Kx/2A8snLKUdNkhwFB4Zg0NRahXs3LGFVZB7A5Lg8VucVogBLp+3/FipP2CJ+yEJF+3YW+Evlp+7HnQCqKqpVw9QnFhGkTNdpv3aFqqkXW8f04kpiBosp6OLr5ImJsLCZG+Xf7UbehMgVbtqSg3nMk5s0cAfE+1bYpCuLw294zcBp8Ba6a4N+2vzTrCPYdSkJecQ2aHNwRMmI8rpg0Ah4dllMaKtNFvUmwDur8XKmSrENrcTTXETFz5iK4ZT60DexM3DrEnXXB5KunoOHkLuyJS0NZnUpYhOOKmTMwbKDmUtGFsiwc3LMXp8R8KGzcEBQ+DtOnRHbqW2tbzXMsxlFaAxsxx+FjYhE7VtOrsTYXB3fsxfEzxWgUdYaOnICxA7X1uPM+9Tiza3C2SCyUNp7D/nW/It3BF9MWTsGADlb6eHbXWm1hMnbuPIQMMR/SsTo8Zga6654+7QVNvhf/HNcAu35unZr28nQXx9M51NYpxf6OR0t3PeRjPREw6/B1CAyDX7/tyBfLCOcRAU9ppE15SE4vhtvgWEyNqcDRgweQLt6tI2OaD5iKMxkorbdDTGhYl3ASoZewHP9ckQErH1942NThdMoJxB89gfMPPI1rIl3aHHPjv8enX+0WbXphUKgfnJvO4dDmY+LixDHc8fgSTB5kD0VZNtLST6G+Wiz4ivAtzU9HY6kdPMcsED/rCl8R0ts+xdIVyai1cYK/vy/Kirbh6P596O+kecVDpczFumUfYkNiOfp5BWLwAHtkn9iNuP27sG/yH/HAnZPEm5P26bd1cUJR0jYcqijCsJjhGOHa3qf0Axuxaet5zLlnXsuT63Bs3cf46rdTUDr5IiTIA8q8BGw4ug+7ds/G/UtuQlhLmDbWnMH+bVtgM2FYp+CWKspN3Y6tcV7wmySFr/Z+SXsL03dj614nFBbuRlpqNQb4ewN153DixAnEHcvAQ88+iJGe7f09n7YKHy/bjHylJwYF+8C2Khm/H9uPg0fm4dHHroe/Y2tbSpzY9Cm+XJOMRhFWwQEeqDy1Wxwju3Bkxv14+LYoOLUUld6cvnn/UxzKq1fb+rqUYtsv+7HL3RsXRJn2o0FzHOfz0sXc16C6SnqsDrmn0lBiV4/oRvGjOnz199SsvXlPWcZ6fPTxeuTW2KK/fxA8KhLw6+H9cPW2FW/2XTf927N2cIKbRrbWiddQNhqtvRAU0CrUtQ3+LLeAWYevjVMwhgbZ42RWBs7ViLNZZysozqXjdJENgieMQuCQEoQ4bxcv4HQ0xESJsFWKs2TpIBqIkFDNV39ejgo3Lnkds1vOdM8lfI93lu7G3l3HMCdyqvr9vrE6Dqt+2IMqj8l4/M//h+EtIVCU9D3e/mQ3ftsQj3EPTYL3uFvwwjjg1Ka38f6qPFyx+G+4YbSOJGyZtfpze/DT2hQ0eI3HI4/cKc6QpTM8pThj/B5ffHugy9wqkbRuOTYn1mDE7Mdx3+IIOIvqVcpS7Pz+ffzvwE9YERCEe+YGaD8mrIMxQZzt7ReBmnBC1DG5JU6ackXI5cPGeRzGjGxeEy9NWokfRTnnYQvwyP3XIEA4S/1K37ZMvFFsw7c/DMIzYsxyvixVTYXIOj8NS165CcO9JYc6HF/5PpZuTsaeI8UYedUA9bgaKuPw9ZebUdwvBg8/I8zUZ8Wib1s+xScrt2HF5nF4bNFgddlKEdLfiOB1HXkLHr1vFrzFhEpeW756Eyt3/w87R4djfoQ0y3WIW/0/Eby2GD3/IdyzKKJl7rOwatlH2FKkrk7nFn3D04i+Qdyh8tFfsSotGDc/8RgiO7y59dRTpRTrr99vQH5DABY8/CiuHd18EawidzeWf/wDirucVvS0vewD32FTfBW8Ry7ChODuj2GdKHzAYAEzl/ZCWKiPeAFlIuts80WNgpR0nFd5YUSEH6wdhmHkUAcUpaehWDrrEGeomWcqYOsWirCArmefdoiYfUtb8EpSA6PGY5iHFWqKCnBeer60Wfti+i1/wn13Xd8WvNLuASNFWRHEFXnZ7WVbnqLv/2Uc3Ie8C/0w+ZpbW4JXeqYdQibeiGnD207f1NU11qZg1/482PpNw83XNQevtN/KzgvTbl6MSM86JGzfiZzWfmvpREj0BAywqUVKwgm0nlcrziUjtbAJvqPGiTcuyagKB7YfRqVNCBbd3hq8UmV2CJ99B64SnwgKj2/BsTx5LypZibOsq25a3BK8Unv9MGzCOHjaKFFYUNg2mqz9O3G6oh+uWCjM2pYjpL4txLiBjTh99BAK1AZiHFv3iXGEY9GtM9XBK22S14yFs+BvW4qjh8WbtNjXWJ2MAwlFcBS211/bHLxSWemK/zVi6UDXp4nmGi/2vz33rDy5DwkFTQgYvwjzWoJXatU9cBqumT64S/T2rL1z8V9h6fdxaPCZjDvumCLrG+zFpCz9cTMPX8B/SKg4IKrEGW2BmKsqpKdmwMZrJMKDpK73w/ARYeLjfjoyC1VoqM4V9wWr4C6WHAZoWe91dup694M9+jlYiXBXtn2Us3EKRNT4CYgMdcL5nHQcP9J8L+TePUkoF8thqsb2soYdPFXIzikRYRCE8PCu/RAfQLrMhCI3HVnibD8gYhT8uyyB2jhFYHS4C5RVmcgW49W1OQaORpS4Y6T0ZDwyW65i55xIEm9erhgdPUr9Im5SZApbBVz8RmHowK5vWK6IjAqDjXhTy8io0NXMJe7vB2fXzgOzdrCDnZi3hrb5EPN+WrpzxRNu1jnio35a+79T1WId1E7cDVOAklqV+g36pBiHvYen+njoWDbzvK24DdAKlYUF6ouz9edyUCDWmAcMDe9yC6N4UMxDTz4OyuFZlJMNhbjOMHxEuEZf7Gw638/Yk/YUBdux9OuDqPOcjPsf+z+Ed7NOf4mTzKd1I9CT46ybauV7yGVwGHzt9yA3M1PcT9sPKeIFNlAER+vFNO/wcAy0XYe0lGKM8s1AYYMtwkNDe3TJoDxrG374dgMS82rE2bUTXMX6qb1NPaqkALvk2yBrUClCwsraFW4uXUNO06te3EMqvQDdxBqk5mYHd9EnNNahUh2quurzxfjoQdj5c+vSg0IsOWTDym0cRo9oPjVsqqsUFxRVsHN3R9e3BKldN3cnSO9jldXSl10uefCaQ9BrjzCrqhfBmos1y97X+gwru0bUSde9VHXinlsVFMUH8MW7XZdwmp/qeKEWjeKOwMbaCvWXcwaJMcu9yeFZV10nls7c4CzeXC629aS9E/t2Ir/eBXOvu018AtF1DF2sB3z8UgXMPnxtXMS6b4A9tmZniLscbJFT1w+x4my3teP2PiMxxGc1ktLTcfJCNmrFRbKwUG2BpR+RtMa4/NNfkG0fg7ufugkxQ6WrwGIT90F+/cq/ESddDL6kTZzVqV9L4sxZj1uCbe36idATZcVZoLatXindEuTQUqe2Es37AqMnInDt9+qlh4phSqSKN6+gSRMQ2HLSaWVrJ9qxQpNoR9sKhlLRvN+2yxmX7hblfURq19ohGLc8fB2CtBytVtb9MFCcsVmJAJbG4RYyC3cujtH68dnawQ39xZltvZgIW/H/DY2al6562ns5PO3UB0qtuI/94r259PbqUFIoPs3YDEZomObdJRdvmSV6KqDlcO5plXI/31eEqQc2Zxfi6NEaXHAciojwDgeLdSCGhftg35EkJFgVigtJYzFEvSRxaVtZ6jGxxmiLmNsWY5IIXvk2N/iK29RUJ8+hIK8Jw8O676O9rx+k61DncnLEem1AlzN5cbEqp1YsYfhh4EXuZbb1GINxQ1dgjVh62HdYhdwGL1wb3f7mZSPubhjoZSWWL7JRJPI8uMvrMOeM+Nhv7Qg/32YLK9FtK3Eq3NjUvPxi3APIC96SWZY463YKQdigbs7ObDzhKe6eyqlQwn1QKMQNKTq3Ji8/eIiOF+UXCNvBPfqU1LURQz27Pl/62WuAl3qpJyevBIhovvCorZy079Lb64erlnyAq3RVzP1GF+g+AYzevH4NDBLrvg6NuUg4XiTObCIxWH2hqH0bGhEOh5oUHE+/ALdgcXtaNy+8i7WoEqEinZ1WVXRe4yzLOoaMcs1TESmIpPLSmWP3mx2GRI0SZ2SFOCDurpBuUGvdGqtPIiuv861m9j5ivTbUASWpW7A/o/ON76XiFrIjWQp4j5iIsA5X2bW374px40fB7kIKNm5MFevlYzBGXKRs21ruilCWJ2L73rxOVTSUH8C2w0Ww8xiFqPDm59g4e8HD2gpV4sJjWQeOJkUWsrI1b5fT3id999phxFjJLBc7Nx4SyyOdn1eUvAsHT7X87g/rEIyJGgBleRy27MrrcjuWuJNil7hw1/J7M+x9IjDC3wFlqTtxJLujrRJn0zNQoTnN2jusfvU0dv4kY6Cntoo9R4zFYMcGpIhlgbNi3b9tk77Reaqg89hkaE9bH7jP+ALGPXGRqf8uocPha3sAZ8T9u8NGhWt8pHQJG46gfnuQVmMn7svt2XqvdOAHux5H6ral+FwxA+EiyStyEsQXLlLVF9ysFWLdUPp8rg5dwNvHW/znKSTuWQv/hsEYGDoeYTrORr2j5om7GpKw8dByfKDIQexof1jV5uDI3p04KQVDS53NNXthzo3XIOn9VVjx2bsomjOzpS/HsH3rYdS4jBR3QUzUsNBG7hk5DkOcj+KEWB8OHzNO4yLTsLm3IPbER9i/8mMoSuZi/HBxh0lZJnaL+3lPVXli9t3XIaTlZgwbl3CMFBcM0xO34av/2mPKGB80VBQi4eBOnBBn9FYXX6bU1kWd+7zFfdPzxqTi1/jv8M5HOZg5WXzpw7YSOWmHsW1fKjxHuyBqaLRwsMOYq2/F2NRPcWTle+IOFvHlmQh/MV8lSI8X90UnlWOCKgJDZkhnkr6YJe5qiPt0G3788F3kzpqCEPcGFJ46jN1HMrTcR6ute/3g5eWuvtC3Y/1O1Id5I2xspPouC0M8tdVs6xGDq2ftxGe/bcMn71di1pQocQeGCN74fTicVi2e0hn50tqrw9EVH2F1cn/c8sg9GMU1X21TYdR9Nq+IzagtyFC5tZ0tChJ240ztIMy64UoM6nK2Z23nqr6ZPq3EFbFXL0JYlwOpNi8eO4+dg3/kLIwN7nBLl6ocSbv2IbdxEGJnSQe4CFfHIEQE2yL/9AkkHj+BJPEvp8wVkxb9EeGNiTgl7i4IiZmGQW7NZ98OXt5Q5hxHQkoKEsW6qtOQOYjw1/GeZuWCoaNC0FCSieTEYziWcEx8nbMYAWNvwWT/s0jLc0b0zMniiyXNddu7DxEXxtxQdjYRh/YdxOEjcThxqgxe4dNx+91/xFhd7XQxt7bzQX3+HiTle4pAvx4hHb7AIBW1FrdjjRwTCqvzGYg/tA8HDx5GfNIpNHpGYtEf7hHLFF4danRA8FBfVJ1NExfvjiM+XowhLQ/uw69G7KBSnMy3weip7T7apj83aQsSsh0welrnco21WeKea/EFiYHRmBEtglN6spUTQkePg5f4Jlla4kEcPHQIh+MSxb3etoicdjvuujUari1vWtYOPhgzWtz9Ir4NlxAnvA4fxlExJ0UN/pi9+B4sntZSp6jWacAwDB1wAVnJyUiU5iJRlGscjGtuiEZ1yimIhXFMjfTR1v22fd4DHZGXfAIpKYlISK7AkCmT1HNnmKe2JmwwYNgYDFDlIjUpUX2cJIjfPNY0YIoYgzuSUs4hJPqqtuPs0tq7gLQ9G8Q3DYHwSVPajmdtveE+4whYqcRmnKp7e61i6aGoBNVNzug/wA2O3S7QNJettXOHl56/4UpRXYLz4r4nVxHeLh1WAXSpKSpFeXHS4+LhDVeDv+1QhfUfvIAtZTPwwkvXw6ebsUi/pa1EfC3X1sVbrKF2fxpbXVaAqjqpT36X0CddI9W9X/qqdXlRBRTWzvDw7n5OWsehEl+T9vLS/VvHWuusl+aum3K6eiU9v0T0yUby0nJ3giGe2tow9PmGlJeW2C4o7cTtltpa5j5jCzB8jS1sBvVfyN2MN/61DgPmPYcl1waYQY/YBQpQQMfnY8L0BYHSzARxIa9A/C6G31BiH4Fbp7b/Ep2+MD6OgQK9WYDh25tnr9u+K5GyYzm+O3xBfN1a/KLsu29HBL/B1K0YH6TA5RTgssPl1L7MbV0oy0V+mbh4E+Cn17ryZe4em6OARQswfC16+jl4ClDAVALdXPc2VZfYLgUoQIG+L8Dw7ftzzBFSgAJmKMDwNcNJYZcoQIG+L8Dw7ftzzBFSgAJmKMDwNcNJYZcoQIG+L8Dw7ftzzBFSgAJmKGC2X7LIy+v86w3N0I5dogAFZBQICLCsr76bbfiuXr1axmllVRSggLkLPPLII+beRVn7xy9ZyMrJyihAAQroJ8A1X/2cWIoCFKCArAIMX1k5WRkFKEAB/QQYvvo5sRQFKEABWQUYvrJysjIKUIAC+gkwfPVzYikKUIACsgowfGXlZGUUoAAF9BNg+OrnxFIUoAAFZBVg+MrKycooQAEK6CfA8NXPiaUoQAEKyCrA8JWVk5VRgAIU0E+A4aufE0tRgAIUkFWA4SsrJyujAAUooJ8Aw1c/J5aiAAUoIKsAw1dWTlZGAQpQQD8Bhq9+TixFAQpQQFYBhq+snKyMAhSggH4CDF/9nFiKAhSggKwCDF9ZOVkZBShAAf0EGL76ObEUBShAAVkFGL6ycrIyClCAAvoJMHz1c2IpClCAArIKMHxl5WRlFKAABfQTYPjq58RSFKAABWQVYPjKysnKKEABCugnwPDVz4mlKEABCsgqwPCVlZOVUYACFNBPgOGrnxNLUYACFJBVgOErKycrowAFKKCfAMNXPyeWogAFKCCrAMNXVk5WRgEKUEA/AYavfk4sRQEKUEBWAYavrJysjAIUoIB+Agxf/ZxYigIUoICsAgxfWTlZGQUoQAH9BBi++jmxFAUoQAFZBRi+snKyMgpQgAL6CTB89XNiKQpQgAKyCjB8ZeVkZRSgAAX0E2D46ufEUhSgAAVkFWD4ysrJyihAAQroJ8Dw1c+JpShAAQrIKsDwlZWTlVGAAhTQT4Dhq58TS1GAAhSQVYDhKysnK6MABSignwDDVz8nlqIABSggqwDDV1ZOVkYBClBAPwGGr35OLEUBClBAVgGGr6ycrIwCFKCAfgIMX/2cWIoCFKCArAIMX1k5WRkFKEAB/QQYvvo5sRQFKEABWQUYvrJysjIKUIAC+gkwfPVzYikKUIACsgowfGXlZGUUoAAF9BNg+OrnxFIUoAAFZBVg+MrKycooQAEK6CfA8NXPiaUoQAEKyCrA8JWVk5VRgAIU0E+A4aufE0tRgAIUkFWA4SsrJyujAAUooJ8Aw1c/J5aiAAUoIKsAw1dWTlZGAQpQQD8Bhq9+TixFAQpQQFYBhq+snKyMAhSggH4CDF/9nFiKAhSggKwCDF9ZOVkZBShAAf0EGL76ObEUBShAAVkFGL6ycrIyClCAAvoJMHz1c2IpClCAArIKMHxl5WRlFKAABfQTYPjq58RSFKAABWQVYPjKysnKKEABCugnwPDVz4mlKEABCsgqwPCVlZOVUYACFNBPgOGrnxNLUYACFJBVgOErKycrowAFKKCfAMNXPyeWogAFKCCrAMNXVk5WRgEKUEA/AYavfk4sRQEKUEBWAYavrJysjAIUoIB+Agxf/ZxYigIUoICsAgxfWTlZGQUoQAH9BBi++jmxFAUoQAFZBRi+snKyMgpQgAL6CTB89XNiKQpQgAKyCjB8ZeVkZRSgAAX0E2D46ufEUhSgAAVkFbCVtTZWRgEK9DqB3PiV2Bxf1tZvKxs7OLv5YmRMLEYNdu5mPKXY+s2PqAi7GTfGDuimXPcPNVQm4uevDyBk0QOYPMiq+8J96FGe+fahyeRQKHApAlV56UhMLYaznx/8xL+BXk5QFB7AF2+9jh/2FXVbpZOTE/o59Cwwraz7wd7FCY42LU01ncS3b76G9YmKbtvu7Q8a9cxXUXAAP25IQWOLkoOLN4LDxyJm9CA4GjP2m85g/TfbcK6huWEbJ3f4BYRj3PhI+Dj19ilj/ykgv4BNv1BMnzcffq0BiEUYueJf+GbVb5gcfRdCHNvbVDUpxWvaDrbWXrhi8Z+0dkYq09BoBzs7rQ+rd6qUSliJAjYuw7D47mEdCl5AeeE52PXt7IXNK2LTzdOzR+rzRPiuSoXnsAgEeDnCur4UcTt+xe9x1QiJjICnY8/eMXX1TtVwFhu+WYNKzygMCfQQh0ktso5txuqNSXAKiUKwl72up2rsz967DJ+trUDEhBD003iUOyjQ+wVKTu7F0TxPxM4cCde2kyIbeFifw679OQieGAvv87/j3/9ei4Lyo/hu6Vc4UhaGaaMUWPHOm9hfJU5shripIZTnE/Hr8qVYtvwnrNu4HUdPVWFg6FD4uDSn+tmdn+C9n1JQdGotln2xEhUDZmO48xH859WvUTtoChxSv8A/PtqCguoLyE3fh/3JKowIPotPXv8GNf6TMcSn+XxRUbAd77z+PeoGT0GYl3FyxNgza9QzX6nzVjZuGDN9Pib6NQMtXJiFXz75CMu/9cPflkyF4SeiSiiV3b+jNqPZIjBqDubHurQYXotDP76PH7/8BUEv/B9CnTtPmPQu3CjWumy7nJErqitwrqQCjU2iGi1n60rxPLvu3t6NPYOsnwJGEiguLES9tRvcxEtIVVuLmrJ0JGTMwfX3zoHvgCDRahnqaytxQdncgSZFFn786AtkeF5jYypOAAAgAElEQVSLx/4+BQNtirBn5ZdY9nE9Hn/2dgwWrzmVshYlmaeQO3Ah/vSYWOYIsIeqoQF11XVQiI/IvuNvwfPDkvGlCFavBX/Ggpj+8HSrRKj7Ghw5mo7ZEVGQQivnRDwKrEIQPljLi9JIHnJXa/Tw7dphG6cQzF84Ecf+sxPH8qYgNsAKp7f8B98fD8ejT14Fz5YnHF3xKjaVzcVT902Cg9inUhZiz5qf8NvuFJQp7OATNh43/uE2jBWTp9/miphFC3H46BfYdeQ6hM7wUD+t7OQ2/O/XzThxRgSsnRMGj5yDO+6Yj0CnU/jmtS8QL4L3gvIM/vlsHKb/8SUsGi31pg6n9v6Kn9cfQnZZPZwGhGPu9Xdg/jgf/brCUhQwM4GmhlKkJBxDocgyacngfN4x7NxxEiFTHsZQEZpSvlrZBOKaPyzGRPGaVW9N7RfppB9Lk7biWNlQ/OnxKxHmLpUJwZWi/OlXvsDuhGtwR2zza87OMwY33zETQS1LHMrzzdVJ/2vt4AYPb2fY2VhBWqb0dJNeb04YHzMIe7fGI7defHK1L8WJE9nwHzsfg/R9+bc3YTb/ZZK3DZfB4QiwOYfMMzVqCJWyBpW14sxTOrts2ZSKSlTVtbylirA79PMnWH3CA4sffxPv/OuvmDHgLL5dthr59fpb2jiFIiTIGmfPZKufpDwvLip8vh42EXfhtfc+wpsv/AGe5zbh+3WpaLAOwQ2PPoM7ZgTDyWcyHnz6WVwZIR0IQMGh77B0VS7GLn4Ob7/zOu6d4Yjt3/4XhwpU+neGJSlgRgKN1ZnYtXEDNmzYgI2bdyA5xxaxi/+CR26OUJ9pqjdr8cmwm9O1guxC2HiHIkAdvM2b+jUXYI387Py2fdbiJKebatrKdfyPgOiJ8L2QjOPpCjSUpyD1TH+MHTtca9nestNQA1nGZW3XT32FtF58lAFalwV0V91QHocdh+sw495bERMmBaA7ZtxwJY68uA6JmYvhP1zf9xBHiIuzqK+rhXQtztpRBOx9T8B3aBCcpSqcYjB51Fp8l5kjVokj4NbfG25O4oqBtRP6e7uhn1SmqRB7tychYMqTmB/jr+70yNk3YOLhN8THonxMvDZA90D4CAXMVMDOYzweeu7mDhfcLq2j0m1q2raGDidW2h6/2D47zzEYN3QFjiSkY0xFEs67j8SoUH1f9xer3TSPdxu+xcXFKBTrPtXV1Whq0q0XGxtrYO8bIJZ54Gin32eG+sJsFNerkLJzOcQNFOpN1VSJ8sYKlJTqF+DNz2oQ68XSG3jzAWLj5Au//snY+fOXOJ1fjFqxeFVTVgaVl7hSq2NETco85BTWo9T6Nyz9vPUdXomSinooS0rFs3SH7759+3TUyt0U0C5gbW0NFxcX+Pr6wsen87KWvq9P7TU37zX8tau7Nr8AXzTsy8C5GhU8W66pNClykJPXBL/I5hMV3c++2COuiIoOx+9r9mFTaYZYcrim7Y3iUl9X3dlerDdyPK4zfM+cOYOKigoEBQXBw8MDUkfl2uqLc1CsdETMgOYrpBerVyUW4ptsnDFo2HD4d7jlZfiIWPiH6Rfg6jaazok3kyYMiPZWf+yRlh0+eftn2I+9EXOvmwsPJ1tkbPsUa3J090jqC8SzBwYOR3hg+8er8PBIsfbrp/uJ4hE5D/RuG+KDfUZAOukpLy9HTk4OampqEBwcrB6bMV+fl4rnGTkdozZ8iHW/HILPbZPE9ZtSHFi5GmnWUXg42t2Aah3FJ2NxPaaoUJwsDW67XW1A5AQE/iquw6QH4NYbBrXVd6mvK122BnS0R0W1hq/0jioFb2RkpKyh29zTOhzbvg9l7uMxakhLoIu1JFVj6/puy3ga29dP7bzFwrtVMvoPnowZw5vXXS9l1AVHtuB4+QDcIBbvpa045RhymmLw1M1T2hb/iy9SvY2jF7zEmlaV+zDMmK77LPdS+sfnUKCrgHTS4+npqT4BSkpKgvTalDbjvT679kD/n22chuHWh27Hj9+uxMt//k79RPegMfjDg7chvMM68EVrFNdbJk7yx7J1b+DJw/Pw3MvXq89ybVxGImaEC/IKxyKqw4nPRevTUUCbbddPFzqeKstureErLTVIZ7zynO0qUVZSIG4LsYKiIhcJB7ZgZ7wdrn6w/UrlgAA/WJWcQHzaLMweboei1N3YeaIaCGweo/3AKzBxxHb8/ssKBN9/E0YMtEdJxjb8tDIXc+6/U+fEXqgoREGhM5oUFTiVuBtbtqZiyJWPtF2tdRLfqrG6cBJxx/LhFeGCgrSt+O1wEZSuot2WW8vsHe3RWFOC4qp6eLvaw8o6GLFTB+PjTT9hy+B7MDPSHcrSZGz8aQucZzyEq1ouyskyO6yEAi0C0mtRek3m5eWp98j3+gRGLHgO7y3onrpfyPV4/T9dylgH4vaXOu909puMe5+ZDEV1JerFnfGuLp3XgIPnPoV353aux85zKp77YGqHnXaIXPQc3ppdiSY7ca2l7YsfDaitUyFs7Fh4yvdBXJ1zrbYmD19pjVd6p5VjUzXmYtVHf8cqUZmj+L649A23u5+ai9GD2r8z7j5yHq6N+RirP3wGK0XoufuPwRB/d5S3dcAVc+58EPU//oDPXnlU3I8r3gX7BWLS1XciWOc7agPi1rwl/jXfvhIQHI5Zdz2N6eP82660ekQtwE2xX+Ln//4dm0S7HoHjMW7EIOSfKMB5cReFp1ji8I8aj9AtP+CDZ57AjLv+hdsmuyBs9gO4/cI3WL3sGfzaJB1c/RAx+Ub8YehFTpvlAGUdFisgvSbT09PV45fr9WksTAcXN/Utoj3ZpDraNyXyEn7D3qwAXH9rT9ePNXvV0VbzUePssVKJrWvV0gL2pa6jdK3LkJ/VN2w32MLNTfdXL5qkW9BqbeHsLm5XkendT6qzWqG7XVVTLarEibiT6FfHjwrS/sqKBvG9dPHurP0iryHDZ1kKXFSg9eKSKV6fF+2csQqIXxfw9T/+jQMl/TF58SP4w4wAg29V06drlzv3tC476NNRY5Sxd3LDxS6fSTdhu/f0LbVL56U61fdy69isxK1mblquDUr73fvreBJ3U4AC8giIpb4bH30JCxzEtZ8uyxjyNGCaWswqfE1DwFYpQAFzF3Dx6v5OInPvv7b+yfTBXVvV3EcBClCAAroEGL66ZLifAhSggBEFGL5GxGXVFKAABXQJMHx1yXA/BShAASMKMHyNiMuqKUABCugSYPjqkuF+ClCAAkYUYPgaEZdVU4ACFNAlwPDVJcP9FKAABYwowPA1Ii6rpgAFKKBLgOGrS4b7KUABChhRgOFrRFxWTQEKUECXAH+3gy4Z7qdAB4G4uDgcPXpUveeBBx7Qy2bp0qXqctHR0YiJidHrOX21UE1+Ppz95f9VkL3Zi+Hbm2ePfb9sAmXib/tlZGQY1F5r+dDQUIOe19cKp36+FNnLP4f9QD/4zl+AEffr9+bV1xy6jofh21WEP1Ogi4AUolL4tm6GhnBrcIeFhVmc7Zl1a9XBK2315wpQ+Ns6hm/LUcDwtbiXAwesr4C01PDzzz9rFG9dTtB4QMcOqR7pX//+/dXLD3Pndvk7Ojqe1xd21xUUdBqGFMBcgmgm4QW3vnCEcwxGEdiyZYus9UpnwFIIW9I26FrNPw7Htd/mI4Bnvpb0SuBY9RboutSg9xMvUtDSliCkoB330VLkrl8HRz9/aAvji5D12Yd7ffg2lGXg4JFkFFQC/X1DET1+FPrr+JNADZW5iD9yDGfL6uDoFIjI8eMQ7CP+SuZFNqmNtFwVAiOGwKPtL6l2ftL5s6dh5TtEZ9tS6dLMgzicnC3+Xpwj/MLGYOLYQbjYn35rUpTg9MlzcB0cAT83q7ZGVY1VSD18ACfzyqG0cUdo5CRED3HXORLjOSmQl3IMienZqGnUf1w6O8oH+oyAtLyQLUK3n58fxr789z4zLrkG0ovDV4GD3zyFJ978DYW17X8D1C1gOp559z3cPr7jX1+uEmVfwXPvrcbZivay1g6BuO7Rd/GPh2Og+092VuHXV2/Hv48vwM+bXkDHWhsqM7Bn41r8snItdhzvj39vXIGFwZorOdJfcP7++SX498rjqGlon7rB0X/C2x8/j+gB7aHadWIzVj6DRf8ob667JXzP7vsMz734IQ6eqetQ3AHjFvwVb71xJ0KcO9ZnPCdF3lb844mXsOJIIZQdeuI7ajHe+M+/MEOLRdfx8ee+JyDd3SBdWJPWd1u3rP9+jpmr1/e9wfZgRJpJ0YPKLudTSw++hWdf3wCE3o6lK3bi0KFd+OXjBxBUtxtvPPEGjnQI2dMrn8cjr61Cw5C78dlPO3H46CFs+eVNXB18HqvefxjvrD2ns+vKki1YtaMKE66/CUNa3qouZG/BG0/djGlXXIl7nvsQm46chVLjb0C3V3ngs8fx6s/pGH7ty/h1+0Ec3b8FHz4xB5WJX+LZv/0PFTpbz8PaNXEYMOkmTG8JstpTX+GJJW8hoW48/vrhGuw5lIB94k/bPzbPD/Hr/o5n/7mvUxAay6lJkYA3HvozfjrujBue/QIbdx8T41qPdx6bBkXaCjz9yDs42+GNRucQ+UCfEJDOcqXQ3Tw5Wn13Q8fglQYo/Xzs7y/3ibHKNgjpT8d33fbu3dt1l5n9XKn65tHxqrDh16h+SWvs1Lekb+5WDQsZrnruhwL1/qaGFNVLVw9VDRt7v2rPuaZOZauOfaCaNixENf2eH1TlOkYo1Tci4jbVuuz25xZufEoVMXqO6t6/fqjauD9J9fHDo1Vh4der1mR17otUZeOFQ6q/TB+iGjX9VVVyXcf2dY+htSvVKR+o5owYrXrl1/Mtuy6oNrw0VRU6dKrqve01nXrcULNb9YhoZ9jYR1WJbe3obqOnTtnrH1ONCglR3fnvw6r6Tj0pVn398Hh1H784rOmhg9nsdp8+fVr19NNPq/9J/93TTa76pNemub0+i+KOqDZNGqfXP6msuW6X27VXnvmqGlMRH18Gl0HTMT6s8xCGTJ+OIY71SDicrD4DbKzNQmahLQJGT0Zkl4/3TiNGYoiDFWqLitFh5aLDG1sm1q09ggGTF2BqUPtHea8rnsHeQ1uw7J9LMG/yYLh081ZYJ9Z5kwqaMHTKDEQ4dlwOcMX02eNgo8hAQqK2c1+xXLBqPXJdpuGaq1oXO0qQllmLfi5jMHVyv06t2jiNQNQQJzHeSpSK9W9pM6bT6bQMNIp18ylTxnVZt/ZGRNQg2DYUo7S0m48D3Zjxod4lUNLyzT+p19IXKQbdfb/6/7VtJ159BcVHLeuOD20O0r5euebbWJWL/LImeAwPhE+XEdgPDISv2Jd+LgflYoA+rvPxbfx8reNXlhShrBHwHjIE3lqWXWtOrMfmZBtc9a956Hgpy9bNB/211qi5U1mYi0KlPYYH+Wg86OEbCE87BXKycsRjnWtsrD2Mlb9lImr+SxjdtoYbgCe+jcMTGjVJQVuMvPw69BMX/YI8mwdjTKeZT65HypNaOgIFivKL0OgQhtAQLajansJ9fUagdV239YsVXQcmLT9IARxyz/0IXrCw68MW9XOvPPNtrFGoz2ptHRw17hawsnWAgzibrauuREO3J14K7Pv+eyQqA3Dt9TM16oEIkd2r1qHI/UrMn93xMpthx4eiVoF68RQHB81bMGyc3WAvHrtQ13Kq2qHqgt1rsac0BPMWXqGlb5p9yNvxA37PsMGkhQvb1qYvj1PnvijyNuCbDfnwi1mM6eG98vDSxOUegwSkb7V13VrPiKX9UgCnv/F37LjuWvU6sLbyXZ/fF3/ula8OVWM9FN0Eq5U481WJM9p68U/Xlr/rLfzjq1SMuPov+MPUzh/hpedIZ57rf8vC6PkLEdHp7gFdNWrfr9DjopNmN0uwcdVOOA5dgHljLz5FUuA9//KPqA1ajMfviWzryOVw6jjqJkUmPn7+DRy9MBxLnr4Fmuf62o24t+8LeIyNVn+tWFqSaN2kEC7atB4FG9b1fQAtI+yVyw5axmHQrvLUr/Dok8tRHXQ73n35uk5LCq0V5e9YgT3lIXhmkX5nngZ14CKFFXlbsHF/DaY9uRB+F/nk3lB5CP9c8lfsLx+Nlz78G0a5X+QJF2m748P6OLWXL8HaVx/F5/sbsOhv7+CWKM03NAOa7nVFn3nmGa19ln4DmqX9Toey+Obf/tYRpP+4aPWP6gAW33qT7v8tj48Td/zEa3WzhJ29MnytbOwhVhZQp3nKqJ4zlTjbtBcF7LV8IUI6S3z6wdeRajcH73/8d4xrWR/tPNnNZ55OI+7F7MiLn3l2d6A4tAhLZ+JdN1WDQr3LzrrzkkTS+l+R1jQBj84f3PUpnX6WzjQ/fOIJfJfmi4fe/gR3jOsceMZ3au1OFXZ88Che/DkTk+5Yhn/cFd5tv/lg3xKQwtRb/NrM1q38mGb4+kS3/0pN6Vtvzb/Z7IG+BWHgaHqWLAY2JldxGzd3OItgVdZUoLZLpU2KSlSJNQk7Z1c4dTkJbCjfg+cffBa7q8bj5aXv48oh2od/IXsD1uyvx7QbFlz0zPNiY3J0dYeLrQJVNZrruo1iPbhaLJ+4uru1VaNqTMSKlWkYPOdmTOzmyxfSFzd+eOF+fLRbidtf+hhPXjNQoyvGdmpuUIH4b5/CUx8nYMSid/DBi1O6+cKKRhe5ow8ISGEqhWtrwHa9x1ca4uGH25cb+sCQZRmC9vSRpWrjVWLjFIAAPxuUnclAQZc11Qvia76F4oTSZ/CQTssJjbWpePvRv2BNVjCe/OCTbj8Wx4sLBmfspmHRRc489RmhQ3CYuPvCCjkZuRpvFDkZmahucEBQcFBbVeePrMOuLCdcdd2MbkKsCpv//RheW1OCBX/+Ai/eNkxrV4ztJDWaufEFLPnnVgyY9RLe/+d8rUs4WjvHnX1SoONtZB1vN5MCWbrAxq1doFeGr5XNcEyfMhh153bht23SDWWtmwKH1v2OTJUXJon7T1s36Sxx+dP34Yu4/njonf/i/qm6716QzjzXrk1C6OxFGKt1ScKww8chYAJixVfjMvf8jIMF7VcJVY2Z2LwhDk39JmJK2z27Cmz9dTOq/Rfiyi738XYc4/6lj+FpcbHwirs/whsPR+m8G8KYTlJ/CsS3DB98ZiUcop/FJ+/cCv9euYhl2HyydPcC0jfdWjfpdrKuF9gOPHhf9xVY0KO99OXigJn/9yeMWfMClj53D2pz70RssCNOH/wBn32dAp9Rf8Etc1p/W0MVNr3xAN7aKG5/ir4JjmfXYVnz73buNM1+YxfjWvH7IEr2rcCWLF/c88LMbs489T9CrGxG4NaHFuLXx3/F8/f+GffcfTVC3aqwf/WX+PawEhPvvhdTWpYXGsq3Yf22UsT8Udxh0ekLGe3tZWx4AU++uwuNXpMxwiMN33+eptEZR9+JuHVhpAhl4znVZf6IJUs+Q2ZDABZFWGHr9//V6Ie1bRgW/mkm73rQkOn9O6SzWEdfP/VvKpMuprUuPXS82CYtQ7T++khd9/32folLH0EvDV/AcdBt+HjpBbzyyof48vW/4EthYGXrhshpD+GFV5dgcNvIipFwPFt9X3De0V/wtua1ALXenMenivC1wfbVv6Nh0IJuzjwNxw69+jV8WmmPV99bhTeeab6txkZ8O2zO3e/ilWemtJ25ZolfzBNXNxyvLRyls5EziYk4Jw3m3AF8+tYBreUCYl/CQhG+0hdDjOPkAcXZYzh5XoUm5GLVsn9q7YdNv2sx7k4Rvr32KNM6LK07df1dt754p4O0tCAtI0j/pLsVpNvFpE1aZui43tsavNLFNUu/s0HbQdOrXxa+0eIX5ay7G2WFOSipVMDZJxD+/bv+ishQPPdLEp7TNvou+5QlK9W/RGfi3e1fVLj401xxp7jYdGe3BR0w4ZbXse6Wl1B4Nke9zusbGASXTjc5NP8SHe+YJzBNx4VAqYnZfxPLKn/rtjGNB+V2khrwmPkmkjLf1GjLUnf0xZDVNZdO4mx3wLxrcaEgv9OtYh2DV3qcW/cCvTp8W4fW3zdI/C7f7geqz6NW9hPwwje/wDssQp/il1BGhK64EKh9c8MNz/+IG3zCjPYxXS4n7f3vu3sv5Y9ndtXIzMzsuqvX/iyd0bb+fl5pjbdWhLD0/9KSQ9dA7rWDvAwd7xPhK5eTrVsgRkUGylWdgfW4IiRypIHPYXFjCXh6eqr/5poUvNr+jltP2u1LZ8lSEDev96LtdzV0vOjWE6e+/txeebdDX58Ujs/0AlLwSn/oUvp/uTaprptvvlmu6sy2ntZANtsOmknHeOZrJhPBbpifgPSXhqWz1PPnz8vSub50xisLiIVXwvC18AOAw+9eQDpblfPst/vW+KglCTB8LWm2OVYKmEhAuh9Y2jzGtf+OBxN1xWyaZfiazVSwIxTouwL868Wac8sLbpom3EMBClDA6AIMX6MTswEKUIACmgIMX00T7qEABShgdAGGr9GJ2QAFKEABTQGGr6YJ91CAAhQwugDD1+jEbIACFKCApgDDV9OEeyhAAQoYXYDha3RiNkABClBAU4Dhq2nCPRSgAAWMLsDwNToxG6AABSigKcDw1TThHgpQgAJGF2D4Gp2YDVCAAhTQFNAavtbW1mhqatIszT0UoIDJBKTXpPTa5OtT/ilotZW/Zt01ag1fFxcXlJeX634WH6EABS67gPSalF6bfH3KT99qK3/NumvUGr6+vr7Iycnh2a9uNz5CgcsqIJ2ZSa9J6bXJ16e89B1t5a25+9qsVGLTVuTMmTOoqKhAUFAQPDw81B91uFGAApdXQAoG6axMCl53d3cEBwerO8DXZ8/nQZdtz2vWrwad4Ss9vbi4GIWFhaiuruZZsH6eLEUBWQWkkx5pmUE62/Xx8elUN1+fPaPuzrZnNev37G7DV78qWIoCFKAABQwV4FqCoWIsTwEKUEAGAYavDIisggIUoIChAgxfQ8VYngIUoIAMAgxfGRBZBQUoQAFDBRi+hoqxPAUoQAEZBBi+MiCyCgpQgAKGCjB8DRVjeQpQgAIyCDB8ZUBkFRSgAAUMFWD4GirG8hSgAAVkEGD4yoDIKihAAQoYKsDwNVSM5SlAAQrIIMDwlQGRVVCAAhQwVIDha6gYy1OAAhSQQYDhKwMiq6AABShgqADD11AxlqcABSgggwDDVwZEVkEBClDAUAGGr6FiLE8BClBABgGGrwyIrIICFKCAoQIMX0PFWJ4CFKCADAIMXxkQWQUFKEABQwUYvoaKsTwFKEABGQQYvjIgsgoKUIAChgowfA0VY3kKUIACMggwfGVAZBUUoAAFDBVg+BoqxvIUoAAFZBBg+MqAyCooQAEKGCrA8DVUjOUpQAEKyCDA8JUBkVVQgAIUMFSA4WuoGMtTgAIUkEGA4SsDIqugAAUoYKgAw9dQMZanAAUoIIMAw1cGRFZBAQpQwFABhq+hYixPAQpQQAYBhq8MiKyCAhSggKECDF9DxVieAhSggAwCDF8ZEFkFBShAAUMFGL6GirE8BShAARkEGL4yILIKClCAAoYKMHwNFWN5ClCAAjIIMHxlQGQVFKAABQwVYPgaKsbyFKAABWQQYPjKgMgqKEABChgqwPA1VIzlKUABCsggwPCVAZFVUIACFDBUgOFrqBjLU4ACFJBBgOErAyKroAAFKGCoAMPXUDGWpwAFKCCDAMNXBkRWQQEKUMBQAYavoWIsTwEKUEAGAYavDIisggIUoIChAgxfQ8VYngIUoIAMAgxfGRBZBQUoQAFDBRi+hoqxPAUoQAEZBBi+MiCyCgpQgAKGCjB8DRVjeQpQgAIyCDB8ZUBkFRSgAAUMFWD4GirG8hSgAAVkEGD4yoDIKihAAQoYKsDwNVSM5SlAAQrIIMDwlQGRVVCAAhQwVIDha6gYy1OAAhSQQYDhKwMiq6AABShgqADD11AxlqcABSgggwDDVwZEVkEBClDAUAGGr6FiLE8BClBABgGGrwyIrIICFKCAoQIMX0PFWJ4CFKCADAIMXxkQWQUFKEABQwUYvoaKsTwFKEABGQQYvjIgsgoKUIAChgowfA0VY3kKUIACMggwfGVAZBUUoAAFDBVg+BoqxvIUoAAFZBBg+MqAyCooQAEKGCrA8DVUjOUpQAEKyCDA8JUBkVVQgAIUMFSA4WuoGMtTgAIUkEGA4SsDIqugAAUoYKgAw9dQMZanAAUoIIMAw1cGRFZBAQpQwFABhq+hYixPAQpQQAYBhq8MiKyCAhSggKECDF9DxVieAhSggAwCDF8ZEFkFBShAAUMFGL6GirE8BShAARkEGL4yILIKClCAAoYKMHwNFWN5ClCAAjIIMHxlQGQVFKAABQwVYPgaKsbyFKAABWQQYPjKgMgqKEABChgqYGvoE1i+7whsP74Zm46sQkZuChoalH1nYDKOxNbWDmGBEZg3/nrMirpKxppZlaULMHwt9AhYtukDnMg6hltm3I2YIZNgb+dgoRLdD7teqUDc6YP4aedyZOSn4b55j3f/BD5KAT0FrFRi07Msi/URAemMd82+H/HWvUsZunrOqRTCT3/xABbF3sYzYD3NWKx7Aa75du/TJx+VlhqkM16e7eo/vZKVZCbZcaOAHAIMXzkUe1kd0hqvtNTAzTAByUyy40YBOQQYvnIo9rI6pItrPOs1fNIkM16YNNyNz9AuwPDV7sK9FKAABYwqwPA1Ki8rpwAFKKBdgOGr3YV7KUABChhVgOFrVF5WTgEKUEC7AMNXuwv3UoACFDCqAMPXqLysnAIUoIB2AYavdhfupQAFKGBUAYavUXlZOQUoQAHtAgxf7S7cSwEKUMCoAvytZkbltYzKi/J2Ym/6ceRXKuDQzwshg2fiimEhcNL51l6P08lrkVCmwuChCzF+YMffqFaP1KS1SK6oR3/fKzF7iLcGYkPlUWw+no4LVr4YHzMLgxzysffgThQ2aBRV799SDn8AAAr3SURBVLBqK6f9ce6lgCkEGL6mUO8rbTblY/Pap7H0aCYaO45p7zJ853sdHv3jM4h2t9IYbdOFA/hizbtIrVPBP9cTo26djX5tpexRX7QG3+48DRffWowMuxe+Xao4efRjfL49FU7ef8SESbOgajiNTb9/hCSl9l/QZ2U9Bl6jZoqQ1uyLRue4gwKXSYDhe5mg+2IzmUfeVAevtdMY3HzNQ4gd5IWGimSs3fwutuesxmerhuGdu66HW5fB5yevx0kRvNJ27tQmJNXMwgTn9mAcETUXPntOo6RoJ+JL7sF8n46heRZ7kk+pnzts5DwE2UCEb2sDvpg771GM93Ts3KK1C8I61N/5Qf5EAdMIMHxN494HWq1G0qkT6jPeqIlP4daosOYxeQTgkVvKkPbe+yjI+h3xFddhRqez3/PYlRiPJmtfDBqgRHbhIexMLMGEK3zaTOx95iDWbxlW52YgPjkX82cEtT1WX7wLR0oaYGUdhtjRoZ0craztEBgyExP9eYbbBw6wPj8EnatyfX7kHGAPBezhYG+vrqOk6AwqO9Rm634NXnzga7z94AsY2+WMU1m6BTuya+HoMQcPzJsNVysljiduQmmn3vhjWtQoiJNapKfv7PTY6ZRdKBaJ7+F/FaI7nRH3cDh8OgUuswDD9zKD953m7HHFhPnwFAmZk/wCnvj0NaxIOI7iemmELvD3G4YhfgFw7/LZKiVhvTo8w0bOwqiQuRjrYYPqws04kN95vXbwqCsRaGeFqvwdOC4uzDVv+TiUdlL8px0iIufBqwumqkmJvJz9OHYqrv1fxnHk1WhfC+47c8GR9EYBLjv0xlkzkz67BS/BG7fb4821PyAzfwO+/XUDvl/THyNG3IjrZ/4R4326/F24phPYmpgllgyCMHnUcMDaCrMjQ7B792nsFsF9rf/otpHZuk7H1OCP8N2p0zicXIKZU3ygLNuDwwUNsLadgNhIzbsggEL8vv4p/N7JxxnX3f477h7BpQgzOWzYjRYBhi8PhR4J+A27H+/+eTGOi1vHdpzYgcOnTyI56Qukpm7Ggps+wZ8i2kOyInMDjpQ1wlncQhbj1xyGEZHT4LnvNM4kb0L63NEIt2vtjiemR03Gj6e2If3kdlROuQXFKTuRL86aB4TPwzhXbWHqgehJf0SEa8ch2WNo19slejRiPpkC8ggwfOVxtOharGw9MXr0Xep/jbWnsGbDK/jueCY2rvsUsUNfbAnUehxI2IU6IeVSH4+vfnqx2cyqDNLNCorKLdh98nGEj2y/U8F7+AwM67cd6Tk7cbxiirg3OFmUdMbY0Vd0uDWtnd7K2hVRY2/HdbzgZtHHY28ZPNd8e8tMmVk/G6t34d3/3oenvngTxzqsqdo4DcV1C25DsI0VlLXpOH2+eb21sXY3dqSVq0dRff4YDiRvbf534igq1TcJ1+Bo4g51OLdu1o7TMGOYB5oakrHr8DocylfCzmkipg1z71CK/0mB3inAM9/eOW8m77WNkxdUFak4VZaOzfGLMXZq+21ftecLUAYpdF3h4dTcVene3lMKFdwC78Wrt13X6d5fZdlKPL/8S/U9v/FV8xDbtqRgj8lR0/FV4moc2fs1VE1AcPjVCO+ylGxyDHaAApcgwPC9BDQ+RQhYj8Jt865Ews8bceD3u/DwqekYNdAbjRfOIiH9IM6Ls9mgkYtb1mbzse1YvLgn2A6jRi5EsFuX+xTcrsEU/2+xKueYuAc4F7FT2u/rdQudi5GuaxFXJZIXHpgQdYWoRfumairExjVLcKhrOFsPxqJFT2NSf23rxNrr4l4KGFuA4Wts4T5cv3/ES3j7rpH4atuPOHp2KzZnNQ/W1nEQJl1xP+6b2/y14frirdgrlgysbcdgota7FPwxNXIs1uYcRnLiZhTGtn+l2Mp2HK4aGYi4g9ni3uArcUVIdytlShTmx4t7HjpvVtYVmKK+BY4bBcxHwEolNvPpDntyOQQWvTgZa149IGtTTfVVKKuuhNLaDV4erjrPTmVt1ASVGcPOBMNgk2YgwDNfM5iEvtAFa3tXeHl2userLwyLY6CA0QS6+wxntEZZMQUoQAFLF2D4WvoRwPFTgAImEWD4moSdjVKAApYuwPC19COA46cABUwiwPA1CTsbpQAFLF2A4WvpRwDHTwEKmESA4WsSdjZKAQpYugDD19KPAI6fAhQwiQDD1yTsbJQCFLB0AYavpR8BHD8FKGASAYavSdjZKAUoYOkCDF9LPwI4fgpQwCQCDF+TsLNRClDA0gUYvhZ4BNja2qFeqbDAkfdsyJKZZMeNAnIIMHzlUOxldYQFRiDu9MFe1mvTd1cyk+y4UUAOAYavHIq9rI5546/HTzuX8+zXgHmTznolM8mOGwXkEGD4yqHYy+qYFXUVRoWMxdNfPID9qbsYwt3MnxS6kpFkJZlJdtwoIIcA/4yQHIq9tI7txzdj05FVyMhNQUODspeOwrjdltZ4paUG6YyXwWtca0urneFraTPO8VKAAmYhwGUHs5gGdoICFLA0AYavpc04x0sBCpiFAMPXLKaBnaAABSxNgOFraTPO8VKAAmYhwPA1i2lgJyhAAUsTYPha2oxzvBSggFkIMHzNYhrYCQpQwNIEGL6WNuMcLwUoYBYCDF+zmAZ2ggIUsDQBhq+lzTjHSwEKmIUAw9cspoGdoAAFLE2A4WtpM87xUoACZiHA8DWLaWAnKEABSxNg+FrajHO8FKCAWQgwfM1iGtgJClDA0gQYvpY24xwvBShgFgIMX7OYBnaCAhSwNAGGr6XNOMdLAQqYhQDD1yymgZ2gAAUsTYDha2kzzvFSgAJmIcDwNYtpYCcoQAFLE2D4WtqMc7wUoIBZCDB8zWIa2AkKUMDSBBi+ljbjHC8FKGAWAgxfs5gGdoICFLA0AYavpc04x0sBCpiFAMPXLKaBnaAABSxNgOFraTPO8VKAAmYhwPA1i2lgJyhAAUsTYPha2oxzvBSggFkIMHzNYhrYCQpQwNIEGL6WNuMcLwUoYBYCDF+zmAZ2ggIUsDQBhq+lzTjHSwEKmIUAw9cspoGdoAAFLE2A4WtpM87xUoACZiHA8DWLaWAnKEABSxNg+FrajHO8FKCAWQgwfM1iGtgJClDA0gQYvpY24xwvBShgFgIMX7OYBnaCAhSwNAGGr6XNOMdLAQqYhQDD1yymgZ2gAAUsTYDha2kzzvFSgAJmIcDwNYtpYCcoQAFLE2D4WtqMc7wUoIBZCDB8zWIa2AkKUMDSBBi+ljbjHC8FKGAWAgxfs5gGdoICFLA0AYavpc04x0sBCpiFAMPXLKaBnaAABSxNgOFraTPO8VKAAmYhwPA1i2lgJyhAAUsTYPha2oxzvBSggFkIMHzNYhrYCQpQwNIEGL6WNuMcLwUoYBYCDF+zmAZ2ggIUsDQBhq+lzTjHSwEKmIUAw9cspoGdoAAFLE2A4WtpM87xUoACZiHA8DWLaWAnKEABSxNg+FrajHO8FKCAWQgwfM1iGtgJClDA0gQYvpY24xwvBShgFgIMX7OYBnaCAhSwNAGGr6XNOMdLAQqYhQDD1yymgZ2gAAUsTYDha2kzzvFSgAJmIcDwNYtpYCcoQAFLE2D4WtqMc7wUoIBZCDB8zWIa2AkKUMDSBBi+ljbjHC8FKGAWAgxfs5gGdoICFLA0AYavpc04x0sBCpiFAMPXLKaBnaAABSxNgOFraTPO8VKAAmYhwPA1i2lgJyhAAUsTYPha2oxzvBSggFkI/D/F1dT9nITk6wAAAABJRU5ErkJggg==;" parent="b5bX3gUsnpmr1mp6cXlo-69" vertex="1">
                    <mxGeometry width="173.07" height="249" as="geometry"/>
                </mxCell>
                <mxCell id="b5bX3gUsnpmr1mp6cXlo-60" value="" style="whiteSpace=wrap;html=1;rounded=0;sketch=0;hachureGap=4;fontSize=20;strokeColor=#CC0000;strokeWidth=1;fillColor=none;gradientColor=#ffffff;dashed=1;" parent="b5bX3gUsnpmr1mp6cXlo-69" vertex="1">
                    <mxGeometry x="7.999999999999999" y="35" width="154.46" height="36" as="geometry"/>
                </mxCell>
                <mxCell id="b5bX3gUsnpmr1mp6cXlo-62" value="" style="whiteSpace=wrap;html=1;rounded=0;sketch=0;hachureGap=4;fontSize=20;strokeColor=#CC0000;strokeWidth=1;fillColor=none;gradientColor=#ffffff;dashed=1;" parent="b5bX3gUsnpmr1mp6cXlo-69" vertex="1">
                    <mxGeometry x="4" y="101" width="115" height="46" as="geometry"/>
                </mxCell>
                <mxCell id="b5bX3gUsnpmr1mp6cXlo-64" value="" style="whiteSpace=wrap;html=1;rounded=0;sketch=0;hachureGap=4;fontSize=20;strokeColor=#CC0000;strokeWidth=1;fillColor=none;gradientColor=#ffffff;dashed=1;" parent="b5bX3gUsnpmr1mp6cXlo-69" vertex="1">
                    <mxGeometry x="53.00000000000001" y="180" width="57" height="36" as="geometry"/>
                </mxCell>
                <mxCell id="b5bX3gUsnpmr1mp6cXlo-124" value="" style="whiteSpace=wrap;html=1;rounded=0;sketch=0;hachureGap=4;fontSize=20;strokeColor=#CC0000;strokeWidth=1;fillColor=none;gradientColor=#ffffff;dashed=1;" parent="b5bX3gUsnpmr1mp6cXlo-69" vertex="1">
                    <mxGeometry x="119" y="101.5" width="42" height="46" as="geometry"/>
                </mxCell>
                <mxCell id="b5bX3gUsnpmr1mp6cXlo-100" value="&lt;font color=&quot;#b9e0a5&quot;&gt;useTodoForm&lt;/font&gt;" style="text;html=1;align=center;verticalAlign=middle;resizable=0;points=[];autosize=1;strokeColor=none;fillColor=none;rounded=0;sketch=0;hachureGap=4;fontFamily=Helvetica;fontSize=20;fontColor=#FFD966;" parent="IwmPD_r2PDRioC0zgAHV-1" vertex="1">
                    <mxGeometry x="-138.9968258099412" y="-24" width="132" height="28" as="geometry"/>
                </mxCell>
                <mxCell id="b5bX3gUsnpmr1mp6cXlo-121" style="edgeStyle=none;curved=1;rounded=1;sketch=0;orthogonalLoop=1;jettySize=auto;html=1;entryX=0.5;entryY=1;entryDx=0;entryDy=0;fontFamily=Helvetica;fontSize=20;fontColor=#CC99FF;endArrow=open;startSize=14;endSize=14;sourcePerimeterSpacing=8;targetPerimeterSpacing=8;strokeWidth=2;fillColor=#e1d5e7;strokeColor=#9673a6;exitX=0;exitY=0.5;exitDx=0;exitDy=0;" parent="IwmPD_r2PDRioC0zgAHV-1" source="b5bX3gUsnpmr1mp6cXlo-118" target="b5bX3gUsnpmr1mp6cXlo-52" edge="1">
                    <mxGeometry relative="1" as="geometry">
                        <Array as="points">
                            <mxPoint x="-319" y="48"/>
                        </Array>
                    </mxGeometry>
                </mxCell>
                <mxCell id="b5bX3gUsnpmr1mp6cXlo-123" style="edgeStyle=none;curved=1;rounded=1;sketch=0;orthogonalLoop=1;jettySize=auto;html=1;exitX=0;exitY=0.5;exitDx=0;exitDy=0;entryX=0;entryY=0.5;entryDx=0;entryDy=0;fontFamily=Helvetica;fontSize=20;fontColor=#CC99FF;endArrow=open;startSize=14;endSize=14;sourcePerimeterSpacing=8;targetPerimeterSpacing=8;strokeWidth=2;fillColor=#e1d5e7;strokeColor=#9673a6;" parent="IwmPD_r2PDRioC0zgAHV-1" source="b5bX3gUsnpmr1mp6cXlo-119" target="b5bX3gUsnpmr1mp6cXlo-50" edge="1">
                    <mxGeometry relative="1" as="geometry">
                        <Array as="points">
                            <mxPoint x="-514" y="-34"/>
                        </Array>
                    </mxGeometry>
                </mxCell>
                <mxCell id="b5bX3gUsnpmr1mp6cXlo-127" value="&lt;font color=&quot;#ffffff&quot;&gt;PrioritySelector&lt;/font&gt;" style="text;html=1;align=center;verticalAlign=middle;resizable=0;points=[];autosize=1;strokeColor=none;fillColor=none;rounded=0;sketch=0;hachureGap=4;fontFamily=Helvetica;fontSize=20;fontColor=#CC99FF;" parent="IwmPD_r2PDRioC0zgAHV-1" vertex="1">
                    <mxGeometry x="93" y="-131" width="146" height="28" as="geometry"/>
                </mxCell>
                <mxCell id="b5bX3gUsnpmr1mp6cXlo-128" style="edgeStyle=none;curved=1;rounded=1;sketch=0;orthogonalLoop=1;jettySize=auto;html=1;entryX=-0.017;entryY=0.494;entryDx=0;entryDy=0;entryPerimeter=0;fontFamily=Helvetica;fontSize=20;fontColor=#FFFFFF;endArrow=open;startSize=14;endSize=14;sourcePerimeterSpacing=8;targetPerimeterSpacing=8;strokeWidth=2;fillColor=#f8cecc;strokeColor=#b85450;" parent="IwmPD_r2PDRioC0zgAHV-1" source="b5bX3gUsnpmr1mp6cXlo-124" target="b5bX3gUsnpmr1mp6cXlo-127" edge="1">
                    <mxGeometry relative="1" as="geometry"/>
                </mxCell>
                <mxCell id="b5bX3gUsnpmr1mp6cXlo-129" style="edgeStyle=none;curved=1;rounded=1;sketch=0;orthogonalLoop=1;jettySize=auto;html=1;exitX=1;exitY=0.5;exitDx=0;exitDy=0;entryX=0.416;entryY=0.937;entryDx=0;entryDy=0;entryPerimeter=0;fontFamily=Helvetica;fontSize=20;fontColor=#FFFFFF;endArrow=open;startSize=14;endSize=14;sourcePerimeterSpacing=8;targetPerimeterSpacing=8;strokeWidth=2;fillColor=#e1d5e7;strokeColor=#9673a6;" parent="IwmPD_r2PDRioC0zgAHV-1" source="b5bX3gUsnpmr1mp6cXlo-120" target="b5bX3gUsnpmr1mp6cXlo-127" edge="1">
                    <mxGeometry relative="1" as="geometry">
                        <Array as="points">
                            <mxPoint x="179" y="56"/>
                        </Array>
                    </mxGeometry>
                </mxCell>
                <mxCell id="b5bX3gUsnpmr1mp6cXlo-141" style="edgeStyle=none;curved=1;rounded=1;sketch=0;orthogonalLoop=1;jettySize=auto;html=1;exitX=0;exitY=0.5;exitDx=0;exitDy=0;entryX=0.25;entryY=1;entryDx=0;entryDy=0;fontFamily=Helvetica;fontSize=20;fontColor=#FFFFFF;endArrow=open;startSize=14;endSize=14;sourcePerimeterSpacing=8;targetPerimeterSpacing=8;strokeWidth=2;fillColor=#e1d5e7;strokeColor=#9673a6;" parent="IwmPD_r2PDRioC0zgAHV-1" source="b5bX3gUsnpmr1mp6cXlo-140" target="b5bX3gUsnpmr1mp6cXlo-51" edge="1">
                    <mxGeometry relative="1" as="geometry">
                        <Array as="points">
                            <mxPoint x="-529" y="121"/>
                        </Array>
                    </mxGeometry>
                </mxCell>
            </root>
        </mxGraphModel>
    </diagram>
</mxfile>